<?xml version="1.0" encoding="UTF-8" standalone="no"?>
<!DOCTYPE svg PUBLIC "-//W3C//DTD SVG 1.1//EN"
 "http://www.w3.org/Graphics/SVG/1.1/DTD/svg11.dtd">
<!-- Generated by graphviz version 2.42.3 (20191010.1750)
 -->
<!-- Title: update2 Pages: 1 -->
<svg width="380pt" height="142pt"
 viewBox="0.00 0.00 380.00 142.00" xmlns="http://www.w3.org/2000/svg" xmlns:xlink="http://www.w3.org/1999/xlink">
<g id="graph0" class="graph" transform="scale(1 1) rotate(0) translate(4 138)">
<title>update2</title>
<!-- Node1 -->
<g id="node1" class="node">
<title>Node1</title>
<g id="a_node1"><a xlink:title=" ">
<polygon fill="#bfbfbf" stroke="black" points="321,-57.5 321,-76.5 372,-76.5 372,-57.5 321,-57.5"/>
<text text-anchor="middle" x="346.5" y="-64.5" font-family="Helvetica,sans-Serif" font-size="10.00">update2</text>
</a>
</g>
</g>
<!-- Node2 -->
<g id="node2" class="node">
<title>Node2</title>
<g id="a_node2"><a xlink:href="namespacepartfun__mod.html#a04110edf21e53f31dd377d3235bce8ca" target="_top" xlink:title=" ">
<polygon fill="none" stroke="black" points="137,-114.5 137,-133.5 285,-133.5 285,-114.5 137,-114.5"/>
<text text-anchor="middle" x="211" y="-121.5" font-family="Helvetica,sans-Serif" font-size="10.00">partfun_mod::generatecalanus</text>
</a>
</g>
</g>
<!-- Node1&#45;&gt;Node2 -->
<g id="edge1" class="edge">
<title>Node1&#45;&gt;Node2</title>
<path fill="none" stroke="midnightblue" d="M320.87,-81.76C310.09,-87.87 297.14,-94.74 285,-100 272.27,-105.51 257.83,-110.51 245.18,-114.49"/>
<polygon fill="midnightblue" stroke="midnightblue" points="322.82,-84.68 329.72,-76.64 319.31,-78.62 322.82,-84.68"/>
</g>
<!-- Node3 -->
<g id="node3" class="node">
<title>Node3</title>
<g id="a_node3"><a xlink:href="test__model__parallel_8f90.html#ac46b7f7a127dc5439a50d66d9b101f55" target="_top" xlink:title=" ">
<polygon fill="none" stroke="black" points="0,-57.5 0,-76.5 101,-76.5 101,-57.5 0,-57.5"/>
<text text-anchor="middle" x="50.5" y="-64.5" font-family="Helvetica,sans-Serif" font-size="10.00">test_model_parallel</text>
</a>
</g>
</g>
<!-- Node1&#45;&gt;Node3 -->
<g id="edge7" class="edge">
<title>Node1&#45;&gt;Node3</title>
<path fill="none" stroke="midnightblue" d="M310.9,-67C258.98,-67 160.67,-67 101.12,-67"/>
<polygon fill="midnightblue" stroke="midnightblue" points="310.94,-70.5 320.94,-67 310.94,-63.5 310.94,-70.5"/>
</g>
<!-- Node4 -->
<g id="node4" class="node">
<title>Node4</title>
<g id="a_node4"><a xlink:href="namespacepartfun__mod.html#ae3f91c22cbcdaf9ddd7ebd1ce7c08b52" target="_top" xlink:title=" ">
<polygon fill="none" stroke="black" points="146.5,-38.5 146.5,-57.5 275.5,-57.5 275.5,-38.5 146.5,-38.5"/>
<text text-anchor="middle" x="211" y="-45.5" font-family="Helvetica,sans-Serif" font-size="10.00">partfun_mod::generatekrill</text>
</a>
</g>
</g>
<!-- Node1&#45;&gt;Node4 -->
<g id="edge3" class="edge">
<title>Node1&#45;&gt;Node4</title>
<path fill="none" stroke="midnightblue" d="M310.5,-62.02C299.75,-60.49 287.58,-58.76 275.55,-57.04"/>
<polygon fill="midnightblue" stroke="midnightblue" points="310.31,-65.53 320.7,-63.47 311.3,-58.6 310.31,-65.53"/>
</g>
<!-- Node5 -->
<g id="node5" class="node">
<title>Node5</title>
<g id="a_node5"><a xlink:href="namespacepartfun__mod.html#aba3585524f13dc7aa5245aaebcb9caf4" target="_top" xlink:title=" ">
<polygon fill="none" stroke="black" points="146,-0.5 146,-19.5 276,-19.5 276,-0.5 146,-0.5"/>
<text text-anchor="middle" x="211" y="-7.5" font-family="Helvetica,sans-Serif" font-size="10.00">partfun_mod::generatezoo</text>
</a>
</g>
</g>
<!-- Node1&#45;&gt;Node5 -->
<g id="edge5" class="edge">
<title>Node1&#45;&gt;Node5</title>
<path fill="none" stroke="midnightblue" d="M324.41,-51.51C313.17,-43.84 298.84,-34.98 285,-29 276.34,-25.26 266.78,-22.12 257.51,-19.54"/>
<polygon fill="midnightblue" stroke="midnightblue" points="322.5,-54.44 332.69,-57.32 326.52,-48.71 322.5,-54.44"/>
</g>
<!-- Node2&#45;&gt;Node3 -->
<g id="edge2" class="edge">
<title>Node2&#45;&gt;Node3</title>
<path fill="none" stroke="midnightblue" d="M170.09,-111.28C159.31,-107.74 147.68,-103.81 137,-100 116.02,-92.51 92.42,-83.34 75.33,-76.57"/>
<polygon fill="midnightblue" stroke="midnightblue" points="169.1,-114.64 179.69,-114.42 171.27,-107.99 169.1,-114.64"/>
</g>
<!-- Node4&#45;&gt;Node3 -->
<g id="edge4" class="edge">
<title>Node4&#45;&gt;Node3</title>
<path fill="none" stroke="midnightblue" d="M136.17,-56.85C124.39,-58.26 112.46,-59.69 101.41,-61.02"/>
<polygon fill="midnightblue" stroke="midnightblue" points="136.93,-60.28 146.45,-55.62 136.1,-53.33 136.93,-60.28"/>
</g>
<!-- Node5&#45;&gt;Node3 -->
<g id="edge6" class="edge">
<title>Node5&#45;&gt;Node3</title>
<path fill="none" stroke="midnightblue" d="M158.5,-22.27C151.23,-24.33 143.88,-26.59 137,-29 113.54,-37.2 87.58,-49.18 70.49,-57.48"/>
<polygon fill="midnightblue" stroke="midnightblue" points="159.61,-25.6 168.34,-19.59 157.77,-18.84 159.61,-25.6"/>
</g>
</g>
</svg>
