<?xml version="1.0" encoding="UTF-8" standalone="no"?>
<!DOCTYPE svg PUBLIC "-//W3C//DTD SVG 1.1//EN"
 "http://www.w3.org/Graphics/SVG/1.1/DTD/svg11.dtd">
<!-- Generated by graphviz version 2.42.3 (20191010.1750)
 -->
<!-- Title: cday2 Pages: 1 -->
<svg width="464pt" height="209pt"
 viewBox="0.00 0.00 464.00 208.86" xmlns="http://www.w3.org/2000/svg" xmlns:xlink="http://www.w3.org/1999/xlink">
<g id="graph0" class="graph" transform="scale(1 1) rotate(0) translate(4 204.86)">
<title>cday2</title>
<!-- Node1 -->
<g id="node1" class="node">
<title>Node1</title>
<g id="a_node1"><a xlink:title=" ">
<polygon fill="#bfbfbf" stroke="black" points="413,-95.5 413,-114.5 456,-114.5 456,-95.5 413,-95.5"/>
<text text-anchor="middle" x="434.5" y="-102.5" font-family="Helvetica,sans-Serif" font-size="10.00">cday2</text>
</a>
</g>
</g>
<!-- Node2 -->
<g id="node2" class="node">
<title>Node2</title>
<g id="a_node2"><a xlink:href="namespacepartfun__mod.html#a04110edf21e53f31dd377d3235bce8ca" target="_top" xlink:title=" ">
<polygon fill="none" stroke="black" points="137,-152.5 137,-171.5 285,-171.5 285,-152.5 137,-152.5"/>
<text text-anchor="middle" x="211" y="-159.5" font-family="Helvetica,sans-Serif" font-size="10.00">partfun_mod::generatecalanus</text>
</a>
</g>
</g>
<!-- Node1&#45;&gt;Node2 -->
<g id="edge1" class="edge">
<title>Node1&#45;&gt;Node2</title>
<path fill="none" stroke="midnightblue" d="M403.34,-117.1C394.9,-120.25 385.66,-123.46 377,-126 340,-136.85 297.48,-146.05 264.87,-152.44"/>
<polygon fill="midnightblue" stroke="midnightblue" points="404.71,-120.33 412.81,-113.49 402.22,-113.79 404.71,-120.33"/>
</g>
<!-- Node3 -->
<g id="node3" class="node">
<title>Node3</title>
<g id="a_node3"><a xlink:href="test__model__parallel_8f90.html#ac46b7f7a127dc5439a50d66d9b101f55" target="_top" xlink:title=" ">
<polygon fill="none" stroke="black" points="0,-95.5 0,-114.5 101,-114.5 101,-95.5 0,-95.5"/>
<text text-anchor="middle" x="50.5" y="-102.5" font-family="Helvetica,sans-Serif" font-size="10.00">test_model_parallel</text>
</a>
</g>
</g>
<!-- Node1&#45;&gt;Node3 -->
<g id="edge9" class="edge">
<title>Node1&#45;&gt;Node3</title>
<path fill="none" stroke="midnightblue" d="M414.73,-121.09C404.15,-129.59 390.4,-139.74 377,-147 282.28,-198.33 237.7,-219.29 137,-181 101.54,-167.52 71.4,-131.85 58.38,-114.6"/>
<polygon fill="midnightblue" stroke="midnightblue" points="416.97,-123.77 422.46,-114.71 412.52,-118.37 416.97,-123.77"/>
</g>
<!-- Node4 -->
<g id="node4" class="node">
<title>Node4</title>
<g id="a_node4"><a xlink:href="namespacepartfun__mod.html#ae3f91c22cbcdaf9ddd7ebd1ce7c08b52" target="_top" xlink:title=" ">
<polygon fill="none" stroke="black" points="146.5,-114.5 146.5,-133.5 275.5,-133.5 275.5,-114.5 146.5,-114.5"/>
<text text-anchor="middle" x="211" y="-121.5" font-family="Helvetica,sans-Serif" font-size="10.00">partfun_mod::generatekrill</text>
</a>
</g>
</g>
<!-- Node1&#45;&gt;Node4 -->
<g id="edge3" class="edge">
<title>Node1&#45;&gt;Node4</title>
<path fill="none" stroke="midnightblue" d="M402.37,-107.67C369.67,-110.47 317.34,-114.96 275.81,-118.53"/>
<polygon fill="midnightblue" stroke="midnightblue" points="403,-111.13 412.66,-106.79 402.4,-104.16 403,-111.13"/>
</g>
<!-- Node5 -->
<g id="node5" class="node">
<title>Node5</title>
<g id="a_node5"><a xlink:href="namespacepartfun__mod.html#aba3585524f13dc7aa5245aaebcb9caf4" target="_top" xlink:title=" ">
<polygon fill="none" stroke="black" points="146,-38.5 146,-57.5 276,-57.5 276,-38.5 146,-38.5"/>
<text text-anchor="middle" x="211" y="-45.5" font-family="Helvetica,sans-Serif" font-size="10.00">partfun_mod::generatezoo</text>
</a>
</g>
</g>
<!-- Node1&#45;&gt;Node5 -->
<g id="edge5" class="edge">
<title>Node1&#45;&gt;Node5</title>
<path fill="none" stroke="midnightblue" d="M414.75,-89.05C404.31,-81.06 390.69,-72.05 377,-67 345.08,-55.23 307.53,-50.27 276.32,-48.35"/>
<polygon fill="midnightblue" stroke="midnightblue" points="412.71,-91.89 422.7,-95.4 417.08,-86.42 412.71,-91.89"/>
</g>
<!-- Node6 -->
<g id="node6" class="node">
<title>Node6</title>
<g id="a_node6"><a xlink:href="def__domain_8f90.html#a0b4165d03da4b1d6f6689561dcb50683" target="_top" xlink:title=" ">
<polygon fill="none" stroke="black" points="321,-0.5 321,-19.5 377,-19.5 377,-0.5 321,-0.5"/>
<text text-anchor="middle" x="349" y="-7.5" font-family="Helvetica,sans-Serif" font-size="10.00">sun_time</text>
</a>
</g>
</g>
<!-- Node1&#45;&gt;Node6 -->
<g id="edge7" class="edge">
<title>Node1&#45;&gt;Node6</title>
<path fill="none" stroke="midnightblue" d="M420.61,-87.11C409.64,-72.32 393.15,-51.05 377,-34 372.26,-28.99 366.6,-23.86 361.7,-19.63"/>
<polygon fill="midnightblue" stroke="midnightblue" points="417.94,-89.39 426.67,-95.39 423.59,-85.25 417.94,-89.39"/>
</g>
<!-- Node7 -->
<g id="node7" class="node">
<title>Node7</title>
<g id="a_node7"><a xlink:href="def__domain_8f90.html#aae31ca494afac027b938401c0d53290d" target="_top" xlink:title=" ">
<polygon fill="none" stroke="black" points="323.5,-76.5 323.5,-95.5 374.5,-95.5 374.5,-76.5 323.5,-76.5"/>
<text text-anchor="middle" x="349" y="-83.5" font-family="Helvetica,sans-Serif" font-size="10.00">update2</text>
</a>
</g>
</g>
<!-- Node1&#45;&gt;Node7 -->
<g id="edge10" class="edge">
<title>Node1&#45;&gt;Node7</title>
<path fill="none" stroke="midnightblue" d="M403.1,-98.08C393.71,-95.95 383.5,-93.62 374.56,-91.59"/>
<polygon fill="midnightblue" stroke="midnightblue" points="402.33,-101.5 412.86,-100.3 403.89,-94.67 402.33,-101.5"/>
</g>
<!-- Node2&#45;&gt;Node3 -->
<g id="edge2" class="edge">
<title>Node2&#45;&gt;Node3</title>
<path fill="none" stroke="midnightblue" d="M158.5,-149.73C151.23,-147.67 143.88,-145.41 137,-143 113.54,-134.8 87.58,-122.82 70.49,-114.52"/>
<polygon fill="midnightblue" stroke="midnightblue" points="157.77,-153.16 168.34,-152.41 159.61,-146.4 157.77,-153.16"/>
</g>
<!-- Node4&#45;&gt;Node3 -->
<g id="edge4" class="edge">
<title>Node4&#45;&gt;Node3</title>
<path fill="none" stroke="midnightblue" d="M136.17,-115.15C124.39,-113.74 112.46,-112.31 101.41,-110.98"/>
<polygon fill="midnightblue" stroke="midnightblue" points="136.1,-118.67 146.45,-116.38 136.93,-111.72 136.1,-118.67"/>
</g>
<!-- Node5&#45;&gt;Node3 -->
<g id="edge6" class="edge">
<title>Node5&#45;&gt;Node3</title>
<path fill="none" stroke="midnightblue" d="M170.09,-60.72C159.31,-64.26 147.68,-68.19 137,-72 116.02,-79.49 92.42,-88.66 75.33,-95.43"/>
<polygon fill="midnightblue" stroke="midnightblue" points="171.27,-64.01 179.69,-57.58 169.1,-57.36 171.27,-64.01"/>
</g>
<!-- Node6&#45;&gt;Node3 -->
<g id="edge8" class="edge">
<title>Node6&#45;&gt;Node3</title>
<path fill="none" stroke="midnightblue" d="M310.55,-6.5C266.98,-3.95 193.76,-4.45 137,-29 102.37,-43.98 72.04,-78.59 58.71,-95.44"/>
<polygon fill="midnightblue" stroke="midnightblue" points="310.49,-10.01 320.7,-7.18 310.96,-3.02 310.49,-10.01"/>
</g>
<!-- Node7&#45;&gt;Node2 -->
<g id="edge11" class="edge">
<title>Node7&#45;&gt;Node2</title>
<path fill="none" stroke="midnightblue" d="M333.2,-103.29C321.38,-116.05 303.74,-132.88 285,-143 277.86,-146.86 269.89,-149.96 261.92,-152.45"/>
<polygon fill="midnightblue" stroke="midnightblue" points="336.02,-105.39 340.08,-95.61 330.8,-100.72 336.02,-105.39"/>
</g>
<!-- Node7&#45;&gt;Node3 -->
<g id="edge14" class="edge">
<title>Node7&#45;&gt;Node3</title>
<path fill="none" stroke="midnightblue" d="M313.35,-88.22C260.93,-91.58 161.2,-97.97 101.1,-101.82"/>
<polygon fill="midnightblue" stroke="midnightblue" points="313.73,-91.7 323.48,-87.57 313.28,-84.72 313.73,-91.7"/>
</g>
<!-- Node7&#45;&gt;Node4 -->
<g id="edge12" class="edge">
<title>Node7&#45;&gt;Node4</title>
<path fill="none" stroke="midnightblue" d="M313.72,-95.58C293.05,-101.35 266.81,-108.68 246.16,-114.45"/>
<polygon fill="midnightblue" stroke="midnightblue" points="314.68,-98.94 323.37,-92.88 312.8,-92.2 314.68,-98.94"/>
</g>
<!-- Node7&#45;&gt;Node5 -->
<g id="edge13" class="edge">
<title>Node7&#45;&gt;Node5</title>
<path fill="none" stroke="midnightblue" d="M313.72,-76.42C293.05,-70.65 266.81,-63.32 246.16,-57.55"/>
<polygon fill="midnightblue" stroke="midnightblue" points="312.8,-79.8 323.37,-79.12 314.68,-73.06 312.8,-79.8"/>
</g>
</g>
</svg>
