<?xml version="1.0" encoding="UTF-8" standalone="no"?>
<!DOCTYPE svg PUBLIC "-//W3C//DTD SVG 1.1//EN"
 "http://www.w3.org/Graphics/SVG/1.1/DTD/svg11.dtd">
<!-- Generated by graphviz version 2.40.1 (20161225.0304)
 -->
<!-- Title: Graphical Class Hierarchy Pages: 1 -->
<svg width="285pt" height="66pt"
 viewBox="0.00 0.00 285.00 66.00" xmlns="http://www.w3.org/2000/svg" xmlns:xlink="http://www.w3.org/1999/xlink">
<g id="graph0" class="graph" transform="scale(1 1) rotate(0) translate(4 62)">
<title>Graphical Class Hierarchy</title>
<!-- Node0 -->
<g id="node1" class="node">
<title>Node0</title>
<g id="a_node1"><a xlink:href="structpartclass__mod_1_1zoo.html" target="_top" xlink:title=" ">
<polygon fill="none" stroke="#000000" points="0,-19.5 0,-38.5 103,-38.5 103,-19.5 0,-19.5"/>
<text text-anchor="middle" x="51.5" y="-26.5" font-family="Helvetica,sans-Serif" font-size="10.00" fill="#000000">partclass_mod::zoo</text>
</a>
</g>
</g>
<!-- Node1 -->
<g id="node2" class="node">
<title>Node1</title>
<g id="a_node2"><a xlink:href="structpartsubclass__mod_1_1calanus.html" target="_top" xlink:title=" ">
<polygon fill="none" stroke="#000000" points="139,-38.5 139,-57.5 277,-57.5 277,-38.5 139,-38.5"/>
<text text-anchor="middle" x="208" y="-45.5" font-family="Helvetica,sans-Serif" font-size="10.00" fill="#000000">partsubclass_mod::calanus</text>
</a>
</g>
</g>
<!-- Node0&#45;&gt;Node1 -->
<g id="edge1" class="edge">
<title>Node0&#45;&gt;Node1</title>
<path fill="none" stroke="#191970" d="M113.2467,-36.4964C121.6318,-37.5144 130.2818,-38.5646 138.7873,-39.5972"/>
<polygon fill="#191970" stroke="#191970" points="113.5266,-33.0048 103.1777,-35.274 112.6829,-39.9538 113.5266,-33.0048"/>
</g>
<!-- Node2 -->
<g id="node3" class="node">
<title>Node2</title>
<g id="a_node3"><a xlink:href="structpartsubclass__mod_1_1krill.html" target="_top" xlink:title=" ">
<polygon fill="none" stroke="#000000" points="149,-.5 149,-19.5 267,-19.5 267,-.5 149,-.5"/>
<text text-anchor="middle" x="208" y="-7.5" font-family="Helvetica,sans-Serif" font-size="10.00" fill="#000000">partsubclass_mod::krill</text>
</a>
</g>
</g>
<!-- Node0&#45;&gt;Node2 -->
<g id="edge2" class="edge">
<title>Node0&#45;&gt;Node2</title>
<path fill="none" stroke="#191970" d="M113.2899,-21.4983C124.979,-20.0792 137.1814,-18.5978 148.7887,-17.1886"/>
<polygon fill="#191970" stroke="#191970" points="112.6829,-18.0462 103.1777,-22.726 113.5266,-24.9952 112.6829,-18.0462"/>
</g>
</g>
</svg>
