<?xml version="1.0" encoding="UTF-8" standalone="no"?>
<!DOCTYPE svg PUBLIC "-//W3C//DTD SVG 1.1//EN"
 "http://www.w3.org/Graphics/SVG/1.1/DTD/svg11.dtd">
<!-- Generated by graphviz version 2.42.3 (20191010.1750)
 -->
<!-- Title: Graphical Class Hierarchy Pages: 1 -->
<svg width="212pt" height="66pt"
 viewBox="0.00 0.00 212.00 66.00" xmlns="http://www.w3.org/2000/svg" xmlns:xlink="http://www.w3.org/1999/xlink">
<g id="graph0" class="graph" transform="scale(1 1) rotate(0) translate(4 62)">
<title>Graphical Class Hierarchy</title>
<!-- Node0 -->
<g id="node1" class="node">
<title>Node0</title>
<g id="a_node1"><a xlink:href="classzoo.html" target="_top" xlink:title=" ">
<polygon fill="none" stroke="black" points="0,-19.5 0,-38.5 32,-38.5 32,-19.5 0,-19.5"/>
<text text-anchor="middle" x="16" y="-26.5" font-family="Helvetica,sans-Serif" font-size="10.00">zoo</text>
</a>
</g>
</g>
<!-- Node1 -->
<g id="node2" class="node">
<title>Node1</title>
<g id="a_node2"><a xlink:href="structpartsubclass__mod_1_1calanus.html" target="_top" xlink:title=" ">
<polygon fill="none" stroke="black" points="68,-38.5 68,-57.5 204,-57.5 204,-38.5 68,-38.5"/>
<text text-anchor="middle" x="136" y="-45.5" font-family="Helvetica,sans-Serif" font-size="10.00">partsubclass_mod::calanus</text>
</a>
</g>
</g>
<!-- Node0&#45;&gt;Node1 -->
<g id="edge1" class="edge">
<title>Node0&#45;&gt;Node1</title>
<path fill="none" stroke="midnightblue" d="M42.37,-33.08C52.3,-34.68 64.15,-36.59 76,-38.5"/>
<polygon fill="midnightblue" stroke="midnightblue" points="42.86,-29.62 32.43,-31.48 41.74,-36.53 42.86,-29.62"/>
</g>
<!-- Node2 -->
<g id="node3" class="node">
<title>Node2</title>
<g id="a_node3"><a xlink:href="structpartsubclass__mod_1_1krill.html" target="_top" xlink:title=" ">
<polygon fill="none" stroke="black" points="77.5,-0.5 77.5,-19.5 194.5,-19.5 194.5,-0.5 77.5,-0.5"/>
<text text-anchor="middle" x="136" y="-7.5" font-family="Helvetica,sans-Serif" font-size="10.00">partsubclass_mod::krill</text>
</a>
</g>
</g>
<!-- Node0&#45;&gt;Node2 -->
<g id="edge2" class="edge">
<title>Node0&#45;&gt;Node2</title>
<path fill="none" stroke="midnightblue" d="M42.34,-24.92C52.66,-23.26 65.03,-21.27 77.33,-19.29"/>
<polygon fill="midnightblue" stroke="midnightblue" points="41.74,-21.47 32.43,-26.52 42.86,-28.38 41.74,-21.47"/>
</g>
</g>
</svg>
