<?xml version="1.0" encoding="UTF-8" standalone="no"?>
<!DOCTYPE svg PUBLIC "-//W3C//DTD SVG 1.1//EN"
 "http://www.w3.org/Graphics/SVG/1.1/DTD/svg11.dtd">
<!-- Generated by graphviz version 2.40.1 (20161225.0304)
 -->
<!-- Title: rng_par_zig::rng_xoroshiro128plus::rng_xoroshiro128plus Pages: 1 -->
<svg width="256pt" height="52pt"
 viewBox="0.00 0.00 255.60 51.50" xmlns="http://www.w3.org/2000/svg" xmlns:xlink="http://www.w3.org/1999/xlink">
<g id="graph0" class="graph" transform="scale(1 1) rotate(0) translate(4 47.5)">
<title>rng_par_zig::rng_xoroshiro128plus::rng_xoroshiro128plus</title>
<!-- Node1 -->
<g id="node1" class="node">
<title>Node1</title>
<g id="a_node1"><a xlink:title=" ">
<polygon fill="#bfbfbf" stroke="#000000" points="0,-.5 0,-30.5 171,-30.5 171,-.5 0,-.5"/>
<text text-anchor="start" x="8" y="-18.5" font-family="Helvetica,sans-Serif" font-size="10.00" fill="#000000">rng_par_zig::rng_xoroshiro128plus</text>
<text text-anchor="middle" x="85.5" y="-7.5" font-family="Helvetica,sans-Serif" font-size="10.00" fill="#000000">::rng_xoroshiro128plus</text>
</a>
</g>
</g>
<!-- Node2 -->
<g id="node2" class="node">
<title>Node2</title>
<g id="a_node2"><a xlink:href="rng__par__zig_8f90.html#ac56d7bbb9b1456e36abd0bd714573602" target="_top" xlink:title=" ">
<polygon fill="none" stroke="#000000" points="207,-6 207,-25 237,-25 237,-6 207,-6"/>
<text text-anchor="middle" x="222" y="-13" font-family="Helvetica,sans-Serif" font-size="10.00" fill="#000000">rotl</text>
</a>
</g>
</g>
<!-- Node1&#45;&gt;Node2 -->
<g id="edge1" class="edge">
<title>Node1&#45;&gt;Node2</title>
<path fill="none" stroke="#191970" d="M171.1724,-15.5C180.3855,-15.5 189.1446,-15.5 196.7151,-15.5"/>
<polygon fill="#191970" stroke="#191970" points="196.8706,-19.0001 206.8706,-15.5 196.8705,-12.0001 196.8706,-19.0001"/>
</g>
<!-- Node2&#45;&gt;Node2 -->
<g id="edge2" class="edge">
<title>Node2&#45;&gt;Node2</title>
<path fill="none" stroke="#191970" d="M206.9652,-21.2729C189.0978,-30.939 194.1094,-43.5 222,-43.5 244.2253,-43.5 251.9223,-35.5236 245.0908,-27.3919"/>
<polygon fill="#191970" stroke="#191970" points="247.1151,-24.5344 237.0348,-21.2729 242.8811,-30.1087 247.1151,-24.5344"/>
</g>
</g>
</svg>
