<?xml version="1.0" encoding="UTF-8" standalone="no"?>
<!DOCTYPE svg PUBLIC "-//W3C//DTD SVG 1.1//EN"
 "http://www.w3.org/Graphics/SVG/1.1/DTD/svg11.dtd">
<!-- Generated by graphviz version 2.40.1 (20161225.0304)
 -->
<!-- Title: xy_to_ll_nemo Pages: 1 -->
<svg width="361pt" height="39pt"
 viewBox="0.00 0.00 361.00 39.00" xmlns="http://www.w3.org/2000/svg" xmlns:xlink="http://www.w3.org/1999/xlink">
<g id="graph0" class="graph" transform="scale(1 1) rotate(0) translate(4 35)">
<title>xy_to_ll_nemo</title>
<!-- Node1 -->
<g id="node1" class="node">
<title>Node1</title>
<g id="a_node1"><a xlink:title=" ">
<polygon fill="#bfbfbf" stroke="#000000" points="0,-6 0,-25 81,-25 81,-6 0,-6"/>
<text text-anchor="middle" x="40.5" y="-13" font-family="Helvetica,sans-Serif" font-size="10.00" fill="#000000">xy_to_ll_nemo</text>
</a>
</g>
</g>
<!-- Node2 -->
<g id="node2" class="node">
<title>Node2</title>
<g id="a_node2"><a xlink:href="namespaceopa__get__xy__ll.html#a0f65a5855703adce1d005a8b3d35c6b9" target="_top" xlink:title=" ">
<polygon fill="none" stroke="#000000" points="117,-.5 117,-30.5 217,-30.5 217,-.5 117,-.5"/>
<text text-anchor="start" x="125" y="-18.5" font-family="Helvetica,sans-Serif" font-size="10.00" fill="#000000">opa_get_xy_ll::opa</text>
<text text-anchor="middle" x="167" y="-7.5" font-family="Helvetica,sans-Serif" font-size="10.00" fill="#000000">_proj_inv</text>
</a>
</g>
</g>
<!-- Node1&#45;&gt;Node2 -->
<g id="edge1" class="edge">
<title>Node1&#45;&gt;Node2</title>
<path fill="none" stroke="#191970" d="M81.2217,-15.5C89.3201,-15.5 97.9853,-15.5 106.5806,-15.5"/>
<polygon fill="#191970" stroke="#191970" points="106.6006,-19.0001 116.6006,-15.5 106.6006,-12.0001 106.6006,-19.0001"/>
</g>
<!-- Node3 -->
<g id="node3" class="node">
<title>Node3</title>
<g id="a_node3"><a xlink:href="namespaceopa__get__xy__ll.html#a724d1c8c7282144a1367ee24d183b3d9" target="_top" xlink:title=" ">
<polygon fill="none" stroke="#000000" points="253,-.5 253,-30.5 353,-30.5 353,-.5 253,-.5"/>
<text text-anchor="start" x="261" y="-18.5" font-family="Helvetica,sans-Serif" font-size="10.00" fill="#000000">opa_get_xy_ll::opa</text>
<text text-anchor="middle" x="303" y="-7.5" font-family="Helvetica,sans-Serif" font-size="10.00" fill="#000000">_proj_init</text>
</a>
</g>
</g>
<!-- Node2&#45;&gt;Node3 -->
<g id="edge2" class="edge">
<title>Node2&#45;&gt;Node3</title>
<path fill="none" stroke="#191970" d="M217.255,-15.5C225.5393,-15.5 234.2014,-15.5 242.701,-15.5"/>
<polygon fill="#191970" stroke="#191970" points="242.9516,-19.0001 252.9516,-15.5 242.9515,-12.0001 242.9516,-19.0001"/>
</g>
</g>
</svg>
