<?xml version="1.0" encoding="UTF-8" standalone="no"?>
<!DOCTYPE svg PUBLIC "-//W3C//DTD SVG 1.1//EN"
 "http://www.w3.org/Graphics/SVG/1.1/DTD/svg11.dtd">
<!-- Generated by graphviz version 2.40.1 (20161225.0304)
 -->
<!-- Title: ll_to_xy_nemo Pages: 1 -->
<svg width="417pt" height="96pt"
 viewBox="0.00 0.00 417.00 95.50" xmlns="http://www.w3.org/2000/svg" xmlns:xlink="http://www.w3.org/1999/xlink">
<g id="graph0" class="graph" transform="scale(1 1) rotate(0) translate(4 91.5)">
<title>ll_to_xy_nemo</title>
<!-- Node1 -->
<g id="node1" class="node">
<title>Node1</title>
<g id="a_node1"><a xlink:title=" ">
<polygon fill="#bfbfbf" stroke="#000000" points="0,-28 0,-47 81,-47 81,-28 0,-28"/>
<text text-anchor="middle" x="40.5" y="-35" font-family="Helvetica,sans-Serif" font-size="10.00" fill="#000000">ll_to_xy_nemo</text>
</a>
</g>
</g>
<!-- Node2 -->
<g id="node2" class="node">
<title>Node2</title>
<g id="a_node2"><a xlink:href="namespaceopa__get__xy__ll.html#a450d79f285a6110f35f4753e9014549d" target="_top" xlink:title=" ">
<polygon fill="none" stroke="#000000" points="117,-28 117,-47 240,-47 240,-28 117,-28"/>
<text text-anchor="middle" x="178.5" y="-35" font-family="Helvetica,sans-Serif" font-size="10.00" fill="#000000">opa_get_xy_ll::opa_proj</text>
</a>
</g>
</g>
<!-- Node1&#45;&gt;Node2 -->
<g id="edge1" class="edge">
<title>Node1&#45;&gt;Node2</title>
<path fill="none" stroke="#191970" d="M81.1582,-37.5C89.2155,-37.5 97.8969,-37.5 106.6397,-37.5"/>
<polygon fill="#191970" stroke="#191970" points="106.8974,-41.0001 116.8973,-37.5 106.8973,-34.0001 106.8974,-41.0001"/>
</g>
<!-- Node3 -->
<g id="node3" class="node">
<title>Node3</title>
<g id="a_node3"><a xlink:href="namespaceopa__get__xy__ll.html#aab28c31f3c08390c180311d6d70a85b8" target="_top" xlink:title=" ">
<polygon fill="none" stroke="#000000" points="276,-50 276,-69 409,-69 409,-50 276,-50"/>
<text text-anchor="middle" x="342.5" y="-57" font-family="Helvetica,sans-Serif" font-size="10.00" fill="#000000">opa_get_xy_ll::geproj_dist</text>
</a>
</g>
</g>
<!-- Node2&#45;&gt;Node3 -->
<g id="edge2" class="edge">
<title>Node2&#45;&gt;Node3</title>
<path fill="none" stroke="#191970" d="M240.0341,-45.7546C248.4613,-46.8851 257.1966,-48.0569 265.8521,-49.218"/>
<polygon fill="#191970" stroke="#191970" points="265.5763,-52.7122 275.9529,-50.5729 266.507,-45.7744 265.5763,-52.7122"/>
</g>
<!-- Node4 -->
<g id="node4" class="node">
<title>Node4</title>
<g id="a_node4"><a xlink:href="namespaceopa__get__xy__ll.html#a724d1c8c7282144a1367ee24d183b3d9" target="_top" xlink:title=" ">
<polygon fill="none" stroke="#000000" points="292.5,-.5 292.5,-30.5 392.5,-30.5 392.5,-.5 292.5,-.5"/>
<text text-anchor="start" x="300.5" y="-18.5" font-family="Helvetica,sans-Serif" font-size="10.00" fill="#000000">opa_get_xy_ll::opa</text>
<text text-anchor="middle" x="342.5" y="-7.5" font-family="Helvetica,sans-Serif" font-size="10.00" fill="#000000">_proj_init</text>
</a>
</g>
</g>
<!-- Node2&#45;&gt;Node4 -->
<g id="edge4" class="edge">
<title>Node2&#45;&gt;Node4</title>
<path fill="none" stroke="#191970" d="M240.0341,-29.2454C253.7955,-27.3994 268.3783,-25.4432 282.0934,-23.6033"/>
<polygon fill="#191970" stroke="#191970" points="282.9384,-27.0214 292.3843,-22.2228 282.0077,-20.0836 282.9384,-27.0214"/>
</g>
<!-- Node3&#45;&gt;Node3 -->
<g id="edge3" class="edge">
<title>Node3&#45;&gt;Node3</title>
<path fill="none" stroke="#191970" d="M317.2228,-69.2571C304.9258,-78.0653 313.3516,-87.5 342.5,-87.5 362.0841,-87.5 372.3136,-83.241 373.1886,-77.7746"/>
<polygon fill="#191970" stroke="#191970" points="376.094,-75.8207 367.7772,-69.2571 370.1856,-79.5745 376.094,-75.8207"/>
</g>
</g>
</svg>
