<?xml version="1.0" encoding="UTF-8" standalone="no"?>
<!DOCTYPE svg PUBLIC "-//W3C//DTD SVG 1.1//EN"
 "http://www.w3.org/Graphics/SVG/1.1/DTD/svg11.dtd">
<!-- Generated by graphviz version 2.40.1 (20161225.0304)
 -->
<!-- Title: lagrangian_motion_mod::ou Pages: 1 -->
<svg width="477pt" height="78pt"
 viewBox="0.00 0.00 477.00 77.50" xmlns="http://www.w3.org/2000/svg" xmlns:xlink="http://www.w3.org/1999/xlink">
<g id="graph0" class="graph" transform="scale(1 1) rotate(0) translate(4 73.5)">
<title>lagrangian_motion_mod::ou</title>
<!-- Node1 -->
<g id="node1" class="node">
<title>Node1</title>
<g id="a_node1"><a xlink:title=" ">
<polygon fill="#bfbfbf" stroke="#000000" points="329,-28 329,-47 469,-47 469,-28 329,-28"/>
<text text-anchor="middle" x="399" y="-35" font-family="Helvetica,sans-Serif" font-size="10.00" fill="#000000">lagrangian_motion_mod::ou</text>
</a>
</g>
</g>
<!-- Node2 -->
<g id="node2" class="node">
<title>Node2</title>
<g id="a_node2"><a xlink:href="namespacelagrangian__motion__mod.html#a8a8150c98e03ec8494685a9de6843dc4" target="_top" xlink:title=" ">
<polygon fill="none" stroke="#000000" points="169,-22.5 169,-52.5 293,-52.5 293,-22.5 169,-22.5"/>
<text text-anchor="start" x="177" y="-40.5" font-family="Helvetica,sans-Serif" font-size="10.00" fill="#000000">lagrangian_motion_mod</text>
<text text-anchor="middle" x="231" y="-29.5" font-family="Helvetica,sans-Serif" font-size="10.00" fill="#000000">::vert_mig</text>
</a>
</g>
</g>
<!-- Node1&#45;&gt;Node2 -->
<g id="edge1" class="edge">
<title>Node1&#45;&gt;Node2</title>
<path fill="none" stroke="#191970" d="M318.7214,-37.5C310.1604,-37.5 301.5477,-37.5 293.24,-37.5"/>
<polygon fill="#191970" stroke="#191970" points="318.7263,-41.0001 328.7263,-37.5 318.7263,-34.0001 318.7263,-41.0001"/>
</g>
<!-- Node3 -->
<g id="node3" class="node">
<title>Node3</title>
<g id="a_node3"><a xlink:href="namespacepartfun__mod.html#ad10a70f03faaef4dabe288c208c84d13" target="_top" xlink:title=" ">
<polygon fill="none" stroke="#000000" points="0,-50 0,-69 133,-69 133,-50 0,-50"/>
<text text-anchor="middle" x="66.5" y="-57" font-family="Helvetica,sans-Serif" font-size="10.00" fill="#000000">partfun_mod::generatekrill</text>
</a>
</g>
</g>
<!-- Node2&#45;&gt;Node3 -->
<g id="edge2" class="edge">
<title>Node2&#45;&gt;Node3</title>
<path fill="none" stroke="#191970" d="M158.8703,-47.1465C150.3265,-48.2892 141.6347,-49.4516 133.1713,-50.5835"/>
<polygon fill="#191970" stroke="#191970" points="159.3618,-50.612 168.8096,-45.8173 158.4339,-43.6738 159.3618,-50.612"/>
</g>
<!-- Node4 -->
<g id="node4" class="node">
<title>Node4</title>
<g id="a_node4"><a xlink:href="namespacelagrangian__motion__mod.html#ad41aca95e71989a53863361e169a0591" target="_top" xlink:title=" ">
<polygon fill="none" stroke="#000000" points="4.5,-.5 4.5,-30.5 128.5,-30.5 128.5,-.5 4.5,-.5"/>
<text text-anchor="start" x="12.5" y="-18.5" font-family="Helvetica,sans-Serif" font-size="10.00" fill="#000000">lagrangian_motion_mod</text>
<text text-anchor="middle" x="66.5" y="-7.5" font-family="Helvetica,sans-Serif" font-size="10.00" fill="#000000">::trajectory</text>
</a>
</g>
</g>
<!-- Node2&#45;&gt;Node4 -->
<g id="edge3" class="edge">
<title>Node2&#45;&gt;Node4</title>
<path fill="none" stroke="#191970" d="M158.8007,-27.8442C148.7003,-26.4934 138.3947,-25.1151 128.5054,-23.7925"/>
<polygon fill="#191970" stroke="#191970" points="158.4339,-31.3262 168.8096,-29.1827 159.3618,-24.388 158.4339,-31.3262"/>
</g>
</g>
</svg>
