<?xml version="1.0" encoding="UTF-8" standalone="no"?>
<!DOCTYPE svg PUBLIC "-//W3C//DTD SVG 1.1//EN"
 "http://www.w3.org/Graphics/SVG/1.1/DTD/svg11.dtd">
<!-- Generated by graphviz version 2.42.3 (20191010.1750)
 -->
<!-- Title: partclass_mod::adj_arr Pages: 1 -->
<svg width="265pt" height="46pt"
 viewBox="0.00 0.00 265.00 46.00" xmlns="http://www.w3.org/2000/svg" xmlns:xlink="http://www.w3.org/1999/xlink">
<g id="graph0" class="graph" transform="scale(1 1) rotate(0) translate(4 42)">
<title>partclass_mod::adj_arr</title>
<!-- Node1 -->
<g id="node1" class="node">
<title>Node1</title>
<g id="a_node1"><a xlink:title=" ">
<polygon fill="#bfbfbf" stroke="black" points="0,-0.5 0,-19.5 116,-19.5 116,-0.5 0,-0.5"/>
<text text-anchor="middle" x="58" y="-7.5" font-family="Helvetica,sans-Serif" font-size="10.00">partclass_mod::adj_arr</text>
</a>
</g>
</g>
<!-- Node1&#45;&gt;Node1 -->
<g id="edge1" class="edge">
<title>Node1&#45;&gt;Node1</title>
<path fill="none" stroke="midnightblue" d="M35.5,-19.76C24.55,-28.57 32.05,-38 58,-38 75.03,-38 84.11,-33.94 85.25,-28.65"/>
<polygon fill="midnightblue" stroke="midnightblue" points="88.3,-26.93 80.5,-19.76 82.12,-30.23 88.3,-26.93"/>
</g>
<!-- Node2 -->
<g id="node2" class="node">
<title>Node2</title>
<g id="a_node2"><a xlink:href="namespacepartclass__mod.html#aca094220d74103bdb62e48af923034b4" target="_top" xlink:title=" ">
<polygon fill="none" stroke="black" points="152,-0.5 152,-19.5 257,-19.5 257,-0.5 152,-0.5"/>
<text text-anchor="middle" x="204.5" y="-7.5" font-family="Helvetica,sans-Serif" font-size="10.00">partclass_mod::resp</text>
</a>
</g>
</g>
<!-- Node1&#45;&gt;Node2 -->
<g id="edge2" class="edge">
<title>Node1&#45;&gt;Node2</title>
<path fill="none" stroke="midnightblue" d="M116.11,-10C124.52,-10 133.22,-10 141.72,-10"/>
<polygon fill="midnightblue" stroke="midnightblue" points="141.96,-13.5 151.96,-10 141.96,-6.5 141.96,-13.5"/>
</g>
</g>
</svg>
