<?xml version="1.0" encoding="UTF-8" standalone="no"?>
<!DOCTYPE svg PUBLIC "-//W3C//DTD SVG 1.1//EN"
 "http://www.w3.org/Graphics/SVG/1.1/DTD/svg11.dtd">
<!-- Generated by graphviz version 2.42.3 (20191010.1750)
 -->
<!-- Title: partfun_mod::generatezoo Pages: 1 -->
<svg width="465pt" height="141pt"
 viewBox="0.00 0.00 465.00 140.50" xmlns="http://www.w3.org/2000/svg" xmlns:xlink="http://www.w3.org/1999/xlink">
<g id="graph0" class="graph" transform="scale(1 1) rotate(0) translate(4 136.5)">
<title>partfun_mod::generatezoo</title>
<!-- Node1 -->
<g id="node1" class="node">
<title>Node1</title>
<g id="a_node1"><a xlink:title=" ">
<polygon fill="#bfbfbf" stroke="black" points="0,-72 0,-91 130,-91 130,-72 0,-72"/>
<text text-anchor="middle" x="65" y="-79" font-family="Helvetica,sans-Serif" font-size="10.00">partfun_mod::generatezoo</text>
</a>
</g>
</g>
<!-- Node2 -->
<g id="node2" class="node">
<title>Node2</title>
<g id="a_node2"><a xlink:href="def__domain_8f90.html#ab057fe3bd904effd74da6533cb12b017" target="_top" xlink:title=" ">
<polygon fill="none" stroke="black" points="367.5,-113 367.5,-132 410.5,-132 410.5,-113 367.5,-113"/>
<text text-anchor="middle" x="389" y="-120" font-family="Helvetica,sans-Serif" font-size="10.00">cday2</text>
</a>
</g>
</g>
<!-- Node1&#45;&gt;Node2 -->
<g id="edge1" class="edge">
<title>Node1&#45;&gt;Node2</title>
<path fill="none" stroke="midnightblue" d="M83.41,-91.09C102.86,-101.21 135.62,-116.51 166,-122.5 233.11,-135.72 313.85,-130.61 357.08,-126.23"/>
<polygon fill="midnightblue" stroke="midnightblue" points="357.66,-129.69 367.24,-125.15 356.92,-122.73 357.66,-129.69"/>
</g>
<!-- Node3 -->
<g id="node3" class="node">
<title>Node3</title>
<g id="a_node3"><a xlink:href="def__domain_8f90.html#aae31ca494afac027b938401c0d53290d" target="_top" xlink:title=" ">
<polygon fill="none" stroke="black" points="200,-94 200,-113 251,-113 251,-94 200,-94"/>
<text text-anchor="middle" x="225.5" y="-101" font-family="Helvetica,sans-Serif" font-size="10.00">update2</text>
</a>
</g>
</g>
<!-- Node1&#45;&gt;Node3 -->
<g id="edge2" class="edge">
<title>Node1&#45;&gt;Node3</title>
<path fill="none" stroke="midnightblue" d="M130.01,-90.38C150.36,-93.21 172.1,-96.23 189.59,-98.65"/>
<polygon fill="midnightblue" stroke="midnightblue" points="189.5,-102.18 199.89,-100.08 190.46,-95.24 189.5,-102.18"/>
</g>
<!-- Node4 -->
<g id="node4" class="node">
<title>Node4</title>
<g id="a_node4"><a xlink:href="namespacelagrangian__motion__mod.html#ab080e0246757af1269e28d8945c31343" target="_top" xlink:title=" ">
<polygon fill="none" stroke="black" points="166,-44.5 166,-74.5 285,-74.5 285,-44.5 166,-44.5"/>
<text text-anchor="start" x="174" y="-62.5" font-family="Helvetica,sans-Serif" font-size="10.00">lagrangian_motion_mod</text>
<text text-anchor="middle" x="225.5" y="-51.5" font-family="Helvetica,sans-Serif" font-size="10.00">::vert_mig</text>
</a>
</g>
</g>
<!-- Node1&#45;&gt;Node4 -->
<g id="edge4" class="edge">
<title>Node1&#45;&gt;Node4</title>
<path fill="none" stroke="midnightblue" d="M130.01,-72.62C138.53,-71.43 147.3,-70.22 155.9,-69.02"/>
<polygon fill="midnightblue" stroke="midnightblue" points="156.46,-72.48 165.88,-67.64 155.5,-65.54 156.46,-72.48"/>
</g>
<!-- Node6 -->
<g id="node6" class="node">
<title>Node6</title>
<g id="a_node6"><a xlink:href="namespacelagrangian__motion__mod.html#a7bc30abbe4c0ecdf05fc0e869fa8d2e3" target="_top" xlink:title=" ">
<polygon fill="none" stroke="black" points="329.5,-0.5 329.5,-30.5 448.5,-30.5 448.5,-0.5 329.5,-0.5"/>
<text text-anchor="start" x="337.5" y="-18.5" font-family="Helvetica,sans-Serif" font-size="10.00">lagrangian_motion_mod</text>
<text text-anchor="middle" x="389" y="-7.5" font-family="Helvetica,sans-Serif" font-size="10.00">::zday</text>
</a>
</g>
</g>
<!-- Node1&#45;&gt;Node6 -->
<g id="edge7" class="edge">
<title>Node1&#45;&gt;Node6</title>
<path fill="none" stroke="midnightblue" d="M81.95,-71.82C101.14,-60.7 134.69,-42.91 166,-34.5 216.08,-21.05 274.59,-16.48 318.96,-15.17"/>
<polygon fill="midnightblue" stroke="midnightblue" points="319.16,-18.67 329.07,-14.92 318.98,-11.67 319.16,-18.67"/>
</g>
<!-- Node3&#45;&gt;Node2 -->
<g id="edge3" class="edge">
<title>Node3&#45;&gt;Node2</title>
<path fill="none" stroke="midnightblue" d="M251.03,-106.39C279.44,-109.73 326.3,-115.24 357.16,-118.87"/>
<polygon fill="midnightblue" stroke="midnightblue" points="357.01,-122.38 367.35,-120.07 357.83,-115.43 357.01,-122.38"/>
</g>
<!-- Node5 -->
<g id="node5" class="node">
<title>Node5</title>
<g id="a_node5"><a xlink:href="namespacelagrangian__motion__mod.html#a05a378805d8ab77b9d2400c9d83c8e86" target="_top" xlink:title=" ">
<polygon fill="none" stroke="black" points="321,-50 321,-69 457,-69 457,-50 321,-50"/>
<text text-anchor="middle" x="389" y="-57" font-family="Helvetica,sans-Serif" font-size="10.00">lagrangian_motion_mod::ou</text>
</a>
</g>
</g>
<!-- Node4&#45;&gt;Node5 -->
<g id="edge5" class="edge">
<title>Node4&#45;&gt;Node5</title>
<path fill="none" stroke="midnightblue" d="M285.26,-59.5C293.56,-59.5 302.19,-59.5 310.77,-59.5"/>
<polygon fill="midnightblue" stroke="midnightblue" points="310.8,-63 320.8,-59.5 310.8,-56 310.8,-63"/>
</g>
<!-- Node4&#45;&gt;Node6 -->
<g id="edge6" class="edge">
<title>Node4&#45;&gt;Node6</title>
<path fill="none" stroke="midnightblue" d="M281.63,-44.48C294.94,-40.85 309.28,-36.95 323,-33.21"/>
<polygon fill="midnightblue" stroke="midnightblue" points="324.12,-36.53 332.85,-30.53 322.28,-29.78 324.12,-36.53"/>
</g>
</g>
</svg>
