<?xml version="1.0" encoding="UTF-8" standalone="no"?>
<!DOCTYPE svg PUBLIC "-//W3C//DTD SVG 1.1//EN"
 "http://www.w3.org/Graphics/SVG/1.1/DTD/svg11.dtd">
<!-- Generated by graphviz version 2.42.3 (20191010.1750)
 -->
<!-- Title: partfun_mod::netcdfpart Pages: 1 -->
<svg width="512pt" height="39pt"
 viewBox="0.00 0.00 512.00 39.00" xmlns="http://www.w3.org/2000/svg" xmlns:xlink="http://www.w3.org/1999/xlink">
<g id="graph0" class="graph" transform="scale(1 1) rotate(0) translate(4 35)">
<title>partfun_mod::netcdfpart</title>
<!-- Node1 -->
<g id="node1" class="node">
<title>Node1</title>
<g id="a_node1"><a xlink:title=" ">
<polygon fill="#bfbfbf" stroke="black" points="0,-6 0,-25 120,-25 120,-6 0,-6"/>
<text text-anchor="middle" x="60" y="-13" font-family="Helvetica,sans-Serif" font-size="10.00">partfun_mod::netcdfpart</text>
</a>
</g>
</g>
<!-- Node2 -->
<g id="node2" class="node">
<title>Node2</title>
<g id="a_node2"><a xlink:href="ll__to__xy___n_e_m_o_8f90.html#a361aea69ed30ab8f58c8e83a20fb7fca" target="_top" xlink:title=" ">
<polygon fill="none" stroke="black" points="156,-6 156,-25 236,-25 236,-6 156,-6"/>
<text text-anchor="middle" x="196" y="-13" font-family="Helvetica,sans-Serif" font-size="10.00">xy_to_ll_nemo</text>
</a>
</g>
</g>
<!-- Node1&#45;&gt;Node2 -->
<g id="edge1" class="edge">
<title>Node1&#45;&gt;Node2</title>
<path fill="none" stroke="midnightblue" d="M120.16,-15.5C128.64,-15.5 137.29,-15.5 145.56,-15.5"/>
<polygon fill="midnightblue" stroke="midnightblue" points="145.78,-19 155.78,-15.5 145.78,-12 145.78,-19"/>
</g>
<!-- Node3 -->
<g id="node3" class="node">
<title>Node3</title>
<g id="a_node3"><a xlink:href="namespaceopa__get__xy__ll.html#a0f65a5855703adce1d005a8b3d35c6b9" target="_top" xlink:title=" ">
<polygon fill="none" stroke="black" points="272,-0.5 272,-30.5 370,-30.5 370,-0.5 272,-0.5"/>
<text text-anchor="start" x="280" y="-18.5" font-family="Helvetica,sans-Serif" font-size="10.00">opa_get_xy_ll::opa</text>
<text text-anchor="middle" x="321" y="-7.5" font-family="Helvetica,sans-Serif" font-size="10.00">_proj_inv</text>
</a>
</g>
</g>
<!-- Node2&#45;&gt;Node3 -->
<g id="edge2" class="edge">
<title>Node2&#45;&gt;Node3</title>
<path fill="none" stroke="midnightblue" d="M236.26,-15.5C244.34,-15.5 253.02,-15.5 261.62,-15.5"/>
<polygon fill="midnightblue" stroke="midnightblue" points="261.63,-19 271.63,-15.5 261.63,-12 261.63,-19"/>
</g>
<!-- Node4 -->
<g id="node4" class="node">
<title>Node4</title>
<g id="a_node4"><a xlink:href="namespaceopa__get__xy__ll.html#a724d1c8c7282144a1367ee24d183b3d9" target="_top" xlink:title=" ">
<polygon fill="none" stroke="black" points="406,-0.5 406,-30.5 504,-30.5 504,-0.5 406,-0.5"/>
<text text-anchor="start" x="414" y="-18.5" font-family="Helvetica,sans-Serif" font-size="10.00">opa_get_xy_ll::opa</text>
<text text-anchor="middle" x="455" y="-7.5" font-family="Helvetica,sans-Serif" font-size="10.00">_proj_init</text>
</a>
</g>
</g>
<!-- Node3&#45;&gt;Node4 -->
<g id="edge3" class="edge">
<title>Node3&#45;&gt;Node4</title>
<path fill="none" stroke="midnightblue" d="M370.03,-15.5C378.31,-15.5 387,-15.5 395.52,-15.5"/>
<polygon fill="midnightblue" stroke="midnightblue" points="395.79,-19 405.79,-15.5 395.79,-12 395.79,-19"/>
</g>
</g>
</svg>
