<?xml version="1.0" encoding="UTF-8" standalone="no"?>
<!DOCTYPE svg PUBLIC "-//W3C//DTD SVG 1.1//EN"
 "http://www.w3.org/Graphics/SVG/1.1/DTD/svg11.dtd">
<!-- Generated by graphviz version 2.40.1 (20161225.0304)
 -->
<!-- Title: lagrangian_motion_mod::vert_mig Pages: 1 -->
<svg width="308pt" height="78pt"
 viewBox="0.00 0.00 308.00 77.50" xmlns="http://www.w3.org/2000/svg" xmlns:xlink="http://www.w3.org/1999/xlink">
<g id="graph0" class="graph" transform="scale(1 1) rotate(0) translate(4 73.5)">
<title>lagrangian_motion_mod::vert_mig</title>
<!-- Node1 -->
<g id="node1" class="node">
<title>Node1</title>
<g id="a_node1"><a xlink:title=" ">
<polygon fill="#bfbfbf" stroke="#000000" points="0,-22.5 0,-52.5 124,-52.5 124,-22.5 0,-22.5"/>
<text text-anchor="start" x="8" y="-40.5" font-family="Helvetica,sans-Serif" font-size="10.00" fill="#000000">lagrangian_motion_mod</text>
<text text-anchor="middle" x="62" y="-29.5" font-family="Helvetica,sans-Serif" font-size="10.00" fill="#000000">::vert_mig</text>
</a>
</g>
</g>
<!-- Node2 -->
<g id="node2" class="node">
<title>Node2</title>
<g id="a_node2"><a xlink:href="namespacelagrangian__motion__mod.html#a89fd5d0d05ebdde305483110b560aa31" target="_top" xlink:title=" ">
<polygon fill="none" stroke="#000000" points="160,-50 160,-69 300,-69 300,-50 160,-50"/>
<text text-anchor="middle" x="230" y="-57" font-family="Helvetica,sans-Serif" font-size="10.00" fill="#000000">lagrangian_motion_mod::ou</text>
</a>
</g>
</g>
<!-- Node1&#45;&gt;Node2 -->
<g id="edge1" class="edge">
<title>Node1&#45;&gt;Node2</title>
<path fill="none" stroke="#191970" d="M124.0797,-45.6295C132.4774,-46.7292 141.1895,-47.87 149.8469,-49.0038"/>
<polygon fill="#191970" stroke="#191970" points="149.5929,-52.5003 159.9627,-50.3285 150.5019,-45.5596 149.5929,-52.5003"/>
</g>
<!-- Node3 -->
<g id="node3" class="node">
<title>Node3</title>
<g id="a_node3"><a xlink:href="namespacelagrangian__motion__mod.html#ad8db410973dc8c80bceed8b3770dd00c" target="_top" xlink:title=" ">
<polygon fill="none" stroke="#000000" points="168,-.5 168,-30.5 292,-30.5 292,-.5 168,-.5"/>
<text text-anchor="start" x="176" y="-18.5" font-family="Helvetica,sans-Serif" font-size="10.00" fill="#000000">lagrangian_motion_mod</text>
<text text-anchor="middle" x="230" y="-7.5" font-family="Helvetica,sans-Serif" font-size="10.00" fill="#000000">::zmig</text>
</a>
</g>
</g>
<!-- Node1&#45;&gt;Node3 -->
<g id="edge2" class="edge">
<title>Node1&#45;&gt;Node3</title>
<path fill="none" stroke="#191970" d="M124.0797,-29.3705C135.0289,-27.9367 146.5123,-26.4329 157.7125,-24.9662"/>
<polygon fill="#191970" stroke="#191970" points="158.4343,-28.4017 167.8952,-23.6328 157.5253,-21.4609 158.4343,-28.4017"/>
</g>
</g>
</svg>
