<?xml version="1.0" encoding="UTF-8" standalone="no"?>
<!DOCTYPE svg PUBLIC "-//W3C//DTD SVG 1.1//EN"
 "http://www.w3.org/Graphics/SVG/1.1/DTD/svg11.dtd">
<!-- Generated by graphviz version 2.42.3 (20191010.1750)
 -->
<!-- Title: opa_get_xy_ll::opa_proj_inv Pages: 1 -->
<svg width="515pt" height="39pt"
 viewBox="0.00 0.00 515.00 39.00" xmlns="http://www.w3.org/2000/svg" xmlns:xlink="http://www.w3.org/1999/xlink">
<g id="graph0" class="graph" transform="scale(1 1) rotate(0) translate(4 35)">
<title>opa_get_xy_ll::opa_proj_inv</title>
<!-- Node1 -->
<g id="node1" class="node">
<title>Node1</title>
<g id="a_node1"><a xlink:title=" ">
<polygon fill="#bfbfbf" stroke="black" points="409,-0.5 409,-30.5 507,-30.5 507,-0.5 409,-0.5"/>
<text text-anchor="start" x="417" y="-18.5" font-family="Helvetica,sans-Serif" font-size="10.00">opa_get_xy_ll::opa</text>
<text text-anchor="middle" x="458" y="-7.5" font-family="Helvetica,sans-Serif" font-size="10.00">_proj_inv</text>
</a>
</g>
</g>
<!-- Node2 -->
<g id="node2" class="node">
<title>Node2</title>
<g id="a_node2"><a xlink:href="ll__to__xy___n_e_m_o_8f90.html#a361aea69ed30ab8f58c8e83a20fb7fca" target="_top" xlink:title=" ">
<polygon fill="none" stroke="black" points="293,-6 293,-25 373,-25 373,-6 293,-6"/>
<text text-anchor="middle" x="333" y="-13" font-family="Helvetica,sans-Serif" font-size="10.00">xy_to_ll_nemo</text>
</a>
</g>
</g>
<!-- Node1&#45;&gt;Node2 -->
<g id="edge1" class="edge">
<title>Node1&#45;&gt;Node2</title>
<path fill="none" stroke="midnightblue" d="M398.62,-15.5C389.94,-15.5 381.17,-15.5 373.01,-15.5"/>
<polygon fill="midnightblue" stroke="midnightblue" points="398.74,-19 408.74,-15.5 398.74,-12 398.74,-19"/>
</g>
<!-- Node3 -->
<g id="node3" class="node">
<title>Node3</title>
<g id="a_node3"><a xlink:href="namespacepartfun__mod.html#ae1b5e5475ed701229124bd9544c4587b" target="_top" xlink:title=" ">
<polygon fill="none" stroke="black" points="137,-6 137,-25 257,-25 257,-6 137,-6"/>
<text text-anchor="middle" x="197" y="-13" font-family="Helvetica,sans-Serif" font-size="10.00">partfun_mod::netcdfpart</text>
</a>
</g>
</g>
<!-- Node2&#45;&gt;Node3 -->
<g id="edge2" class="edge">
<title>Node2&#45;&gt;Node3</title>
<path fill="none" stroke="midnightblue" d="M282.61,-15.5C274.31,-15.5 265.62,-15.5 257.1,-15.5"/>
<polygon fill="midnightblue" stroke="midnightblue" points="282.88,-19 292.88,-15.5 282.88,-12 282.88,-19"/>
</g>
<!-- Node4 -->
<g id="node4" class="node">
<title>Node4</title>
<g id="a_node4"><a xlink:href="test__model__parallel_8f90.html#ac46b7f7a127dc5439a50d66d9b101f55" target="_top" xlink:title=" ">
<polygon fill="none" stroke="black" points="0,-6 0,-25 101,-25 101,-6 0,-6"/>
<text text-anchor="middle" x="50.5" y="-13" font-family="Helvetica,sans-Serif" font-size="10.00">test_model_parallel</text>
</a>
</g>
</g>
<!-- Node3&#45;&gt;Node4 -->
<g id="edge3" class="edge">
<title>Node3&#45;&gt;Node4</title>
<path fill="none" stroke="midnightblue" d="M126.73,-15.5C118.09,-15.5 109.4,-15.5 101.15,-15.5"/>
<polygon fill="midnightblue" stroke="midnightblue" points="126.81,-19 136.81,-15.5 126.81,-12 126.81,-19"/>
</g>
</g>
</svg>
