<?xml version="1.0" encoding="UTF-8" standalone="no"?>
<!DOCTYPE svg PUBLIC "-//W3C//DTD SVG 1.1//EN"
 "http://www.w3.org/Graphics/SVG/1.1/DTD/svg11.dtd">
<!-- Generated by graphviz version 2.40.1 (20161225.0304)
 -->
<!-- Title: lagrangian_motion_mod::vert_mig Pages: 1 -->
<svg width="308pt" height="57pt"
 viewBox="0.00 0.00 308.00 57.00" xmlns="http://www.w3.org/2000/svg" xmlns:xlink="http://www.w3.org/1999/xlink">
<g id="graph0" class="graph" transform="scale(1 1) rotate(0) translate(4 53)">
<title>lagrangian_motion_mod::vert_mig</title>
<!-- Node1 -->
<g id="node1" class="node">
<title>Node1</title>
<g id="a_node1"><a xlink:title=" ">
<polygon fill="#bfbfbf" stroke="#000000" points="0,-.5 0,-30.5 124,-30.5 124,-.5 0,-.5"/>
<text text-anchor="start" x="8" y="-18.5" font-family="Helvetica,sans-Serif" font-size="10.00" fill="#000000">lagrangian_motion_mod</text>
<text text-anchor="middle" x="62" y="-7.5" font-family="Helvetica,sans-Serif" font-size="10.00" fill="#000000">::vert_mig</text>
</a>
</g>
</g>
<!-- Node1&#45;&gt;Node1 -->
<g id="edge3" class="edge">
<title>Node1&#45;&gt;Node1</title>
<path fill="none" stroke="#191970" d="M32.7225,-30.659C25.6627,-40.0566 35.4219,-49 62,-49 78.196,-49 88.1466,-45.679 91.8516,-40.9579"/>
<polygon fill="#191970" stroke="#191970" points="95.3287,-40.4487 91.2775,-30.659 88.3396,-40.8383 95.3287,-40.4487"/>
</g>
<!-- Node2 -->
<g id="node2" class="node">
<title>Node2</title>
<g id="a_node2"><a xlink:href="namespacelagrangian__motion__mod.html#a05a378805d8ab77b9d2400c9d83c8e86" target="_top" xlink:title=" ">
<polygon fill="none" stroke="#000000" points="160,-6 160,-25 300,-25 300,-6 160,-6"/>
<text text-anchor="middle" x="230" y="-13" font-family="Helvetica,sans-Serif" font-size="10.00" fill="#000000">lagrangian_motion_mod::ou</text>
</a>
</g>
</g>
<!-- Node1&#45;&gt;Node2 -->
<g id="edge1" class="edge">
<title>Node1&#45;&gt;Node2</title>
<path fill="none" stroke="#191970" d="M124.0797,-15.5C132.4774,-15.5 141.1895,-15.5 149.8469,-15.5"/>
<polygon fill="#191970" stroke="#191970" points="149.9628,-19.0001 159.9627,-15.5 149.9627,-12.0001 149.9628,-19.0001"/>
</g>
<!-- Node2&#45;&gt;Node2 -->
<g id="edge2" class="edge">
<title>Node2&#45;&gt;Node2</title>
<path fill="none" stroke="#191970" d="M204.1063,-25.2571C191.5094,-34.0653 200.1406,-43.5 230,-43.5 250.0618,-43.5 260.5408,-39.241 261.4371,-33.7746"/>
<polygon fill="#191970" stroke="#191970" points="264.2819,-31.7291 255.8937,-25.2571 258.415,-35.5475 264.2819,-31.7291"/>
</g>
</g>
</svg>
