<?xml version="1.0" encoding="UTF-8" standalone="no"?>
<!DOCTYPE svg PUBLIC "-//W3C//DTD SVG 1.1//EN"
 "http://www.w3.org/Graphics/SVG/1.1/DTD/svg11.dtd">
<!-- Generated by graphviz version 2.40.1 (20161225.0304)
 -->
<!-- Title: ran_mod::ran1 Pages: 1 -->
<svg width="387pt" height="119pt"
 viewBox="0.00 0.00 387.00 118.94" xmlns="http://www.w3.org/2000/svg" xmlns:xlink="http://www.w3.org/1999/xlink">
<g id="graph0" class="graph" transform="scale(1 1) rotate(0) translate(4 114.9383)">
<title>ran_mod::ran1</title>
<!-- Node1 -->
<g id="node1" class="node">
<title>Node1</title>
<g id="a_node1"><a xlink:title=" ">
<polygon fill="#bfbfbf" stroke="#000000" points="297,-57.5 297,-76.5 379,-76.5 379,-57.5 297,-57.5"/>
<text text-anchor="middle" x="338" y="-64.5" font-family="Helvetica,sans-Serif" font-size="10.00" fill="#000000">ran_mod::ran1</text>
</a>
</g>
</g>
<!-- Node2 -->
<g id="node2" class="node">
<title>Node2</title>
<g id="a_node2"><a xlink:href="namespacepartfun__mod.html#ad10a70f03faaef4dabe288c208c84d13" target="_top" xlink:title=" ">
<polygon fill="none" stroke="#000000" points="0,-76.5 0,-95.5 133,-95.5 133,-76.5 0,-76.5"/>
<text text-anchor="middle" x="66.5" y="-83.5" font-family="Helvetica,sans-Serif" font-size="10.00" fill="#000000">partfun_mod::generatekrill</text>
</a>
</g>
</g>
<!-- Node1&#45;&gt;Node2 -->
<g id="edge1" class="edge">
<title>Node1&#45;&gt;Node2</title>
<path fill="none" stroke="#191970" d="M314.8157,-81.9489C300.0572,-90.555 280.1732,-100.5265 261,-105 204.9961,-118.0669 137.887,-105.501 98.9299,-95.5173"/>
<polygon fill="#191970" stroke="#191970" points="316.9725,-84.7347 323.7149,-76.5622 313.3477,-78.7463 316.9725,-84.7347"/>
</g>
<!-- Node3 -->
<g id="node3" class="node">
<title>Node3</title>
<g id="a_node3"><a xlink:href="namespaceran__mod.html#ad452cd0b5319295c1aade4a56f231659" target="_top" xlink:title=" ">
<polygon fill="none" stroke="#000000" points="169,-76.5 169,-95.5 261,-95.5 261,-76.5 169,-76.5"/>
<text text-anchor="middle" x="215" y="-83.5" font-family="Helvetica,sans-Serif" font-size="10.00" fill="#000000">ran_mod::normal</text>
</a>
</g>
</g>
<!-- Node1&#45;&gt;Node3 -->
<g id="edge2" class="edge">
<title>Node1&#45;&gt;Node3</title>
<path fill="none" stroke="#191970" d="M286.5565,-74.9466C278.0974,-76.2532 269.3775,-77.6002 261.0603,-78.885"/>
<polygon fill="#191970" stroke="#191970" points="287.3522,-78.3652 296.7006,-73.3796 286.2835,-71.4473 287.3522,-78.3652"/>
</g>
<!-- Node4 -->
<g id="node4" class="node">
<title>Node4</title>
<g id="a_node4"><a xlink:href="namespaceran__mod.html#ae552086c3f591463a87d0003e40f17a6" target="_top" xlink:title=" ">
<polygon fill="none" stroke="#000000" points="169,-38.5 169,-57.5 261,-57.5 261,-38.5 169,-38.5"/>
<text text-anchor="middle" x="215" y="-45.5" font-family="Helvetica,sans-Serif" font-size="10.00" fill="#000000">ran_mod::spread</text>
</a>
</g>
</g>
<!-- Node1&#45;&gt;Node4 -->
<g id="edge3" class="edge">
<title>Node1&#45;&gt;Node4</title>
<path fill="none" stroke="#191970" d="M286.5565,-59.0534C278.0974,-57.7468 269.3775,-56.3998 261.0603,-55.115"/>
<polygon fill="#191970" stroke="#191970" points="286.2835,-62.5527 296.7006,-60.6204 287.3522,-55.6348 286.2835,-62.5527"/>
</g>
<!-- Node5 -->
<g id="node5" class="node">
<title>Node5</title>
<g id="a_node5"><a xlink:href="zeros_8f90.html#ad184766ebef4a197084785cec6899602" target="_top" xlink:title=" ">
<polygon fill="none" stroke="#000000" points="194.5,-.5 194.5,-19.5 235.5,-19.5 235.5,-.5 194.5,-.5"/>
<text text-anchor="middle" x="215" y="-7.5" font-family="Helvetica,sans-Serif" font-size="10.00" fill="#000000">zeros</text>
</a>
</g>
</g>
<!-- Node1&#45;&gt;Node5 -->
<g id="edge5" class="edge">
<title>Node1&#45;&gt;Node5</title>
<path fill="none" stroke="#191970" d="M310.4948,-52.8707C295.9006,-45.5152 277.5992,-36.5139 261,-29 252.8135,-25.2943 243.6868,-21.4637 235.7348,-18.2213"/>
<polygon fill="#191970" stroke="#191970" points="308.993,-56.0334 319.4948,-57.4344 312.1589,-49.7902 308.993,-56.0334"/>
</g>
<!-- Node4&#45;&gt;Node2 -->
<g id="edge4" class="edge">
<title>Node4&#45;&gt;Node2</title>
<path fill="none" stroke="#191970" d="M167.6671,-60.1121C146.9854,-65.4044 123.0812,-71.5213 103.7034,-76.4799"/>
<polygon fill="#191970" stroke="#191970" points="168.707,-63.4589 177.5272,-57.589 166.9716,-56.6774 168.707,-63.4589"/>
</g>
</g>
</svg>
