<?xml version="1.0" encoding="UTF-8" standalone="no"?>
<!DOCTYPE svg PUBLIC "-//W3C//DTD SVG 1.1//EN"
 "http://www.w3.org/Graphics/SVG/1.1/DTD/svg11.dtd">
<!-- Generated by graphviz version 2.40.1 (20161225.0304)
 -->
<!-- Title: partfun_mod::generatecalanus Pages: 1 -->
<svg width="496pt" height="115pt"
 viewBox="0.00 0.00 496.00 114.50" xmlns="http://www.w3.org/2000/svg" xmlns:xlink="http://www.w3.org/1999/xlink">
<g id="graph0" class="graph" transform="scale(1 1) rotate(0) translate(4 110.5)">
<title>partfun_mod::generatecalanus</title>
<!-- Node1 -->
<g id="node1" class="node">
<title>Node1</title>
<g id="a_node1"><a xlink:title=" ">
<polygon fill="#bfbfbf" stroke="#000000" points="0,-68 0,-87 152,-87 152,-68 0,-68"/>
<text text-anchor="middle" x="76" y="-75" font-family="Helvetica,sans-Serif" font-size="10.00" fill="#000000">partfun_mod::generatecalanus</text>
</a>
</g>
</g>
<!-- Node2 -->
<g id="node2" class="node">
<title>Node2</title>
<g id="a_node2"><a xlink:href="def__domain_8f90.html#ab057fe3bd904effd74da6533cb12b017" target="_top" xlink:title=" ">
<polygon fill="none" stroke="#000000" points="396.5,-87 396.5,-106 439.5,-106 439.5,-87 396.5,-87"/>
<text text-anchor="middle" x="418" y="-94" font-family="Helvetica,sans-Serif" font-size="10.00" fill="#000000">cday2</text>
</a>
</g>
</g>
<!-- Node1&#45;&gt;Node2 -->
<g id="edge1" class="edge">
<title>Node1&#45;&gt;Node2</title>
<path fill="none" stroke="#191970" d="M121.5521,-87.0123C141.8001,-90.7778 165.989,-94.6462 188,-96.5 258.577,-102.444 341.7686,-100.1511 386.2124,-98.1821"/>
<polygon fill="#191970" stroke="#191970" points="386.5612,-101.6697 396.3868,-97.7064 386.2342,-94.6773 386.5612,-101.6697"/>
</g>
<!-- Node3 -->
<g id="node3" class="node">
<title>Node3</title>
<g id="a_node3"><a xlink:href="def__domain_8f90.html#aae31ca494afac027b938401c0d53290d" target="_top" xlink:title=" ">
<polygon fill="none" stroke="#000000" points="223.5,-68 223.5,-87 276.5,-87 276.5,-68 223.5,-68"/>
<text text-anchor="middle" x="250" y="-75" font-family="Helvetica,sans-Serif" font-size="10.00" fill="#000000">update2</text>
</a>
</g>
</g>
<!-- Node1&#45;&gt;Node3 -->
<g id="edge2" class="edge">
<title>Node1&#45;&gt;Node3</title>
<path fill="none" stroke="#191970" d="M152.0658,-77.5C173.2179,-77.5 195.246,-77.5 213.0417,-77.5"/>
<polygon fill="#191970" stroke="#191970" points="213.2599,-81.0001 223.2599,-77.5 213.2599,-74.0001 213.2599,-81.0001"/>
</g>
<!-- Node4 -->
<g id="node4" class="node">
<title>Node4</title>
<g id="a_node4"><a xlink:href="namespacelagrangian__motion__mod.html#ab080e0246757af1269e28d8945c31343" target="_top" xlink:title=" ">
<polygon fill="none" stroke="#000000" points="188,-.5 188,-30.5 312,-30.5 312,-.5 188,-.5"/>
<text text-anchor="start" x="196" y="-18.5" font-family="Helvetica,sans-Serif" font-size="10.00" fill="#000000">lagrangian_motion_mod</text>
<text text-anchor="middle" x="250" y="-7.5" font-family="Helvetica,sans-Serif" font-size="10.00" fill="#000000">::vert_mig</text>
</a>
</g>
</g>
<!-- Node1&#45;&gt;Node4 -->
<g id="edge4" class="edge">
<title>Node1&#45;&gt;Node4</title>
<path fill="none" stroke="#191970" d="M102.8062,-67.9484C128.119,-58.9289 166.7661,-45.158 198.1086,-33.99"/>
<polygon fill="#191970" stroke="#191970" points="199.3332,-37.2693 207.5783,-30.6158 196.9836,-30.6754 199.3332,-37.2693"/>
</g>
<!-- Node3&#45;&gt;Node2 -->
<g id="edge3" class="edge">
<title>Node3&#45;&gt;Node2</title>
<path fill="none" stroke="#191970" d="M276.6201,-80.5106C306.379,-83.8762 354.5429,-89.3233 386.2434,-92.9085"/>
<polygon fill="#191970" stroke="#191970" points="385.9825,-96.4012 396.3125,-94.0472 386.7692,-89.4455 385.9825,-96.4012"/>
</g>
<!-- Node4&#45;&gt;Node4 -->
<g id="edge7" class="edge">
<title>Node4&#45;&gt;Node4</title>
<path fill="none" stroke="#191970" d="M220.7225,-30.659C213.6627,-40.0566 223.4219,-49 250,-49 266.196,-49 276.1466,-45.679 279.8516,-40.9579"/>
<polygon fill="#191970" stroke="#191970" points="283.3287,-40.4487 279.2775,-30.659 276.3396,-40.8383 283.3287,-40.4487"/>
</g>
<!-- Node5 -->
<g id="node5" class="node">
<title>Node5</title>
<g id="a_node5"><a xlink:href="namespacelagrangian__motion__mod.html#a05a378805d8ab77b9d2400c9d83c8e86" target="_top" xlink:title=" ">
<polygon fill="none" stroke="#000000" points="348,-6 348,-25 488,-25 488,-6 348,-6"/>
<text text-anchor="middle" x="418" y="-13" font-family="Helvetica,sans-Serif" font-size="10.00" fill="#000000">lagrangian_motion_mod::ou</text>
</a>
</g>
</g>
<!-- Node4&#45;&gt;Node5 -->
<g id="edge5" class="edge">
<title>Node4&#45;&gt;Node5</title>
<path fill="none" stroke="#191970" d="M312.0797,-15.5C320.4774,-15.5 329.1895,-15.5 337.8469,-15.5"/>
<polygon fill="#191970" stroke="#191970" points="337.9628,-19.0001 347.9627,-15.5 337.9627,-12.0001 337.9628,-19.0001"/>
</g>
<!-- Node5&#45;&gt;Node5 -->
<g id="edge6" class="edge">
<title>Node5&#45;&gt;Node5</title>
<path fill="none" stroke="#191970" d="M392.1063,-25.2571C379.5094,-34.0653 388.1406,-43.5 418,-43.5 438.0618,-43.5 448.5408,-39.241 449.4371,-33.7746"/>
<polygon fill="#191970" stroke="#191970" points="452.2819,-31.7291 443.8937,-25.2571 446.415,-35.5475 452.2819,-31.7291"/>
</g>
</g>
</svg>
