<?xml version="1.0" encoding="UTF-8" standalone="no"?>
<!DOCTYPE svg PUBLIC "-//W3C//DTD SVG 1.1//EN"
 "http://www.w3.org/Graphics/SVG/1.1/DTD/svg11.dtd">
<!-- Generated by graphviz version 2.40.1 (20161225.0304)
 -->
<!-- Title: rng_par_zig::rng_rnor Pages: 1 -->
<svg width="275pt" height="137pt"
 viewBox="0.00 0.00 275.00 137.00" xmlns="http://www.w3.org/2000/svg" xmlns:xlink="http://www.w3.org/1999/xlink">
<g id="graph0" class="graph" transform="scale(1 1) rotate(0) translate(4 133)">
<title>rng_par_zig::rng_rnor</title>
<!-- Node1 -->
<g id="node1" class="node">
<title>Node1</title>
<g id="a_node1"><a xlink:title=" ">
<polygon fill="#bfbfbf" stroke="#000000" points="154,-55 154,-74 267,-74 267,-55 154,-55"/>
<text text-anchor="middle" x="210.5" y="-62" font-family="Helvetica,sans-Serif" font-size="10.00" fill="#000000">rng_par_zig::rng_rnor</text>
</a>
</g>
</g>
<!-- Node2 -->
<g id="node2" class="node">
<title>Node2</title>
<g id="a_node2"><a xlink:href="interfacerng__par__zig_1_1rng__norm.html#a75c24c4948daedff360536f8d0eaee3b" target="_top" xlink:title=" ">
<polygon fill="none" stroke="#000000" points="0,-98.5 0,-128.5 118,-128.5 118,-98.5 0,-98.5"/>
<text text-anchor="start" x="8" y="-116.5" font-family="Helvetica,sans-Serif" font-size="10.00" fill="#000000">rng_par_zig::rng_norm</text>
<text text-anchor="middle" x="59" y="-105.5" font-family="Helvetica,sans-Serif" font-size="10.00" fill="#000000">::rng_rnor_32</text>
</a>
</g>
</g>
<!-- Node1&#45;&gt;Node2 -->
<g id="edge1" class="edge">
<title>Node1&#45;&gt;Node2</title>
<path fill="none" stroke="#191970" d="M171.1711,-77.2202C151.0836,-83.7172 126.5119,-91.6645 105.4918,-98.463"/>
<polygon fill="#191970" stroke="#191970" points="172.492,-80.4716 180.9296,-74.064 170.3378,-73.8113 172.492,-80.4716"/>
</g>
<!-- Node3 -->
<g id="node3" class="node">
<title>Node3</title>
<g id="a_node3"><a xlink:href="interfacerng__par__zig_1_1rng__norm.html#adddcfad6bf6f3886b7c10566294e25fe" target="_top" xlink:title=" ">
<polygon fill="none" stroke="#000000" points="0,-49.5 0,-79.5 118,-79.5 118,-49.5 0,-49.5"/>
<text text-anchor="start" x="8" y="-67.5" font-family="Helvetica,sans-Serif" font-size="10.00" fill="#000000">rng_par_zig::rng_norm</text>
<text text-anchor="middle" x="59" y="-56.5" font-family="Helvetica,sans-Serif" font-size="10.00" fill="#000000">::rng_rnor_32_ser</text>
</a>
</g>
</g>
<!-- Node1&#45;&gt;Node3 -->
<g id="edge2" class="edge">
<title>Node1&#45;&gt;Node3</title>
<path fill="none" stroke="#191970" d="M143.4785,-64.5C135.0521,-64.5 126.4796,-64.5 118.1857,-64.5"/>
<polygon fill="#191970" stroke="#191970" points="143.656,-68.0001 153.656,-64.5 143.6559,-61.0001 143.656,-68.0001"/>
</g>
<!-- Node4 -->
<g id="node4" class="node">
<title>Node4</title>
<g id="a_node4"><a xlink:href="interfacerng__par__zig_1_1rng__norm.html#a0b86db2b479b66579c855750e987a73e" target="_top" xlink:title=" ">
<polygon fill="none" stroke="#000000" points="0,-.5 0,-30.5 118,-30.5 118,-.5 0,-.5"/>
<text text-anchor="start" x="8" y="-18.5" font-family="Helvetica,sans-Serif" font-size="10.00" fill="#000000">rng_par_zig::rng_norm</text>
<text text-anchor="middle" x="59" y="-7.5" font-family="Helvetica,sans-Serif" font-size="10.00" fill="#000000">::rng_rnor_ser</text>
</a>
</g>
</g>
<!-- Node1&#45;&gt;Node4 -->
<g id="edge3" class="edge">
<title>Node1&#45;&gt;Node4</title>
<path fill="none" stroke="#191970" d="M171.1711,-51.7798C151.0836,-45.2828 126.5119,-37.3355 105.4918,-30.537"/>
<polygon fill="#191970" stroke="#191970" points="170.3378,-55.1887 180.9296,-54.936 172.492,-48.5284 170.3378,-55.1887"/>
</g>
</g>
</svg>
