<?xml version="1.0" encoding="UTF-8" standalone="no"?>
<!DOCTYPE svg PUBLIC "-//W3C//DTD SVG 1.1//EN"
 "http://www.w3.org/Graphics/SVG/1.1/DTD/svg11.dtd">
<!-- Generated by graphviz version 2.42.3 (20191010.1750)
 -->
<!-- Title: lagrangian_motion_mod::zday Pages: 1 -->
<svg width="448pt" height="133pt"
 viewBox="0.00 0.00 448.00 132.50" xmlns="http://www.w3.org/2000/svg" xmlns:xlink="http://www.w3.org/1999/xlink">
<g id="graph0" class="graph" transform="scale(1 1) rotate(0) translate(4 128.5)">
<title>lagrangian_motion_mod::zday</title>
<!-- Node1 -->
<g id="node1" class="node">
<title>Node1</title>
<g id="a_node1"><a xlink:title=" ">
<polygon fill="#bfbfbf" stroke="black" points="321,-41.5 321,-71.5 440,-71.5 440,-41.5 321,-41.5"/>
<text text-anchor="start" x="329" y="-59.5" font-family="Helvetica,sans-Serif" font-size="10.00">lagrangian_motion_mod</text>
<text text-anchor="middle" x="380.5" y="-48.5" font-family="Helvetica,sans-Serif" font-size="10.00">::zday</text>
</a>
</g>
</g>
<!-- Node2 -->
<g id="node2" class="node">
<title>Node2</title>
<g id="a_node2"><a xlink:href="namespacepartfun__mod.html#ad10a70f03faaef4dabe288c208c84d13" target="_top" xlink:title=" ">
<polygon fill="none" stroke="black" points="0.5,-105 0.5,-124 129.5,-124 129.5,-105 0.5,-105"/>
<text text-anchor="middle" x="65" y="-112" font-family="Helvetica,sans-Serif" font-size="10.00">partfun_mod::generatekrill</text>
</a>
</g>
</g>
<!-- Node1&#45;&gt;Node2 -->
<g id="edge1" class="edge">
<title>Node1&#45;&gt;Node2</title>
<path fill="none" stroke="midnightblue" d="M347.34,-76.64C329.65,-86.64 306.89,-97.77 285,-103.5 233.99,-116.84 174.07,-118.97 129.82,-118.11"/>
<polygon fill="midnightblue" stroke="midnightblue" points="349.22,-79.6 356.11,-71.55 345.7,-73.55 349.22,-79.6"/>
</g>
<!-- Node3 -->
<g id="node3" class="node">
<title>Node3</title>
<g id="a_node3"><a xlink:href="namespacepartfun__mod.html#ad1d4b6fda953ac4cf30f05cf9c6d9a4a" target="_top" xlink:title=" ">
<polygon fill="none" stroke="black" points="0,-59 0,-78 130,-78 130,-59 0,-59"/>
<text text-anchor="middle" x="65" y="-66" font-family="Helvetica,sans-Serif" font-size="10.00">partfun_mod::generatezoo</text>
</a>
</g>
</g>
<!-- Node1&#45;&gt;Node3 -->
<g id="edge2" class="edge">
<title>Node1&#45;&gt;Node3</title>
<path fill="none" stroke="midnightblue" d="M310.69,-54.87C302.04,-54.72 293.31,-54.59 285,-54.5 232.11,-53.94 218.76,-50.82 166,-54.5 152.36,-55.45 137.75,-57.12 124.02,-58.99"/>
<polygon fill="midnightblue" stroke="midnightblue" points="310.71,-58.37 320.78,-55.06 310.84,-51.38 310.71,-58.37"/>
</g>
<!-- Node4 -->
<g id="node4" class="node">
<title>Node4</title>
<g id="a_node4"><a xlink:href="namespacelagrangian__motion__mod.html#ad41aca95e71989a53863361e169a0591" target="_top" xlink:title=" ">
<polygon fill="none" stroke="black" points="5.5,-0.5 5.5,-30.5 124.5,-30.5 124.5,-0.5 5.5,-0.5"/>
<text text-anchor="start" x="13.5" y="-18.5" font-family="Helvetica,sans-Serif" font-size="10.00">lagrangian_motion_mod</text>
<text text-anchor="middle" x="65" y="-7.5" font-family="Helvetica,sans-Serif" font-size="10.00">::trajectory</text>
</a>
</g>
</g>
<!-- Node1&#45;&gt;Node4 -->
<g id="edge3" class="edge">
<title>Node1&#45;&gt;Node4</title>
<path fill="none" stroke="midnightblue" d="M310.76,-47.51C255.04,-40.22 177.37,-30.07 124.58,-23.16"/>
<polygon fill="midnightblue" stroke="midnightblue" points="310.53,-51.01 320.9,-48.84 311.44,-44.07 310.53,-51.01"/>
</g>
<!-- Node5 -->
<g id="node5" class="node">
<title>Node5</title>
<g id="a_node5"><a xlink:href="namespacelagrangian__motion__mod.html#ab080e0246757af1269e28d8945c31343" target="_top" xlink:title=" ">
<polygon fill="none" stroke="black" points="166,-63.5 166,-93.5 285,-93.5 285,-63.5 166,-63.5"/>
<text text-anchor="start" x="174" y="-81.5" font-family="Helvetica,sans-Serif" font-size="10.00">lagrangian_motion_mod</text>
<text text-anchor="middle" x="225.5" y="-70.5" font-family="Helvetica,sans-Serif" font-size="10.00">::vert_mig</text>
</a>
</g>
</g>
<!-- Node1&#45;&gt;Node5 -->
<g id="edge4" class="edge">
<title>Node1&#45;&gt;Node5</title>
<path fill="none" stroke="midnightblue" d="M310.79,-66.38C302.2,-67.62 293.47,-68.87 285.06,-70.08"/>
<polygon fill="midnightblue" stroke="midnightblue" points="311.38,-69.83 320.78,-64.94 310.39,-62.9 311.38,-69.83"/>
</g>
<!-- Node5&#45;&gt;Node2 -->
<g id="edge5" class="edge">
<title>Node5&#45;&gt;Node2</title>
<path fill="none" stroke="midnightblue" d="M155.89,-94.08C139.59,-97.78 122.69,-101.62 107.99,-104.96"/>
<polygon fill="midnightblue" stroke="midnightblue" points="156.95,-97.43 165.93,-91.8 155.4,-90.6 156.95,-97.43"/>
</g>
<!-- Node5&#45;&gt;Node3 -->
<g id="edge6" class="edge">
<title>Node5&#45;&gt;Node3</title>
<path fill="none" stroke="midnightblue" d="M155.7,-74.16C147.23,-73.62 138.59,-73.08 130.19,-72.55"/>
<polygon fill="midnightblue" stroke="midnightblue" points="155.73,-77.67 165.93,-74.8 156.17,-70.68 155.73,-77.67"/>
</g>
<!-- Node5&#45;&gt;Node4 -->
<g id="edge7" class="edge">
<title>Node5&#45;&gt;Node4</title>
<path fill="none" stroke="midnightblue" d="M177.14,-59.68C153.75,-50.38 125.9,-39.31 103.93,-30.58"/>
<polygon fill="midnightblue" stroke="midnightblue" points="175.95,-62.97 186.54,-63.41 178.54,-56.46 175.95,-62.97"/>
</g>
</g>
</svg>
