<?xml version="1.0" encoding="UTF-8" standalone="no"?>
<!DOCTYPE svg PUBLIC "-//W3C//DTD SVG 1.1//EN"
 "http://www.w3.org/Graphics/SVG/1.1/DTD/svg11.dtd">
<!-- Generated by graphviz version 2.42.3 (20191010.1750)
 -->
<!-- Title: partfun_mod::generatekrill Pages: 1 -->
<svg width="464pt" height="177pt"
 viewBox="0.00 0.00 464.00 176.84" xmlns="http://www.w3.org/2000/svg" xmlns:xlink="http://www.w3.org/1999/xlink">
<g id="graph0" class="graph" transform="scale(1 1) rotate(0) translate(4 172.84)">
<title>partfun_mod::generatekrill</title>
<!-- Node1 -->
<g id="node1" class="node">
<title>Node1</title>
<g id="a_node1"><a xlink:title=" ">
<polygon fill="#bfbfbf" stroke="black" points="0,-94 0,-113 129,-113 129,-94 0,-94"/>
<text text-anchor="middle" x="64.5" y="-101" font-family="Helvetica,sans-Serif" font-size="10.00">partfun_mod::generatekrill</text>
</a>
</g>
</g>
<!-- Node2 -->
<g id="node2" class="node">
<title>Node2</title>
<g id="a_node2"><a xlink:href="def__domain_8f90.html#ab057fe3bd904effd74da6533cb12b017" target="_top" xlink:title=" ">
<polygon fill="none" stroke="black" points="366.5,-132 366.5,-151 409.5,-151 409.5,-132 366.5,-132"/>
<text text-anchor="middle" x="388" y="-139" font-family="Helvetica,sans-Serif" font-size="10.00">cday2</text>
</a>
</g>
</g>
<!-- Node1&#45;&gt;Node2 -->
<g id="edge1" class="edge">
<title>Node1&#45;&gt;Node2</title>
<path fill="none" stroke="midnightblue" d="M77.45,-113.15C95.25,-126.85 130.37,-151.28 165,-160.5 231.65,-178.24 313.15,-162.05 356.48,-150.59"/>
<polygon fill="midnightblue" stroke="midnightblue" points="357.67,-153.89 366.39,-147.87 355.82,-147.14 357.67,-153.89"/>
</g>
<!-- Node3 -->
<g id="node3" class="node">
<title>Node3</title>
<g id="a_node3"><a xlink:href="par__particle_8f90.html#a50c2539af3b26fb2980743c9d3a1b2f9" target="_top" xlink:title=" ">
<polygon fill="none" stroke="black" points="191,-132 191,-151 258,-151 258,-132 191,-132"/>
<text text-anchor="middle" x="224.5" y="-139" font-family="Helvetica,sans-Serif" font-size="10.00">par_particle</text>
</a>
</g>
</g>
<!-- Node1&#45;&gt;Node3 -->
<g id="edge2" class="edge">
<title>Node1&#45;&gt;Node3</title>
<path fill="none" stroke="midnightblue" d="M105.37,-113.09C128.38,-118.62 157.33,-125.58 180.8,-131.23"/>
<polygon fill="midnightblue" stroke="midnightblue" points="180.29,-134.71 190.83,-133.64 181.92,-127.9 180.29,-134.71"/>
</g>
<!-- Node4 -->
<g id="node4" class="node">
<title>Node4</title>
<g id="a_node4"><a xlink:href="def__domain_8f90.html#aae31ca494afac027b938401c0d53290d" target="_top" xlink:title=" ">
<polygon fill="none" stroke="black" points="199,-94 199,-113 250,-113 250,-94 199,-94"/>
<text text-anchor="middle" x="224.5" y="-101" font-family="Helvetica,sans-Serif" font-size="10.00">update2</text>
</a>
</g>
</g>
<!-- Node1&#45;&gt;Node4 -->
<g id="edge3" class="edge">
<title>Node1&#45;&gt;Node4</title>
<path fill="none" stroke="midnightblue" d="M129.31,-103.5C149.59,-103.5 171.27,-103.5 188.7,-103.5"/>
<polygon fill="midnightblue" stroke="midnightblue" points="188.96,-107 198.96,-103.5 188.96,-100 188.96,-107"/>
</g>
<!-- Node5 -->
<g id="node5" class="node">
<title>Node5</title>
<g id="a_node5"><a xlink:href="namespacelagrangian__motion__mod.html#ab080e0246757af1269e28d8945c31343" target="_top" xlink:title=" ">
<polygon fill="none" stroke="black" points="165,-44.5 165,-74.5 284,-74.5 284,-44.5 165,-44.5"/>
<text text-anchor="start" x="173" y="-62.5" font-family="Helvetica,sans-Serif" font-size="10.00">lagrangian_motion_mod</text>
<text text-anchor="middle" x="224.5" y="-51.5" font-family="Helvetica,sans-Serif" font-size="10.00">::vert_mig</text>
</a>
</g>
</g>
<!-- Node1&#45;&gt;Node5 -->
<g id="edge5" class="edge">
<title>Node1&#45;&gt;Node5</title>
<path fill="none" stroke="midnightblue" d="M99.78,-93.95C117.25,-89.09 139.08,-83.01 159.51,-77.32"/>
<polygon fill="midnightblue" stroke="midnightblue" points="160.71,-80.62 169.4,-74.57 158.83,-73.88 160.71,-80.62"/>
</g>
<!-- Node7 -->
<g id="node7" class="node">
<title>Node7</title>
<g id="a_node7"><a xlink:href="namespacelagrangian__motion__mod.html#a7bc30abbe4c0ecdf05fc0e869fa8d2e3" target="_top" xlink:title=" ">
<polygon fill="none" stroke="black" points="328.5,-0.5 328.5,-30.5 447.5,-30.5 447.5,-0.5 328.5,-0.5"/>
<text text-anchor="start" x="336.5" y="-18.5" font-family="Helvetica,sans-Serif" font-size="10.00">lagrangian_motion_mod</text>
<text text-anchor="middle" x="388" y="-7.5" font-family="Helvetica,sans-Serif" font-size="10.00">::zday</text>
</a>
</g>
</g>
<!-- Node1&#45;&gt;Node7 -->
<g id="edge8" class="edge">
<title>Node1&#45;&gt;Node7</title>
<path fill="none" stroke="midnightblue" d="M75.5,-93.82C92.36,-78.17 128.22,-47.75 165,-34.5 214.12,-16.8 273.17,-12.48 318.01,-12.36"/>
<polygon fill="midnightblue" stroke="midnightblue" points="318.2,-15.86 328.22,-12.4 318.23,-8.86 318.2,-15.86"/>
</g>
<!-- Node4&#45;&gt;Node2 -->
<g id="edge4" class="edge">
<title>Node4&#45;&gt;Node2</title>
<path fill="none" stroke="midnightblue" d="M250.03,-109.27C278.57,-115.99 325.71,-127.08 356.56,-134.34"/>
<polygon fill="midnightblue" stroke="midnightblue" points="355.82,-137.76 366.35,-136.64 357.42,-130.94 355.82,-137.76"/>
</g>
<!-- Node6 -->
<g id="node6" class="node">
<title>Node6</title>
<g id="a_node6"><a xlink:href="namespacelagrangian__motion__mod.html#a05a378805d8ab77b9d2400c9d83c8e86" target="_top" xlink:title=" ">
<polygon fill="none" stroke="black" points="320,-50 320,-69 456,-69 456,-50 320,-50"/>
<text text-anchor="middle" x="388" y="-57" font-family="Helvetica,sans-Serif" font-size="10.00">lagrangian_motion_mod::ou</text>
</a>
</g>
</g>
<!-- Node5&#45;&gt;Node6 -->
<g id="edge6" class="edge">
<title>Node5&#45;&gt;Node6</title>
<path fill="none" stroke="midnightblue" d="M284.26,-59.5C292.56,-59.5 301.19,-59.5 309.77,-59.5"/>
<polygon fill="midnightblue" stroke="midnightblue" points="309.8,-63 319.8,-59.5 309.8,-56 309.8,-63"/>
</g>
<!-- Node5&#45;&gt;Node7 -->
<g id="edge7" class="edge">
<title>Node5&#45;&gt;Node7</title>
<path fill="none" stroke="midnightblue" d="M280.63,-44.48C293.94,-40.85 308.28,-36.95 322,-33.21"/>
<polygon fill="midnightblue" stroke="midnightblue" points="323.12,-36.53 331.85,-30.53 321.28,-29.78 323.12,-36.53"/>
</g>
</g>
</svg>
