<?xml version="1.0" encoding="UTF-8" standalone="no"?>
<!DOCTYPE svg PUBLIC "-//W3C//DTD SVG 1.1//EN"
 "http://www.w3.org/Graphics/SVG/1.1/DTD/svg11.dtd">
<!-- Generated by graphviz version 2.40.1 (20161225.0304)
 -->
<!-- Title: lagrangian_motion_mod::zmig Pages: 1 -->
<svg width="461pt" height="89pt"
 viewBox="0.00 0.00 461.00 88.50" xmlns="http://www.w3.org/2000/svg" xmlns:xlink="http://www.w3.org/1999/xlink">
<g id="graph0" class="graph" transform="scale(1 1) rotate(0) translate(4 84.5)">
<title>lagrangian_motion_mod::zmig</title>
<!-- Node1 -->
<g id="node1" class="node">
<title>Node1</title>
<g id="a_node1"><a xlink:title=" ">
<polygon fill="#bfbfbf" stroke="#000000" points="329,-22.5 329,-52.5 453,-52.5 453,-22.5 329,-22.5"/>
<text text-anchor="start" x="337" y="-40.5" font-family="Helvetica,sans-Serif" font-size="10.00" fill="#000000">lagrangian_motion_mod</text>
<text text-anchor="middle" x="391" y="-29.5" font-family="Helvetica,sans-Serif" font-size="10.00" fill="#000000">::zmig</text>
</a>
</g>
</g>
<!-- Node2 -->
<g id="node2" class="node">
<title>Node2</title>
<g id="a_node2"><a xlink:href="namespacepartfun__mod.html#ad10a70f03faaef4dabe288c208c84d13" target="_top" xlink:title=" ">
<polygon fill="none" stroke="#000000" points="0,-61 0,-80 133,-80 133,-61 0,-61"/>
<text text-anchor="middle" x="66.5" y="-68" font-family="Helvetica,sans-Serif" font-size="10.00" fill="#000000">partfun_mod::generatekrill</text>
</a>
</g>
</g>
<!-- Node1&#45;&gt;Node2 -->
<g id="edge1" class="edge">
<title>Node1&#45;&gt;Node2</title>
<path fill="none" stroke="#191970" d="M330.9813,-54.9712C318.5243,-57.986 305.4116,-60.7188 293,-62.5 239.6407,-70.1578 178.5247,-71.9105 133.2358,-71.8852"/>
<polygon fill="#191970" stroke="#191970" points="331.9578,-58.3347 340.805,-52.5056 330.2537,-51.5453 331.9578,-58.3347"/>
</g>
<!-- Node3 -->
<g id="node3" class="node">
<title>Node3</title>
<g id="a_node3"><a xlink:href="namespacelagrangian__motion__mod.html#ad41aca95e71989a53863361e169a0591" target="_top" xlink:title=" ">
<polygon fill="none" stroke="#000000" points="4.5,-.5 4.5,-30.5 128.5,-30.5 128.5,-.5 4.5,-.5"/>
<text text-anchor="start" x="12.5" y="-18.5" font-family="Helvetica,sans-Serif" font-size="10.00" fill="#000000">lagrangian_motion_mod</text>
<text text-anchor="middle" x="66.5" y="-7.5" font-family="Helvetica,sans-Serif" font-size="10.00" fill="#000000">::trajectory</text>
</a>
</g>
</g>
<!-- Node1&#45;&gt;Node3 -->
<g id="edge2" class="edge">
<title>Node1&#45;&gt;Node3</title>
<path fill="none" stroke="#191970" d="M332.0584,-19.9352C319.2926,-16.8441 305.7848,-14.105 293,-12.5 237.7866,-5.5685 174.4107,-7.2161 128.7642,-10.0765"/>
<polygon fill="#191970" stroke="#191970" points="331.5565,-23.4183 342.1092,-22.4747 333.2713,-16.6316 331.5565,-23.4183"/>
</g>
<!-- Node4 -->
<g id="node4" class="node">
<title>Node4</title>
<g id="a_node4"><a xlink:href="namespacelagrangian__motion__mod.html#a8a8150c98e03ec8494685a9de6843dc4" target="_top" xlink:title=" ">
<polygon fill="none" stroke="#000000" points="169,-22.5 169,-52.5 293,-52.5 293,-22.5 169,-22.5"/>
<text text-anchor="start" x="177" y="-40.5" font-family="Helvetica,sans-Serif" font-size="10.00" fill="#000000">lagrangian_motion_mod</text>
<text text-anchor="middle" x="231" y="-29.5" font-family="Helvetica,sans-Serif" font-size="10.00" fill="#000000">::vert_mig</text>
</a>
</g>
</g>
<!-- Node1&#45;&gt;Node4 -->
<g id="edge3" class="edge">
<title>Node1&#45;&gt;Node4</title>
<path fill="none" stroke="#191970" d="M318.4547,-37.5C310.004,-37.5 301.4413,-37.5 293.1482,-37.5"/>
<polygon fill="#191970" stroke="#191970" points="318.6817,-41.0001 328.6817,-37.5 318.6816,-34.0001 318.6817,-41.0001"/>
</g>
<!-- Node4&#45;&gt;Node2 -->
<g id="edge4" class="edge">
<title>Node4&#45;&gt;Node2</title>
<path fill="none" stroke="#191970" d="M158.8878,-51.9663C143.6519,-55.0227 127.9449,-58.1737 113.9009,-60.991"/>
<polygon fill="#191970" stroke="#191970" points="159.6934,-55.3745 168.8096,-49.9759 158.3165,-48.5112 159.6934,-55.3745"/>
</g>
<!-- Node4&#45;&gt;Node3 -->
<g id="edge5" class="edge">
<title>Node4&#45;&gt;Node3</title>
<path fill="none" stroke="#191970" d="M158.8007,-27.8442C148.7003,-26.4934 138.3947,-25.1151 128.5054,-23.7925"/>
<polygon fill="#191970" stroke="#191970" points="158.4339,-31.3262 168.8096,-29.1827 159.3618,-24.388 158.4339,-31.3262"/>
</g>
</g>
</svg>
