<?xml version="1.0" encoding="UTF-8" standalone="no"?>
<!DOCTYPE svg PUBLIC "-//W3C//DTD SVG 1.1//EN"
 "http://www.w3.org/Graphics/SVG/1.1/DTD/svg11.dtd">
<!-- Generated by graphviz version 2.40.1 (20161225.0304)
 -->
<!-- Title: partfun_mod::evolvekrill Pages: 1 -->
<svg width="290pt" height="57pt"
 viewBox="0.00 0.00 290.00 57.00" xmlns="http://www.w3.org/2000/svg" xmlns:xlink="http://www.w3.org/1999/xlink">
<g id="graph0" class="graph" transform="scale(1 1) rotate(0) translate(4 53)">
<title>partfun_mod::evolvekrill</title>
<!-- Node1 -->
<g id="node1" class="node">
<title>Node1</title>
<g id="a_node1"><a xlink:title=" ">
<polygon fill="#bfbfbf" stroke="#000000" points="0,-6 0,-25 122,-25 122,-6 0,-6"/>
<text text-anchor="middle" x="61" y="-13" font-family="Helvetica,sans-Serif" font-size="10.00" fill="#000000">partfun_mod::evolvekrill</text>
</a>
</g>
</g>
<!-- Node2 -->
<g id="node2" class="node">
<title>Node2</title>
<g id="a_node2"><a xlink:href="namespacelagrangian__motion__mod.html#a6eb662434569d4e32c8a65043f196c90" target="_top" xlink:title=" ">
<polygon fill="none" stroke="#000000" points="158,-.5 158,-30.5 282,-30.5 282,-.5 158,-.5"/>
<text text-anchor="start" x="166" y="-18.5" font-family="Helvetica,sans-Serif" font-size="10.00" fill="#000000">lagrangian_motion_mod</text>
<text text-anchor="middle" x="220" y="-7.5" font-family="Helvetica,sans-Serif" font-size="10.00" fill="#000000">::update</text>
</a>
</g>
</g>
<!-- Node1&#45;&gt;Node2 -->
<g id="edge1" class="edge">
<title>Node1&#45;&gt;Node2</title>
<path fill="none" stroke="#191970" d="M122.0188,-15.5C130.4535,-15.5 139.1819,-15.5 147.7952,-15.5"/>
<polygon fill="#191970" stroke="#191970" points="147.8291,-19.0001 157.8291,-15.5 147.829,-12.0001 147.8291,-19.0001"/>
</g>
<!-- Node2&#45;&gt;Node2 -->
<g id="edge2" class="edge">
<title>Node2&#45;&gt;Node2</title>
<path fill="none" stroke="#191970" d="M192.4652,-30.659C185.8257,-40.0566 195.0039,-49 220,-49 235.232,-49 244.5902,-45.679 248.0747,-40.9579"/>
<polygon fill="#191970" stroke="#191970" points="251.5536,-40.462 247.5348,-30.659 244.5632,-40.8286 251.5536,-40.462"/>
</g>
</g>
</svg>
