<?xml version="1.0" encoding="UTF-8" standalone="no"?>
<!DOCTYPE svg PUBLIC "-//W3C//DTD SVG 1.1//EN"
 "http://www.w3.org/Graphics/SVG/1.1/DTD/svg11.dtd">
<!-- Generated by graphviz version 2.40.1 (20161225.0304)
 -->
<!-- Title: rng_par_zig::rng_rexp Pages: 1 -->
<svg width="269pt" height="137pt"
 viewBox="0.00 0.00 269.00 137.00" xmlns="http://www.w3.org/2000/svg" xmlns:xlink="http://www.w3.org/1999/xlink">
<g id="graph0" class="graph" transform="scale(1 1) rotate(0) translate(4 133)">
<title>rng_par_zig::rng_rexp</title>
<!-- Node1 -->
<g id="node1" class="node">
<title>Node1</title>
<g id="a_node1"><a xlink:title=" ">
<polygon fill="#bfbfbf" stroke="#000000" points="147,-55 147,-74 261,-74 261,-55 147,-55"/>
<text text-anchor="middle" x="204" y="-62" font-family="Helvetica,sans-Serif" font-size="10.00" fill="#000000">rng_par_zig::rng_rexp</text>
</a>
</g>
</g>
<!-- Node2 -->
<g id="node2" class="node">
<title>Node2</title>
<g id="a_node2"><a xlink:href="interfacerng__par__zig_1_1rng__exp.html#a83368d7db2a29b4ab14efa2ae50cc0fe" target="_top" xlink:title=" ">
<polygon fill="none" stroke="#000000" points="0,-98.5 0,-128.5 111,-128.5 111,-98.5 0,-98.5"/>
<text text-anchor="start" x="8" y="-116.5" font-family="Helvetica,sans-Serif" font-size="10.00" fill="#000000">rng_par_zig::rng_exp</text>
<text text-anchor="middle" x="55.5" y="-105.5" font-family="Helvetica,sans-Serif" font-size="10.00" fill="#000000">::rng_rexp_32</text>
</a>
</g>
</g>
<!-- Node1&#45;&gt;Node2 -->
<g id="edge1" class="edge">
<title>Node1&#45;&gt;Node2</title>
<path fill="none" stroke="#191970" d="M165.4499,-77.2202C145.7602,-83.7172 121.6751,-91.6645 101.0712,-98.463"/>
<polygon fill="#191970" stroke="#191970" points="166.6155,-80.5213 175.0152,-74.064 164.422,-73.8738 166.6155,-80.5213"/>
</g>
<!-- Node3 -->
<g id="node3" class="node">
<title>Node3</title>
<g id="a_node3"><a xlink:href="interfacerng__par__zig_1_1rng__exp.html#a4182e9d2acec1cd24137a3a5f2267dde" target="_top" xlink:title=" ">
<polygon fill="none" stroke="#000000" points="0,-49.5 0,-79.5 111,-79.5 111,-49.5 0,-49.5"/>
<text text-anchor="start" x="8" y="-67.5" font-family="Helvetica,sans-Serif" font-size="10.00" fill="#000000">rng_par_zig::rng_exp</text>
<text text-anchor="middle" x="55.5" y="-56.5" font-family="Helvetica,sans-Serif" font-size="10.00" fill="#000000">::rng_rexp_32_ser</text>
</a>
</g>
</g>
<!-- Node1&#45;&gt;Node3 -->
<g id="edge2" class="edge">
<title>Node1&#45;&gt;Node3</title>
<path fill="none" stroke="#191970" d="M136.4201,-64.5C128.0152,-64.5 119.4953,-64.5 111.296,-64.5"/>
<polygon fill="#191970" stroke="#191970" points="136.5861,-68.0001 146.586,-64.5 136.586,-61.0001 136.5861,-68.0001"/>
</g>
<!-- Node4 -->
<g id="node4" class="node">
<title>Node4</title>
<g id="a_node4"><a xlink:href="interfacerng__par__zig_1_1rng__exp.html#a8236c8aa71027e341c584341fdea4306" target="_top" xlink:title=" ">
<polygon fill="none" stroke="#000000" points="0,-.5 0,-30.5 111,-30.5 111,-.5 0,-.5"/>
<text text-anchor="start" x="8" y="-18.5" font-family="Helvetica,sans-Serif" font-size="10.00" fill="#000000">rng_par_zig::rng_exp</text>
<text text-anchor="middle" x="55.5" y="-7.5" font-family="Helvetica,sans-Serif" font-size="10.00" fill="#000000">::rng_rexp_ser</text>
</a>
</g>
</g>
<!-- Node1&#45;&gt;Node4 -->
<g id="edge3" class="edge">
<title>Node1&#45;&gt;Node4</title>
<path fill="none" stroke="#191970" d="M165.4499,-51.7798C145.7602,-45.2828 121.6751,-37.3355 101.0712,-30.537"/>
<polygon fill="#191970" stroke="#191970" points="164.422,-55.1262 175.0152,-54.936 166.6155,-48.4787 164.422,-55.1262"/>
</g>
</g>
</svg>
