<?xml version="1.0" encoding="UTF-8" standalone="no"?>
<!DOCTYPE svg PUBLIC "-//W3C//DTD SVG 1.1//EN"
 "http://www.w3.org/Graphics/SVG/1.1/DTD/svg11.dtd">
<!-- Generated by graphviz version 2.40.1 (20161225.0304)
 -->
<!-- Title: partfun_mod::evolvelist Pages: 1 -->
<svg width="287pt" height="57pt"
 viewBox="0.00 0.00 287.00 57.00" xmlns="http://www.w3.org/2000/svg" xmlns:xlink="http://www.w3.org/1999/xlink">
<g id="graph0" class="graph" transform="scale(1 1) rotate(0) translate(4 53)">
<title>partfun_mod::evolvelist</title>
<!-- Node1 -->
<g id="node1" class="node">
<title>Node1</title>
<g id="a_node1"><a xlink:title=" ">
<polygon fill="#bfbfbf" stroke="#000000" points="0,-6 0,-25 119,-25 119,-6 0,-6"/>
<text text-anchor="middle" x="59.5" y="-13" font-family="Helvetica,sans-Serif" font-size="10.00" fill="#000000">partfun_mod::evolvelist</text>
</a>
</g>
</g>
<!-- Node2 -->
<g id="node2" class="node">
<title>Node2</title>
<g id="a_node2"><a xlink:href="namespacelagrangian__motion__mod.html#a6eb662434569d4e32c8a65043f196c90" target="_top" xlink:title=" ">
<polygon fill="none" stroke="#000000" points="155,-.5 155,-30.5 279,-30.5 279,-.5 155,-.5"/>
<text text-anchor="start" x="163" y="-18.5" font-family="Helvetica,sans-Serif" font-size="10.00" fill="#000000">lagrangian_motion_mod</text>
<text text-anchor="middle" x="217" y="-7.5" font-family="Helvetica,sans-Serif" font-size="10.00" fill="#000000">::update</text>
</a>
</g>
</g>
<!-- Node1&#45;&gt;Node2 -->
<g id="edge1" class="edge">
<title>Node1&#45;&gt;Node2</title>
<path fill="none" stroke="#191970" d="M119.044,-15.5C127.434,-15.5 136.1337,-15.5 144.7297,-15.5"/>
<polygon fill="#191970" stroke="#191970" points="144.7483,-19.0001 154.7483,-15.5 144.7483,-12.0001 144.7483,-19.0001"/>
</g>
<!-- Node2&#45;&gt;Node2 -->
<g id="edge2" class="edge">
<title>Node2&#45;&gt;Node2</title>
<path fill="none" stroke="#191970" d="M189.8138,-30.659C183.2582,-40.0566 192.3203,-49 217,-49 232.0392,-49 241.279,-45.679 244.7193,-40.9579"/>
<polygon fill="#191970" stroke="#191970" points="248.1986,-40.4647 244.1862,-30.659 241.2079,-40.8266 248.1986,-40.4647"/>
</g>
</g>
</svg>
