<?xml version="1.0" encoding="UTF-8" standalone="no"?>
<!DOCTYPE svg PUBLIC "-//W3C//DTD SVG 1.1//EN"
 "http://www.w3.org/Graphics/SVG/1.1/DTD/svg11.dtd">
<!-- Generated by graphviz version 2.40.1 (20161225.0304)
 -->
<!-- Title: partfun_mod::generatezoo Pages: 1 -->
<svg width="478pt" height="115pt"
 viewBox="0.00 0.00 478.00 114.50" xmlns="http://www.w3.org/2000/svg" xmlns:xlink="http://www.w3.org/1999/xlink">
<g id="graph0" class="graph" transform="scale(1 1) rotate(0) translate(4 110.5)">
<title>partfun_mod::generatezoo</title>
<!-- Node1 -->
<g id="node1" class="node">
<title>Node1</title>
<g id="a_node1"><a xlink:title=" ">
<polygon fill="#bfbfbf" stroke="#000000" points="0,-68 0,-87 134,-87 134,-68 0,-68"/>
<text text-anchor="middle" x="67" y="-75" font-family="Helvetica,sans-Serif" font-size="10.00" fill="#000000">partfun_mod::generatezoo</text>
</a>
</g>
</g>
<!-- Node2 -->
<g id="node2" class="node">
<title>Node2</title>
<g id="a_node2"><a xlink:href="def__domain_8f90.html#ab057fe3bd904effd74da6533cb12b017" target="_top" xlink:title=" ">
<polygon fill="none" stroke="#000000" points="378.5,-87 378.5,-106 421.5,-106 421.5,-87 378.5,-87"/>
<text text-anchor="middle" x="400" y="-94" font-family="Helvetica,sans-Serif" font-size="10.00" fill="#000000">cday2</text>
</a>
</g>
</g>
<!-- Node1&#45;&gt;Node2 -->
<g id="edge1" class="edge">
<title>Node1&#45;&gt;Node2</title>
<path fill="none" stroke="#191970" d="M108.8548,-87.0112C127.469,-90.7765 149.719,-94.6451 170,-96.5 240.5324,-102.951 323.7413,-100.4626 368.1998,-98.3255"/>
<polygon fill="#191970" stroke="#191970" points="368.5679,-101.8115 378.3777,-97.8093 368.2133,-94.8204 368.5679,-101.8115"/>
</g>
<!-- Node3 -->
<g id="node3" class="node">
<title>Node3</title>
<g id="a_node3"><a xlink:href="def__domain_8f90.html#aae31ca494afac027b938401c0d53290d" target="_top" xlink:title=" ">
<polygon fill="none" stroke="#000000" points="205.5,-68 205.5,-87 258.5,-87 258.5,-68 205.5,-68"/>
<text text-anchor="middle" x="232" y="-75" font-family="Helvetica,sans-Serif" font-size="10.00" fill="#000000">update2</text>
</a>
</g>
</g>
<!-- Node1&#45;&gt;Node3 -->
<g id="edge2" class="edge">
<title>Node1&#45;&gt;Node3</title>
<path fill="none" stroke="#191970" d="M134.1118,-77.5C154.9951,-77.5 177.2422,-77.5 195.2419,-77.5"/>
<polygon fill="#191970" stroke="#191970" points="195.3066,-81.0001 205.3065,-77.5 195.3065,-74.0001 195.3066,-81.0001"/>
</g>
<!-- Node4 -->
<g id="node4" class="node">
<title>Node4</title>
<g id="a_node4"><a xlink:href="namespacelagrangian__motion__mod.html#ab080e0246757af1269e28d8945c31343" target="_top" xlink:title=" ">
<polygon fill="none" stroke="#000000" points="170,-.5 170,-30.5 294,-30.5 294,-.5 170,-.5"/>
<text text-anchor="start" x="178" y="-18.5" font-family="Helvetica,sans-Serif" font-size="10.00" fill="#000000">lagrangian_motion_mod</text>
<text text-anchor="middle" x="232" y="-7.5" font-family="Helvetica,sans-Serif" font-size="10.00" fill="#000000">::vert_mig</text>
</a>
</g>
</g>
<!-- Node1&#45;&gt;Node4 -->
<g id="edge4" class="edge">
<title>Node1&#45;&gt;Node4</title>
<path fill="none" stroke="#191970" d="M92.4196,-67.9484C116.3197,-58.9677 152.7556,-45.2767 182.408,-34.1346"/>
<polygon fill="#191970" stroke="#191970" points="183.6427,-37.4096 191.7725,-30.6158 181.1804,-30.857 183.6427,-37.4096"/>
</g>
<!-- Node3&#45;&gt;Node2 -->
<g id="edge3" class="edge">
<title>Node3&#45;&gt;Node2</title>
<path fill="none" stroke="#191970" d="M258.6201,-80.5106C288.379,-83.8762 336.5429,-89.3233 368.2434,-92.9085"/>
<polygon fill="#191970" stroke="#191970" points="367.9825,-96.4012 378.3125,-94.0472 368.7692,-89.4455 367.9825,-96.4012"/>
</g>
<!-- Node4&#45;&gt;Node4 -->
<g id="edge7" class="edge">
<title>Node4&#45;&gt;Node4</title>
<path fill="none" stroke="#191970" d="M203.4196,-30.659C196.5279,-40.0566 206.0547,-49 232,-49 247.8104,-49 257.524,-45.679 261.1408,-40.9579"/>
<polygon fill="#191970" stroke="#191970" points="264.6187,-40.454 260.5804,-30.659 257.629,-40.8344 264.6187,-40.454"/>
</g>
<!-- Node5 -->
<g id="node5" class="node">
<title>Node5</title>
<g id="a_node5"><a xlink:href="namespacelagrangian__motion__mod.html#a05a378805d8ab77b9d2400c9d83c8e86" target="_top" xlink:title=" ">
<polygon fill="none" stroke="#000000" points="330,-6 330,-25 470,-25 470,-6 330,-6"/>
<text text-anchor="middle" x="400" y="-13" font-family="Helvetica,sans-Serif" font-size="10.00" fill="#000000">lagrangian_motion_mod::ou</text>
</a>
</g>
</g>
<!-- Node4&#45;&gt;Node5 -->
<g id="edge5" class="edge">
<title>Node4&#45;&gt;Node5</title>
<path fill="none" stroke="#191970" d="M294.0797,-15.5C302.4774,-15.5 311.1895,-15.5 319.8469,-15.5"/>
<polygon fill="#191970" stroke="#191970" points="319.9628,-19.0001 329.9627,-15.5 319.9627,-12.0001 319.9628,-19.0001"/>
</g>
<!-- Node5&#45;&gt;Node5 -->
<g id="edge6" class="edge">
<title>Node5&#45;&gt;Node5</title>
<path fill="none" stroke="#191970" d="M374.1063,-25.2571C361.5094,-34.0653 370.1406,-43.5 400,-43.5 420.0618,-43.5 430.5408,-39.241 431.4371,-33.7746"/>
<polygon fill="#191970" stroke="#191970" points="434.2819,-31.7291 425.8937,-25.2571 428.415,-35.5475 434.2819,-31.7291"/>
</g>
</g>
</svg>
