<?xml version="1.0" encoding="UTF-8" standalone="no"?>
<!DOCTYPE svg PUBLIC "-//W3C//DTD SVG 1.1//EN"
 "http://www.w3.org/Graphics/SVG/1.1/DTD/svg11.dtd">
<!-- Generated by graphviz version 2.40.1 (20161225.0304)
 -->
<!-- Title: partfun_mod::generatekrill Pages: 1 -->
<svg width="477pt" height="115pt"
 viewBox="0.00 0.00 477.00 114.50" xmlns="http://www.w3.org/2000/svg" xmlns:xlink="http://www.w3.org/1999/xlink">
<g id="graph0" class="graph" transform="scale(1 1) rotate(0) translate(4 110.5)">
<title>partfun_mod::generatekrill</title>
<!-- Node1 -->
<g id="node1" class="node">
<title>Node1</title>
<g id="a_node1"><a xlink:title=" ">
<polygon fill="#bfbfbf" stroke="#000000" points="0,-68 0,-87 133,-87 133,-68 0,-68"/>
<text text-anchor="middle" x="66.5" y="-75" font-family="Helvetica,sans-Serif" font-size="10.00" fill="#000000">partfun_mod::generatekrill</text>
</a>
</g>
</g>
<!-- Node2 -->
<g id="node2" class="node">
<title>Node2</title>
<g id="a_node2"><a xlink:href="def__domain_8f90.html#ab057fe3bd904effd74da6533cb12b017" target="_top" xlink:title=" ">
<polygon fill="none" stroke="#000000" points="377.5,-87 377.5,-106 420.5,-106 420.5,-87 377.5,-87"/>
<text text-anchor="middle" x="399" y="-94" font-family="Helvetica,sans-Serif" font-size="10.00" fill="#000000">cday2</text>
</a>
</g>
</g>
<!-- Node1&#45;&gt;Node2 -->
<g id="edge1" class="edge">
<title>Node1&#45;&gt;Node2</title>
<path fill="none" stroke="#191970" d="M108.1493,-87.0112C126.6727,-90.7764 148.815,-94.645 169,-96.5 239.5296,-102.9817 322.7395,-100.4814 367.199,-98.3342"/>
<polygon fill="#191970" stroke="#191970" points="367.5683,-101.82 377.3772,-97.8155 367.212,-94.8291 367.5683,-101.82"/>
</g>
<!-- Node3 -->
<g id="node3" class="node">
<title>Node3</title>
<g id="a_node3"><a xlink:href="def__domain_8f90.html#aae31ca494afac027b938401c0d53290d" target="_top" xlink:title=" ">
<polygon fill="none" stroke="#000000" points="204.5,-68 204.5,-87 257.5,-87 257.5,-68 204.5,-68"/>
<text text-anchor="middle" x="231" y="-75" font-family="Helvetica,sans-Serif" font-size="10.00" fill="#000000">update2</text>
</a>
</g>
</g>
<!-- Node1&#45;&gt;Node3 -->
<g id="edge2" class="edge">
<title>Node1&#45;&gt;Node3</title>
<path fill="none" stroke="#191970" d="M133.4084,-77.5C154.2285,-77.5 176.4082,-77.5 194.3532,-77.5"/>
<polygon fill="#191970" stroke="#191970" points="194.3874,-81.0001 204.3874,-77.5 194.3874,-74.0001 194.3874,-81.0001"/>
</g>
<!-- Node4 -->
<g id="node4" class="node">
<title>Node4</title>
<g id="a_node4"><a xlink:href="namespacelagrangian__motion__mod.html#ab080e0246757af1269e28d8945c31343" target="_top" xlink:title=" ">
<polygon fill="none" stroke="#000000" points="169,-.5 169,-30.5 293,-30.5 293,-.5 169,-.5"/>
<text text-anchor="start" x="177" y="-18.5" font-family="Helvetica,sans-Serif" font-size="10.00" fill="#000000">lagrangian_motion_mod</text>
<text text-anchor="middle" x="231" y="-7.5" font-family="Helvetica,sans-Serif" font-size="10.00" fill="#000000">::vert_mig</text>
</a>
</g>
</g>
<!-- Node1&#45;&gt;Node4 -->
<g id="edge4" class="edge">
<title>Node1&#45;&gt;Node4</title>
<path fill="none" stroke="#191970" d="M91.8426,-67.9484C115.5671,-59.0066 151.6815,-45.3951 181.1739,-34.2794"/>
<polygon fill="#191970" stroke="#191970" points="182.7714,-37.4178 190.8944,-30.6158 180.3025,-30.8676 182.7714,-37.4178"/>
</g>
<!-- Node3&#45;&gt;Node2 -->
<g id="edge3" class="edge">
<title>Node3&#45;&gt;Node2</title>
<path fill="none" stroke="#191970" d="M257.6201,-80.5106C287.379,-83.8762 335.5429,-89.3233 367.2434,-92.9085"/>
<polygon fill="#191970" stroke="#191970" points="366.9825,-96.4012 377.3125,-94.0472 367.7692,-89.4455 366.9825,-96.4012"/>
</g>
<!-- Node4&#45;&gt;Node4 -->
<g id="edge7" class="edge">
<title>Node4&#45;&gt;Node4</title>
<path fill="none" stroke="#191970" d="M202.4196,-30.659C195.5279,-40.0566 205.0547,-49 231,-49 246.8104,-49 256.524,-45.679 260.1408,-40.9579"/>
<polygon fill="#191970" stroke="#191970" points="263.6187,-40.454 259.5804,-30.659 256.629,-40.8344 263.6187,-40.454"/>
</g>
<!-- Node5 -->
<g id="node5" class="node">
<title>Node5</title>
<g id="a_node5"><a xlink:href="namespacelagrangian__motion__mod.html#a05a378805d8ab77b9d2400c9d83c8e86" target="_top" xlink:title=" ">
<polygon fill="none" stroke="#000000" points="329,-6 329,-25 469,-25 469,-6 329,-6"/>
<text text-anchor="middle" x="399" y="-13" font-family="Helvetica,sans-Serif" font-size="10.00" fill="#000000">lagrangian_motion_mod::ou</text>
</a>
</g>
</g>
<!-- Node4&#45;&gt;Node5 -->
<g id="edge5" class="edge">
<title>Node4&#45;&gt;Node5</title>
<path fill="none" stroke="#191970" d="M293.0797,-15.5C301.4774,-15.5 310.1895,-15.5 318.8469,-15.5"/>
<polygon fill="#191970" stroke="#191970" points="318.9628,-19.0001 328.9627,-15.5 318.9627,-12.0001 318.9628,-19.0001"/>
</g>
<!-- Node5&#45;&gt;Node5 -->
<g id="edge6" class="edge">
<title>Node5&#45;&gt;Node5</title>
<path fill="none" stroke="#191970" d="M373.1063,-25.2571C360.5094,-34.0653 369.1406,-43.5 399,-43.5 419.0618,-43.5 429.5408,-39.241 430.4371,-33.7746"/>
<polygon fill="#191970" stroke="#191970" points="433.2819,-31.7291 424.8937,-25.2571 427.415,-35.5475 433.2819,-31.7291"/>
</g>
</g>
</svg>
