<?xml version="1.0" encoding="UTF-8" standalone="no"?>
<!DOCTYPE svg PUBLIC "-//W3C//DTD SVG 1.1//EN"
 "http://www.w3.org/Graphics/SVG/1.1/DTD/svg11.dtd">
<!-- Generated by graphviz version 2.40.1 (20161225.0304)
 -->
<!-- Title: opa_get_xy_ll::geproj_dist Pages: 1 -->
<svg width="417pt" height="46pt"
 viewBox="0.00 0.00 417.00 46.00" xmlns="http://www.w3.org/2000/svg" xmlns:xlink="http://www.w3.org/1999/xlink">
<g id="graph0" class="graph" transform="scale(1 1) rotate(0) translate(4 42)">
<title>opa_get_xy_ll::geproj_dist</title>
<!-- Node1 -->
<g id="node1" class="node">
<title>Node1</title>
<g id="a_node1"><a xlink:title=" ">
<polygon fill="#bfbfbf" stroke="#000000" points="276,-.5 276,-19.5 409,-19.5 409,-.5 276,-.5"/>
<text text-anchor="middle" x="342.5" y="-7.5" font-family="Helvetica,sans-Serif" font-size="10.00" fill="#000000">opa_get_xy_ll::geproj_dist</text>
</a>
</g>
</g>
<!-- Node1&#45;&gt;Node1 -->
<g id="edge1" class="edge">
<title>Node1&#45;&gt;Node1</title>
<path fill="none" stroke="#191970" d="M373.1886,-28.2746C372.3136,-33.741 362.0841,-38 342.5,-38 313.3516,-38 304.9258,-28.5653 317.2228,-19.7571"/>
<polygon fill="#191970" stroke="#191970" points="376.094,-26.3207 367.7772,-19.7571 370.1856,-30.0745 376.094,-26.3207"/>
</g>
<!-- Node2 -->
<g id="node2" class="node">
<title>Node2</title>
<g id="a_node2"><a xlink:href="namespaceopa__get__xy__ll.html#a450d79f285a6110f35f4753e9014549d" target="_top" xlink:title=" ">
<polygon fill="none" stroke="#000000" points="117,-.5 117,-19.5 240,-19.5 240,-.5 117,-.5"/>
<text text-anchor="middle" x="178.5" y="-7.5" font-family="Helvetica,sans-Serif" font-size="10.00" fill="#000000">opa_get_xy_ll::opa_proj</text>
</a>
</g>
</g>
<!-- Node1&#45;&gt;Node2 -->
<g id="edge2" class="edge">
<title>Node1&#45;&gt;Node2</title>
<path fill="none" stroke="#191970" d="M265.7622,-10C257.1662,-10 248.4927,-10 240.1217,-10"/>
<polygon fill="#191970" stroke="#191970" points="265.795,-13.5001 275.7949,-10 265.7949,-6.5001 265.795,-13.5001"/>
</g>
<!-- Node3 -->
<g id="node3" class="node">
<title>Node3</title>
<g id="a_node3"><a xlink:href="ll__to__xy___n_e_m_o_8f90.html#a41ff21c334a4e35b119706158d745909" target="_top" xlink:title=" ">
<polygon fill="none" stroke="#000000" points="0,-.5 0,-19.5 81,-19.5 81,-.5 0,-.5"/>
<text text-anchor="middle" x="40.5" y="-7.5" font-family="Helvetica,sans-Serif" font-size="10.00" fill="#000000">ll_to_xy_nemo</text>
</a>
</g>
</g>
<!-- Node2&#45;&gt;Node3 -->
<g id="edge3" class="edge">
<title>Node2&#45;&gt;Node3</title>
<path fill="none" stroke="#191970" d="M106.555,-10C97.8535,-10 89.2146,-10 81.1931,-10"/>
<polygon fill="#191970" stroke="#191970" points="106.7654,-13.5001 116.7654,-10 106.7653,-6.5001 106.7654,-13.5001"/>
</g>
</g>
</svg>
