<?xml version="1.0" encoding="UTF-8" standalone="no"?>
<!DOCTYPE svg PUBLIC "-//W3C//DTD SVG 1.1//EN"
 "http://www.w3.org/Graphics/SVG/1.1/DTD/svg11.dtd">
<!-- Generated by graphviz version 2.40.1 (20161225.0304)
 -->
<!-- Title: opa_get_xy_ll::opa_proj Pages: 1 -->
<svg width="300pt" height="96pt"
 viewBox="0.00 0.00 300.00 95.50" xmlns="http://www.w3.org/2000/svg" xmlns:xlink="http://www.w3.org/1999/xlink">
<g id="graph0" class="graph" transform="scale(1 1) rotate(0) translate(4 91.5)">
<title>opa_get_xy_ll::opa_proj</title>
<!-- Node1 -->
<g id="node1" class="node">
<title>Node1</title>
<g id="a_node1"><a xlink:title=" ">
<polygon fill="#bfbfbf" stroke="#000000" points="0,-28 0,-47 123,-47 123,-28 0,-28"/>
<text text-anchor="middle" x="61.5" y="-35" font-family="Helvetica,sans-Serif" font-size="10.00" fill="#000000">opa_get_xy_ll::opa_proj</text>
</a>
</g>
</g>
<!-- Node2 -->
<g id="node2" class="node">
<title>Node2</title>
<g id="a_node2"><a xlink:href="namespaceopa__get__xy__ll.html#aab28c31f3c08390c180311d6d70a85b8" target="_top" xlink:title=" ">
<polygon fill="none" stroke="#000000" points="159,-50 159,-69 292,-69 292,-50 159,-50"/>
<text text-anchor="middle" x="225.5" y="-57" font-family="Helvetica,sans-Serif" font-size="10.00" fill="#000000">opa_get_xy_ll::geproj_dist</text>
</a>
</g>
</g>
<!-- Node1&#45;&gt;Node2 -->
<g id="edge1" class="edge">
<title>Node1&#45;&gt;Node2</title>
<path fill="none" stroke="#191970" d="M123.0341,-45.7546C131.4613,-46.8851 140.1966,-48.0569 148.8521,-49.218"/>
<polygon fill="#191970" stroke="#191970" points="148.5763,-52.7122 158.9529,-50.5729 149.507,-45.7744 148.5763,-52.7122"/>
</g>
<!-- Node3 -->
<g id="node3" class="node">
<title>Node3</title>
<g id="a_node3"><a xlink:href="namespaceopa__get__xy__ll.html#a724d1c8c7282144a1367ee24d183b3d9" target="_top" xlink:title=" ">
<polygon fill="none" stroke="#000000" points="175.5,-.5 175.5,-30.5 275.5,-30.5 275.5,-.5 175.5,-.5"/>
<text text-anchor="start" x="183.5" y="-18.5" font-family="Helvetica,sans-Serif" font-size="10.00" fill="#000000">opa_get_xy_ll::opa</text>
<text text-anchor="middle" x="225.5" y="-7.5" font-family="Helvetica,sans-Serif" font-size="10.00" fill="#000000">_proj_init</text>
</a>
</g>
</g>
<!-- Node1&#45;&gt;Node3 -->
<g id="edge3" class="edge">
<title>Node1&#45;&gt;Node3</title>
<path fill="none" stroke="#191970" d="M123.0341,-29.2454C136.7955,-27.3994 151.3783,-25.4432 165.0934,-23.6033"/>
<polygon fill="#191970" stroke="#191970" points="165.9384,-27.0214 175.3843,-22.2228 165.0077,-20.0836 165.9384,-27.0214"/>
</g>
<!-- Node2&#45;&gt;Node2 -->
<g id="edge2" class="edge">
<title>Node2&#45;&gt;Node2</title>
<path fill="none" stroke="#191970" d="M200.2228,-69.2571C187.9258,-78.0653 196.3516,-87.5 225.5,-87.5 245.0841,-87.5 255.3136,-83.241 256.1886,-77.7746"/>
<polygon fill="#191970" stroke="#191970" points="259.094,-75.8207 250.7772,-69.2571 253.1856,-79.5745 259.094,-75.8207"/>
</g>
</g>
</svg>
