<?xml version="1.0" encoding="UTF-8" standalone="no"?>
<!DOCTYPE svg PUBLIC "-//W3C//DTD SVG 1.1//EN"
 "http://www.w3.org/Graphics/SVG/1.1/DTD/svg11.dtd">
<!-- Generated by graphviz version 2.42.3 (20191010.1750)
 -->
<!-- Title: partclass_mod::get_adj_arr Pages: 1 -->
<svg width="268pt" height="57pt"
 viewBox="0.00 0.00 268.00 57.00" xmlns="http://www.w3.org/2000/svg" xmlns:xlink="http://www.w3.org/1999/xlink">
<g id="graph0" class="graph" transform="scale(1 1) rotate(0) translate(4 53)">
<title>partclass_mod::get_adj_arr</title>
<!-- Node1 -->
<g id="node1" class="node">
<title>Node1</title>
<g id="a_node1"><a xlink:title=" ">
<polygon fill="#bfbfbf" stroke="black" points="0,-0.5 0,-30.5 100,-30.5 100,-0.5 0,-0.5"/>
<text text-anchor="start" x="8" y="-18.5" font-family="Helvetica,sans-Serif" font-size="10.00">partclass_mod::get</text>
<text text-anchor="middle" x="50" y="-7.5" font-family="Helvetica,sans-Serif" font-size="10.00">_adj_arr</text>
</a>
</g>
</g>
<!-- Node1&#45;&gt;Node1 -->
<g id="edge1" class="edge">
<title>Node1&#45;&gt;Node1</title>
<path fill="none" stroke="midnightblue" d="M24.21,-30.66C17.99,-40.06 26.59,-49 50,-49 64.27,-49 73.03,-45.68 76.3,-40.96"/>
<polygon fill="midnightblue" stroke="midnightblue" points="79.78,-40.48 75.79,-30.66 72.79,-40.82 79.78,-40.48"/>
</g>
<!-- Node2 -->
<g id="node2" class="node">
<title>Node2</title>
<g id="a_node2"><a xlink:href="namespacepartclass__mod.html#a6219467ddc0674a28992392e4ea2c8fd" target="_top" xlink:title=" ">
<polygon fill="none" stroke="black" points="136,-6 136,-25 260,-25 260,-6 136,-6"/>
<text text-anchor="middle" x="198" y="-13" font-family="Helvetica,sans-Serif" font-size="10.00">partclass_mod::get_resp</text>
</a>
</g>
</g>
<!-- Node1&#45;&gt;Node2 -->
<g id="edge2" class="edge">
<title>Node1&#45;&gt;Node2</title>
<path fill="none" stroke="midnightblue" d="M100.02,-15.5C108.3,-15.5 117.04,-15.5 125.74,-15.5"/>
<polygon fill="midnightblue" stroke="midnightblue" points="125.92,-19 135.92,-15.5 125.92,-12 125.92,-19"/>
</g>
</g>
</svg>
