<?xml version="1.0" encoding="UTF-8" standalone="no"?>
<!DOCTYPE svg PUBLIC "-//W3C//DTD SVG 1.1//EN"
 "http://www.w3.org/Graphics/SVG/1.1/DTD/svg11.dtd">
<!-- Generated by graphviz version 2.40.1 (20161225.0304)
 -->
<!-- Title: partlist_mod::netcdfpart Pages: 1 -->
<svg width="518pt" height="39pt"
 viewBox="0.00 0.00 518.00 39.00" xmlns="http://www.w3.org/2000/svg" xmlns:xlink="http://www.w3.org/1999/xlink">
<g id="graph0" class="graph" transform="scale(1 1) rotate(0) translate(4 35)">
<title>partlist_mod::netcdfpart</title>
<!-- Node1 -->
<g id="node1" class="node">
<title>Node1</title>
<g id="a_node1"><a xlink:title=" ">
<polygon fill="#bfbfbf" stroke="#000000" points="0,-6 0,-25 121,-25 121,-6 0,-6"/>
<text text-anchor="middle" x="60.5" y="-13" font-family="Helvetica,sans-Serif" font-size="10.00" fill="#000000">partlist_mod::netcdfpart</text>
</a>
</g>
</g>
<!-- Node2 -->
<g id="node2" class="node">
<title>Node2</title>
<g id="a_node2"><a xlink:href="ll__to__xy___n_e_m_o_8f90.html#a361aea69ed30ab8f58c8e83a20fb7fca" target="_top" xlink:title=" ">
<polygon fill="none" stroke="#000000" points="157,-6 157,-25 238,-25 238,-6 157,-6"/>
<text text-anchor="middle" x="197.5" y="-13" font-family="Helvetica,sans-Serif" font-size="10.00" fill="#000000">xy_to_ll_nemo</text>
</a>
</g>
</g>
<!-- Node1&#45;&gt;Node2 -->
<g id="edge1" class="edge">
<title>Node1&#45;&gt;Node2</title>
<path fill="none" stroke="#191970" d="M121.388,-15.5C129.8297,-15.5 138.4274,-15.5 146.6599,-15.5"/>
<polygon fill="#191970" stroke="#191970" points="146.8533,-19.0001 156.8532,-15.5 146.8532,-12.0001 146.8533,-19.0001"/>
</g>
<!-- Node3 -->
<g id="node3" class="node">
<title>Node3</title>
<g id="a_node3"><a xlink:href="namespaceopa__get__xy__ll.html#a0f65a5855703adce1d005a8b3d35c6b9" target="_top" xlink:title=" ">
<polygon fill="none" stroke="#000000" points="274,-.5 274,-30.5 374,-30.5 374,-.5 274,-.5"/>
<text text-anchor="start" x="282" y="-18.5" font-family="Helvetica,sans-Serif" font-size="10.00" fill="#000000">opa_get_xy_ll::opa</text>
<text text-anchor="middle" x="324" y="-7.5" font-family="Helvetica,sans-Serif" font-size="10.00" fill="#000000">_proj_inv</text>
</a>
</g>
</g>
<!-- Node2&#45;&gt;Node3 -->
<g id="edge2" class="edge">
<title>Node2&#45;&gt;Node3</title>
<path fill="none" stroke="#191970" d="M238.2217,-15.5C246.3201,-15.5 254.9853,-15.5 263.5806,-15.5"/>
<polygon fill="#191970" stroke="#191970" points="263.6006,-19.0001 273.6006,-15.5 263.6006,-12.0001 263.6006,-19.0001"/>
</g>
<!-- Node4 -->
<g id="node4" class="node">
<title>Node4</title>
<g id="a_node4"><a xlink:href="namespaceopa__get__xy__ll.html#a724d1c8c7282144a1367ee24d183b3d9" target="_top" xlink:title=" ">
<polygon fill="none" stroke="#000000" points="410,-.5 410,-30.5 510,-30.5 510,-.5 410,-.5"/>
<text text-anchor="start" x="418" y="-18.5" font-family="Helvetica,sans-Serif" font-size="10.00" fill="#000000">opa_get_xy_ll::opa</text>
<text text-anchor="middle" x="460" y="-7.5" font-family="Helvetica,sans-Serif" font-size="10.00" fill="#000000">_proj_init</text>
</a>
</g>
</g>
<!-- Node3&#45;&gt;Node4 -->
<g id="edge3" class="edge">
<title>Node3&#45;&gt;Node4</title>
<path fill="none" stroke="#191970" d="M374.255,-15.5C382.5393,-15.5 391.2014,-15.5 399.701,-15.5"/>
<polygon fill="#191970" stroke="#191970" points="399.9516,-19.0001 409.9516,-15.5 399.9515,-12.0001 399.9516,-19.0001"/>
</g>
</g>
</svg>
