<?xml version="1.0" encoding="UTF-8" standalone="no"?>
<!DOCTYPE svg PUBLIC "-//W3C//DTD SVG 1.1//EN"
 "http://www.w3.org/Graphics/SVG/1.1/DTD/svg11.dtd">
<!-- Generated by graphviz version 2.42.3 (20191010.1750)
 -->
<!-- Title: opa_get_xy_ll::opa_proj_init Pages: 1 -->
<svg width="670pt" height="78pt"
 viewBox="0.00 0.00 670.00 77.50" xmlns="http://www.w3.org/2000/svg" xmlns:xlink="http://www.w3.org/1999/xlink">
<g id="graph0" class="graph" transform="scale(1 1) rotate(0) translate(4 73.5)">
<title>opa_get_xy_ll::opa_proj_init</title>
<!-- Node1 -->
<g id="node1" class="node">
<title>Node1</title>
<g id="a_node1"><a xlink:title=" ">
<polygon fill="#bfbfbf" stroke="black" points="564,-22.5 564,-52.5 662,-52.5 662,-22.5 564,-22.5"/>
<text text-anchor="start" x="572" y="-40.5" font-family="Helvetica,sans-Serif" font-size="10.00">opa_get_xy_ll::opa</text>
<text text-anchor="middle" x="613" y="-29.5" font-family="Helvetica,sans-Serif" font-size="10.00">_proj_init</text>
</a>
</g>
</g>
<!-- Node2 -->
<g id="node2" class="node">
<title>Node2</title>
<g id="a_node2"><a xlink:href="namespaceopa__get__xy__ll.html#a450d79f285a6110f35f4753e9014549d" target="_top" xlink:title=" ">
<polygon fill="none" stroke="black" points="409,-50 409,-69 528,-69 528,-50 409,-50"/>
<text text-anchor="middle" x="468.5" y="-57" font-family="Helvetica,sans-Serif" font-size="10.00">opa_get_xy_ll::opa_proj</text>
</a>
</g>
</g>
<!-- Node1&#45;&gt;Node2 -->
<g id="edge1" class="edge">
<title>Node1&#45;&gt;Node2</title>
<path fill="none" stroke="midnightblue" d="M553.62,-46.51C545.19,-47.81 536.5,-49.16 528.06,-50.46"/>
<polygon fill="midnightblue" stroke="midnightblue" points="554.41,-49.93 563.76,-44.95 553.34,-43.02 554.41,-49.93"/>
</g>
<!-- Node4 -->
<g id="node4" class="node">
<title>Node4</title>
<g id="a_node4"><a xlink:href="namespaceopa__get__xy__ll.html#a0f65a5855703adce1d005a8b3d35c6b9" target="_top" xlink:title=" ">
<polygon fill="none" stroke="black" points="419.5,-0.5 419.5,-30.5 517.5,-30.5 517.5,-0.5 419.5,-0.5"/>
<text text-anchor="start" x="427.5" y="-18.5" font-family="Helvetica,sans-Serif" font-size="10.00">opa_get_xy_ll::opa</text>
<text text-anchor="middle" x="468.5" y="-7.5" font-family="Helvetica,sans-Serif" font-size="10.00">_proj_inv</text>
</a>
</g>
</g>
<!-- Node1&#45;&gt;Node4 -->
<g id="edge3" class="edge">
<title>Node1&#45;&gt;Node4</title>
<path fill="none" stroke="midnightblue" d="M553.82,-28.52C541.82,-26.66 529.3,-24.73 517.69,-22.94"/>
<polygon fill="midnightblue" stroke="midnightblue" points="553.34,-31.98 563.76,-30.05 554.41,-25.07 553.34,-31.98"/>
</g>
<!-- Node3 -->
<g id="node3" class="node">
<title>Node3</title>
<g id="a_node3"><a xlink:href="ll__to__xy___n_e_m_o_8f90.html#a41ff21c334a4e35b119706158d745909" target="_top" xlink:title=" ">
<polygon fill="none" stroke="black" points="293,-50 293,-69 373,-69 373,-50 293,-50"/>
<text text-anchor="middle" x="333" y="-57" font-family="Helvetica,sans-Serif" font-size="10.00">ll_to_xy_nemo</text>
</a>
</g>
</g>
<!-- Node2&#45;&gt;Node3 -->
<g id="edge2" class="edge">
<title>Node2&#45;&gt;Node3</title>
<path fill="none" stroke="midnightblue" d="M398.73,-59.5C390.01,-59.5 381.34,-59.5 373.31,-59.5"/>
<polygon fill="midnightblue" stroke="midnightblue" points="398.94,-63 408.94,-59.5 398.94,-56 398.94,-63"/>
</g>
<!-- Node5 -->
<g id="node5" class="node">
<title>Node5</title>
<g id="a_node5"><a xlink:href="ll__to__xy___n_e_m_o_8f90.html#a361aea69ed30ab8f58c8e83a20fb7fca" target="_top" xlink:title=" ">
<polygon fill="none" stroke="black" points="293,-6 293,-25 373,-25 373,-6 293,-6"/>
<text text-anchor="middle" x="333" y="-13" font-family="Helvetica,sans-Serif" font-size="10.00">xy_to_ll_nemo</text>
</a>
</g>
</g>
<!-- Node4&#45;&gt;Node5 -->
<g id="edge4" class="edge">
<title>Node4&#45;&gt;Node5</title>
<path fill="none" stroke="midnightblue" d="M409.24,-15.5C397.11,-15.5 384.61,-15.5 373.35,-15.5"/>
<polygon fill="midnightblue" stroke="midnightblue" points="409.3,-19 419.3,-15.5 409.3,-12 409.3,-19"/>
</g>
<!-- Node6 -->
<g id="node6" class="node">
<title>Node6</title>
<g id="a_node6"><a xlink:href="namespacepartfun__mod.html#ae1b5e5475ed701229124bd9544c4587b" target="_top" xlink:title=" ">
<polygon fill="none" stroke="black" points="137,-6 137,-25 257,-25 257,-6 137,-6"/>
<text text-anchor="middle" x="197" y="-13" font-family="Helvetica,sans-Serif" font-size="10.00">partfun_mod::netcdfpart</text>
</a>
</g>
</g>
<!-- Node5&#45;&gt;Node6 -->
<g id="edge5" class="edge">
<title>Node5&#45;&gt;Node6</title>
<path fill="none" stroke="midnightblue" d="M282.61,-15.5C274.31,-15.5 265.62,-15.5 257.1,-15.5"/>
<polygon fill="midnightblue" stroke="midnightblue" points="282.88,-19 292.88,-15.5 282.88,-12 282.88,-19"/>
</g>
<!-- Node7 -->
<g id="node7" class="node">
<title>Node7</title>
<g id="a_node7"><a xlink:href="test__model__parallel_8f90.html#ac46b7f7a127dc5439a50d66d9b101f55" target="_top" xlink:title=" ">
<polygon fill="none" stroke="black" points="0,-6 0,-25 101,-25 101,-6 0,-6"/>
<text text-anchor="middle" x="50.5" y="-13" font-family="Helvetica,sans-Serif" font-size="10.00">test_model_parallel</text>
</a>
</g>
</g>
<!-- Node6&#45;&gt;Node7 -->
<g id="edge6" class="edge">
<title>Node6&#45;&gt;Node7</title>
<path fill="none" stroke="midnightblue" d="M126.73,-15.5C118.09,-15.5 109.4,-15.5 101.15,-15.5"/>
<polygon fill="midnightblue" stroke="midnightblue" points="126.81,-19 136.81,-15.5 126.81,-12 126.81,-19"/>
</g>
</g>
</svg>
