<?xml version="1.0" encoding="UTF-8" standalone="no"?>
<!DOCTYPE svg PUBLIC "-//W3C//DTD SVG 1.1//EN"
 "http://www.w3.org/Graphics/SVG/1.1/DTD/svg11.dtd">
<!-- Generated by graphviz version 2.40.1 (20161225.0304)
 -->
<!-- Title: lagrangian_motion_mod::update Pages: 1 -->
<svg width="449pt" height="116pt"
 viewBox="0.00 0.00 449.00 115.50" xmlns="http://www.w3.org/2000/svg" xmlns:xlink="http://www.w3.org/1999/xlink">
<g id="graph0" class="graph" transform="scale(1 1) rotate(0) translate(4 111.5)">
<title>lagrangian_motion_mod::update</title>
<!-- Node1 -->
<g id="node1" class="node">
<title>Node1</title>
<g id="a_node1"><a xlink:title=" ">
<polygon fill="#bfbfbf" stroke="#000000" points="317,-44.5 317,-74.5 441,-74.5 441,-44.5 317,-44.5"/>
<text text-anchor="start" x="325" y="-62.5" font-family="Helvetica,sans-Serif" font-size="10.00" fill="#000000">lagrangian_motion_mod</text>
<text text-anchor="middle" x="379" y="-51.5" font-family="Helvetica,sans-Serif" font-size="10.00" fill="#000000">::update</text>
</a>
</g>
</g>
<!-- Node1&#45;&gt;Node1 -->
<g id="edge7" class="edge">
<title>Node1&#45;&gt;Node1</title>
<path fill="none" stroke="#191970" d="M408.8516,-84.9579C405.1466,-89.679 395.196,-93 379,-93 352.4219,-93 342.6627,-84.0566 349.7225,-74.659"/>
<polygon fill="#191970" stroke="#191970" points="412.3287,-84.4487 408.2775,-74.659 405.3396,-84.8383 412.3287,-84.4487"/>
</g>
<!-- Node2 -->
<g id="node2" class="node">
<title>Node2</title>
<g id="a_node2"><a xlink:href="namespacepartfun__mod.html#a7c5f60fe12edbe34cc1c3ab8c2593abe" target="_top" xlink:title=" ">
<polygon fill="none" stroke="#000000" points="139,-88 139,-107 281,-107 281,-88 139,-88"/>
<text text-anchor="middle" x="210" y="-95" font-family="Helvetica,sans-Serif" font-size="10.00" fill="#000000">partfun_mod::evolvecalanus</text>
</a>
</g>
</g>
<!-- Node1&#45;&gt;Node2 -->
<g id="edge1" class="edge">
<title>Node1&#45;&gt;Node2</title>
<path fill="none" stroke="#191970" d="M306.6765,-75.7621C288.1805,-79.9209 268.8896,-84.2586 252.449,-87.9553"/>
<polygon fill="#191970" stroke="#191970" points="307.5622,-79.1504 316.5508,-73.5418 306.0265,-72.3209 307.5622,-79.1504"/>
</g>
<!-- Node4 -->
<g id="node4" class="node">
<title>Node4</title>
<g id="a_node4"><a xlink:href="namespacepartfun__mod.html#af6e7ce3f870cb63180da179b4cd8833c" target="_top" xlink:title=" ">
<polygon fill="none" stroke="#000000" points="149,-50 149,-69 271,-69 271,-50 149,-50"/>
<text text-anchor="middle" x="210" y="-57" font-family="Helvetica,sans-Serif" font-size="10.00" fill="#000000">partfun_mod::evolvekrill</text>
</a>
</g>
</g>
<!-- Node1&#45;&gt;Node4 -->
<g id="edge3" class="edge">
<title>Node1&#45;&gt;Node4</title>
<path fill="none" stroke="#191970" d="M306.3261,-59.5C294.5732,-59.5 282.5089,-59.5 271.067,-59.5"/>
<polygon fill="#191970" stroke="#191970" points="306.5508,-63.0001 316.5508,-59.5 306.5508,-56.0001 306.5508,-63.0001"/>
</g>
<!-- Node5 -->
<g id="node5" class="node">
<title>Node5</title>
<g id="a_node5"><a xlink:href="namespacelagrangian__motion__mod.html#a1191298a91ef0d1c00a23a54aca2e697" target="_top" xlink:title=" ">
<polygon fill="none" stroke="#000000" points="148,-.5 148,-30.5 272,-30.5 272,-.5 148,-.5"/>
<text text-anchor="start" x="156" y="-18.5" font-family="Helvetica,sans-Serif" font-size="10.00" fill="#000000">lagrangian_motion_mod</text>
<text text-anchor="middle" x="210" y="-7.5" font-family="Helvetica,sans-Serif" font-size="10.00" fill="#000000">::trajectory</text>
</a>
</g>
</g>
<!-- Node1&#45;&gt;Node5 -->
<g id="edge5" class="edge">
<title>Node1&#45;&gt;Node5</title>
<path fill="none" stroke="#191970" d="M311.4225,-41.9059C296.9457,-38.1368 281.778,-34.1878 267.7143,-30.5262"/>
<polygon fill="#191970" stroke="#191970" points="310.7532,-45.3482 321.3125,-44.4808 312.5169,-38.574 310.7532,-45.3482"/>
</g>
<!-- Node3 -->
<g id="node3" class="node">
<title>Node3</title>
<g id="a_node3"><a xlink:href="test__model__parallel_8f90.html#ac46b7f7a127dc5439a50d66d9b101f55" target="_top" xlink:title=" ">
<polygon fill="none" stroke="#000000" points="0,-50 0,-69 103,-69 103,-50 0,-50"/>
<text text-anchor="middle" x="51.5" y="-57" font-family="Helvetica,sans-Serif" font-size="10.00" fill="#000000">test_model_parallel</text>
</a>
</g>
</g>
<!-- Node2&#45;&gt;Node3 -->
<g id="edge2" class="edge">
<title>Node2&#45;&gt;Node3</title>
<path fill="none" stroke="#191970" d="M160.0809,-85.532C137.8696,-80.2069 112.0795,-74.0238 91.2086,-69.0201"/>
<polygon fill="#191970" stroke="#191970" points="159.4633,-88.9831 170.0038,-87.911 161.0953,-82.176 159.4633,-88.9831"/>
</g>
<!-- Node4&#45;&gt;Node3 -->
<g id="edge4" class="edge">
<title>Node4&#45;&gt;Node3</title>
<path fill="none" stroke="#191970" d="M138.3628,-59.5C126.4788,-59.5 114.3643,-59.5 103.1016,-59.5"/>
<polygon fill="#191970" stroke="#191970" points="138.7198,-63.0001 148.7198,-59.5 138.7197,-56.0001 138.7198,-63.0001"/>
</g>
<!-- Node5&#45;&gt;Node3 -->
<g id="edge6" class="edge">
<title>Node5&#45;&gt;Node3</title>
<path fill="none" stroke="#191970" d="M146.251,-33.1969C125.6704,-38.9101 103.6385,-45.0262 86.0036,-49.9217"/>
<polygon fill="#191970" stroke="#191970" points="147.1972,-36.5667 155.8966,-30.5192 145.3248,-29.8217 147.1972,-36.5667"/>
</g>
</g>
</svg>
