<?xml version="1.0" encoding="UTF-8" standalone="no"?>
<!DOCTYPE svg PUBLIC "-//W3C//DTD SVG 1.1//EN"
 "http://www.w3.org/Graphics/SVG/1.1/DTD/svg11.dtd">
<!-- Generated by graphviz version 2.40.1 (20161225.0304)
 -->
<!-- Title: lagrangian_motion_mod::ou Pages: 1 -->
<svg width="635pt" height="154pt"
 viewBox="0.00 0.00 635.00 153.50" xmlns="http://www.w3.org/2000/svg" xmlns:xlink="http://www.w3.org/1999/xlink">
<g id="graph0" class="graph" transform="scale(1 1) rotate(0) translate(4 149.5)">
<title>lagrangian_motion_mod::ou</title>
<!-- Node1 -->
<g id="node1" class="node">
<title>Node1</title>
<g id="a_node1"><a xlink:title=" ">
<polygon fill="#bfbfbf" stroke="#000000" points="487,-69 487,-88 627,-88 627,-69 487,-69"/>
<text text-anchor="middle" x="557" y="-76" font-family="Helvetica,sans-Serif" font-size="10.00" fill="#000000">lagrangian_motion_mod::ou</text>
</a>
</g>
</g>
<!-- Node1&#45;&gt;Node1 -->
<g id="edge1" class="edge">
<title>Node1&#45;&gt;Node1</title>
<path fill="none" stroke="#191970" d="M588.4371,-96.7746C587.5408,-102.241 577.0618,-106.5 557,-106.5 527.1406,-106.5 518.5094,-97.0653 531.1063,-88.2571"/>
<polygon fill="#191970" stroke="#191970" points="591.2819,-94.7291 582.8937,-88.2571 585.415,-98.5475 591.2819,-94.7291"/>
</g>
<!-- Node2 -->
<g id="node2" class="node">
<title>Node2</title>
<g id="a_node2"><a xlink:href="namespacelagrangian__motion__mod.html#ab080e0246757af1269e28d8945c31343" target="_top" xlink:title=" ">
<polygon fill="none" stroke="#000000" points="327,-63.5 327,-93.5 451,-93.5 451,-63.5 327,-63.5"/>
<text text-anchor="start" x="335" y="-81.5" font-family="Helvetica,sans-Serif" font-size="10.00" fill="#000000">lagrangian_motion_mod</text>
<text text-anchor="middle" x="389" y="-70.5" font-family="Helvetica,sans-Serif" font-size="10.00" fill="#000000">::vert_mig</text>
</a>
</g>
</g>
<!-- Node1&#45;&gt;Node2 -->
<g id="edge2" class="edge">
<title>Node1&#45;&gt;Node2</title>
<path fill="none" stroke="#191970" d="M476.7214,-78.5C468.1604,-78.5 459.5477,-78.5 451.24,-78.5"/>
<polygon fill="#191970" stroke="#191970" points="476.7263,-82.0001 486.7263,-78.5 476.7263,-75.0001 476.7263,-82.0001"/>
</g>
<!-- Node2&#45;&gt;Node2 -->
<g id="edge11" class="edge">
<title>Node2&#45;&gt;Node2</title>
<path fill="none" stroke="#191970" d="M418.8516,-103.9579C415.1466,-108.679 405.196,-112 389,-112 362.4219,-112 352.6627,-103.0566 359.7225,-93.659"/>
<polygon fill="#191970" stroke="#191970" points="422.3287,-103.4487 418.2775,-93.659 415.3396,-103.8383 422.3287,-103.4487"/>
</g>
<!-- Node3 -->
<g id="node3" class="node">
<title>Node3</title>
<g id="a_node3"><a xlink:href="namespacepartfun__mod.html#a04110edf21e53f31dd377d3235bce8ca" target="_top" xlink:title=" ">
<polygon fill="none" stroke="#000000" points="139,-126 139,-145 291,-145 291,-126 139,-126"/>
<text text-anchor="middle" x="215" y="-133" font-family="Helvetica,sans-Serif" font-size="10.00" fill="#000000">partfun_mod::generatecalanus</text>
</a>
</g>
</g>
<!-- Node2&#45;&gt;Node3 -->
<g id="edge3" class="edge">
<title>Node2&#45;&gt;Node3</title>
<path fill="none" stroke="#191970" d="M343.7076,-97.4222C327.268,-103.9276 308.4469,-110.9604 291,-116.5 280.1112,-119.9573 268.1856,-123.1914 257.0759,-125.9765"/>
<polygon fill="#191970" stroke="#191970" points="345.1008,-100.6346 353.0833,-93.6682 342.4988,-94.1361 345.1008,-100.6346"/>
</g>
<!-- Node5 -->
<g id="node5" class="node">
<title>Node5</title>
<g id="a_node5"><a xlink:href="namespacepartfun__mod.html#ae3f91c22cbcdaf9ddd7ebd1ce7c08b52" target="_top" xlink:title=" ">
<polygon fill="none" stroke="#000000" points="148.5,-88 148.5,-107 281.5,-107 281.5,-88 148.5,-88"/>
<text text-anchor="middle" x="215" y="-95" font-family="Helvetica,sans-Serif" font-size="10.00" fill="#000000">partfun_mod::generatekrill</text>
</a>
</g>
</g>
<!-- Node2&#45;&gt;Node5 -->
<g id="edge5" class="edge">
<title>Node2&#45;&gt;Node5</title>
<path fill="none" stroke="#191970" d="M316.5969,-86.4061C305.0016,-87.6722 293.0502,-88.9773 281.5986,-90.2277"/>
<polygon fill="#191970" stroke="#191970" points="317.1125,-89.8707 326.6735,-85.3058 316.3526,-82.912 317.1125,-89.8707"/>
</g>
<!-- Node6 -->
<g id="node6" class="node">
<title>Node6</title>
<g id="a_node6"><a xlink:href="namespacepartfun__mod.html#aba3585524f13dc7aa5245aaebcb9caf4" target="_top" xlink:title=" ">
<polygon fill="none" stroke="#000000" points="148,-50 148,-69 282,-69 282,-50 148,-50"/>
<text text-anchor="middle" x="215" y="-57" font-family="Helvetica,sans-Serif" font-size="10.00" fill="#000000">partfun_mod::generatezoo</text>
</a>
</g>
</g>
<!-- Node2&#45;&gt;Node6 -->
<g id="edge7" class="edge">
<title>Node2&#45;&gt;Node6</title>
<path fill="none" stroke="#191970" d="M316.386,-70.5709C305.0567,-69.3338 293.3926,-68.0601 282.1913,-66.837"/>
<polygon fill="#191970" stroke="#191970" points="316.3526,-74.088 326.6735,-71.6942 317.1125,-67.1293 316.3526,-74.088"/>
</g>
<!-- Node7 -->
<g id="node7" class="node">
<title>Node7</title>
<g id="a_node7"><a xlink:href="namespacelagrangian__motion__mod.html#a1191298a91ef0d1c00a23a54aca2e697" target="_top" xlink:title=" ">
<polygon fill="none" stroke="#000000" points="153,-.5 153,-30.5 277,-30.5 277,-.5 153,-.5"/>
<text text-anchor="start" x="161" y="-18.5" font-family="Helvetica,sans-Serif" font-size="10.00" fill="#000000">lagrangian_motion_mod</text>
<text text-anchor="middle" x="215" y="-7.5" font-family="Helvetica,sans-Serif" font-size="10.00" fill="#000000">::trajectory</text>
</a>
</g>
</g>
<!-- Node2&#45;&gt;Node7 -->
<g id="edge9" class="edge">
<title>Node2&#45;&gt;Node7</title>
<path fill="none" stroke="#191970" d="M341.7784,-59.6171C325.7296,-53.3525 307.6458,-46.4605 291,-40.5 281.7154,-37.1754 271.735,-33.7719 262.1588,-30.5891"/>
<polygon fill="#191970" stroke="#191970" points="340.8895,-63.028 351.477,-63.4226 343.4464,-56.5117 340.8895,-63.028"/>
</g>
<!-- Node4 -->
<g id="node4" class="node">
<title>Node4</title>
<g id="a_node4"><a xlink:href="test__model__parallel_8f90.html#ac46b7f7a127dc5439a50d66d9b101f55" target="_top" xlink:title=" ">
<polygon fill="none" stroke="#000000" points="0,-69 0,-88 103,-88 103,-69 0,-69"/>
<text text-anchor="middle" x="51.5" y="-76" font-family="Helvetica,sans-Serif" font-size="10.00" fill="#000000">test_model_parallel</text>
</a>
</g>
</g>
<!-- Node3&#45;&gt;Node4 -->
<g id="edge4" class="edge">
<title>Node3&#45;&gt;Node4</title>
<path fill="none" stroke="#191970" d="M161.9134,-123.4197C154.1673,-121.3133 146.3346,-118.9905 139,-116.5 115.0062,-108.3527 88.4381,-96.3706 70.9432,-88.0477"/>
<polygon fill="#191970" stroke="#191970" points="161.0741,-126.8179 171.6348,-125.9684 162.8493,-120.0467 161.0741,-126.8179"/>
</g>
<!-- Node5&#45;&gt;Node4 -->
<g id="edge6" class="edge">
<title>Node5&#45;&gt;Node4</title>
<path fill="none" stroke="#191970" d="M138.4962,-88.6096C126.5197,-87.2179 114.3924,-85.8086 103.1482,-84.5019"/>
<polygon fill="#191970" stroke="#191970" points="138.1611,-92.0942 148.4983,-89.772 138.9692,-85.141 138.1611,-92.0942"/>
</g>
<!-- Node6&#45;&gt;Node4 -->
<g id="edge8" class="edge">
<title>Node6&#45;&gt;Node4</title>
<path fill="none" stroke="#191970" d="M137.3736,-68.5208C125.7288,-69.874 113.972,-71.2403 103.0518,-72.5093"/>
<polygon fill="#191970" stroke="#191970" points="138.0252,-71.9687 147.5543,-67.3377 137.2171,-65.0155 138.0252,-71.9687"/>
</g>
<!-- Node7&#45;&gt;Node4 -->
<g id="edge10" class="edge">
<title>Node7&#45;&gt;Node4</title>
<path fill="none" stroke="#191970" d="M157.2397,-33.8818C151.0544,-36.034 144.878,-38.2623 139,-40.5 115.783,-49.3386 89.7327,-60.8657 72.1403,-68.8963"/>
<polygon fill="#191970" stroke="#191970" points="158.5942,-37.1178 166.9252,-30.5721 156.3306,-30.4938 158.5942,-37.1178"/>
</g>
</g>
</svg>
