<?xml version="1.0" encoding="UTF-8" standalone="no"?>
<!DOCTYPE svg PUBLIC "-//W3C//DTD SVG 1.1//EN"
 "http://www.w3.org/Graphics/SVG/1.1/DTD/svg11.dtd">
<!-- Generated by graphviz version 2.40.1 (20161225.0304)
 -->
<!-- Title: partclass_mod::zoo Pages: 1 -->
<svg width="190pt" height="205pt"
 viewBox="0.00 0.00 189.50 205.00" xmlns="http://www.w3.org/2000/svg" xmlns:xlink="http://www.w3.org/1999/xlink">
<g id="graph0" class="graph" transform="scale(1 1) rotate(0) translate(4 201)">
<title>partclass_mod::zoo</title>
<!-- Node1 -->
<g id="node1" class="node">
<title>Node1</title>
<g id="a_node1"><a xlink:title=" ">
<polygon fill="#bfbfbf" stroke="#000000" points="45,-.5 45,-19.5 148,-19.5 148,-.5 45,-.5"/>
<text text-anchor="middle" x="96.5" y="-7.5" font-family="Helvetica,sans-Serif" font-size="10.00" fill="#000000">partclass_mod::zoo</text>
</a>
</g>
</g>
<!-- Node2 -->
<g id="node2" class="node">
<title>Node2</title>
<g id="a_node2"><a xlink:title=" ">
<polygon fill="none" stroke="#bfbfbf" points="0,-177.5 0,-196.5 47,-196.5 47,-177.5 0,-177.5"/>
<text text-anchor="middle" x="23.5" y="-184.5" font-family="Helvetica,sans-Serif" font-size="10.00" fill="#000000">integer</text>
</a>
</g>
</g>
<!-- Node2&#45;&gt;Node1 -->
<g id="edge1" class="edge">
<title>Node2&#45;&gt;Node1</title>
<path fill="none" stroke="#9a32cd" stroke-dasharray="5,2" d="M20.5697,-166.9375C17.2003,-136.235 15.226,-77.0532 42.5,-38 48.2442,-29.7749 57.1615,-23.7985 66.1058,-19.5345"/>
<polygon fill="#9a32cd" stroke="#9a32cd" points="17.1418,-167.7282 21.8712,-177.2088 24.0863,-166.8481 17.1418,-167.7282"/>
<text text-anchor="middle" x="67.5" y="-112.5" font-family="Helvetica,sans-Serif" font-size="10.00" fill="#000000"> istart</text>
<text text-anchor="middle" x="67.5" y="-101.5" font-family="Helvetica,sans-Serif" font-size="10.00" fill="#000000">isteps</text>
<text text-anchor="middle" x="67.5" y="-90.5" font-family="Helvetica,sans-Serif" font-size="10.00" fill="#000000">part_spec</text>
<text text-anchor="middle" x="67.5" y="-79.5" font-family="Helvetica,sans-Serif" font-size="10.00" fill="#000000">part_status</text>
</g>
<!-- Node3 -->
<g id="node3" class="node">
<title>Node3</title>
<g id="a_node3"><a xlink:title=" ">
<polygon fill="none" stroke="#bfbfbf" points="74,-177.5 74,-196.5 119,-196.5 119,-177.5 74,-177.5"/>
<text text-anchor="middle" x="96.5" y="-184.5" font-family="Helvetica,sans-Serif" font-size="10.00" fill="#000000">logical</text>
</a>
</g>
</g>
<!-- Node3&#45;&gt;Node1 -->
<g id="edge2" class="edge">
<title>Node3&#45;&gt;Node1</title>
<path fill="none" stroke="#9a32cd" stroke-dasharray="5,2" d="M96.5,-167.2171C96.5,-129.2545 96.5,-47.4758 96.5,-19.5633"/>
<polygon fill="#9a32cd" stroke="#9a32cd" points="93.0001,-167.4837 96.5,-177.4837 100.0001,-167.4837 93.0001,-167.4837"/>
<text text-anchor="middle" x="117" y="-107" font-family="Helvetica,sans-Serif" font-size="10.00" fill="#000000"> cell_out</text>
<text text-anchor="middle" x="117" y="-96" font-family="Helvetica,sans-Serif" font-size="10.00" fill="#000000">dvm</text>
<text text-anchor="middle" x="117" y="-85" font-family="Helvetica,sans-Serif" font-size="10.00" fill="#000000">light_day</text>
</g>
<!-- Node4 -->
<g id="node4" class="node">
<title>Node4</title>
<g id="a_node4"><a xlink:title=" ">
<polygon fill="none" stroke="#bfbfbf" points="144,-177.5 144,-196.5 177,-196.5 177,-177.5 144,-177.5"/>
<text text-anchor="middle" x="160.5" y="-184.5" font-family="Helvetica,sans-Serif" font-size="10.00" fill="#000000">real</text>
</a>
</g>
</g>
<!-- Node4&#45;&gt;Node1 -->
<g id="edge3" class="edge">
<title>Node4&#45;&gt;Node1</title>
<path fill="none" stroke="#9a32cd" stroke-dasharray="5,2" d="M162.4111,-167.2565C164.3457,-136.9772 164.0612,-78.3487 138.5,-38 133.6226,-30.3009 125.7764,-24.2362 118.1786,-19.7486"/>
<polygon fill="#9a32cd" stroke="#9a32cd" points="158.9102,-167.1307 161.6091,-177.376 165.8883,-167.6839 158.9102,-167.1307"/>
<text text-anchor="middle" x="172" y="-151" font-family="Helvetica,sans-Serif" font-size="10.00" fill="#000000"> xk1</text>
<text text-anchor="middle" x="172" y="-140" font-family="Helvetica,sans-Serif" font-size="10.00" fill="#000000">xk2</text>
<text text-anchor="middle" x="172" y="-129" font-family="Helvetica,sans-Serif" font-size="10.00" fill="#000000">xk3</text>
<text text-anchor="middle" x="172" y="-118" font-family="Helvetica,sans-Serif" font-size="10.00" fill="#000000">xk4</text>
<text text-anchor="middle" x="172" y="-107" font-family="Helvetica,sans-Serif" font-size="10.00" fill="#000000">xpo</text>
<text text-anchor="middle" x="172" y="-96" font-family="Helvetica,sans-Serif" font-size="10.00" fill="#000000">yk1</text>
<text text-anchor="middle" x="172" y="-85" font-family="Helvetica,sans-Serif" font-size="10.00" fill="#000000">yk2</text>
<text text-anchor="middle" x="172" y="-74" font-family="Helvetica,sans-Serif" font-size="10.00" fill="#000000">yk3</text>
<text text-anchor="middle" x="172" y="-63" font-family="Helvetica,sans-Serif" font-size="10.00" fill="#000000">yk4</text>
<text text-anchor="middle" x="172" y="-52" font-family="Helvetica,sans-Serif" font-size="10.00" fill="#000000">ypo</text>
<text text-anchor="middle" x="172" y="-41" font-family="Helvetica,sans-Serif" font-size="10.00" fill="#000000">...</text>
</g>
</g>
</svg>
