<?xml version="1.0" encoding="UTF-8" standalone="no"?>
<!DOCTYPE svg PUBLIC "-//W3C//DTD SVG 1.1//EN"
 "http://www.w3.org/Graphics/SVG/1.1/DTD/svg11.dtd">
<!-- Generated by graphviz version 2.40.1 (20161225.0304)
 -->
<!-- Title: partclass_mod::partlist Pages: 1 -->
<svg width="125pt" height="174pt"
 viewBox="0.00 0.00 125.00 174.00" xmlns="http://www.w3.org/2000/svg" xmlns:xlink="http://www.w3.org/1999/xlink">
<g id="graph0" class="graph" transform="scale(1 1) rotate(0) translate(4 170)">
<title>partclass_mod::partlist</title>
<!-- Node1 -->
<g id="node1" class="node">
<title>Node1</title>
<g id="a_node1"><a xlink:title=" ">
<polygon fill="#bfbfbf" stroke="#000000" points="0,-.5 0,-19.5 117,-19.5 117,-.5 0,-.5"/>
<text text-anchor="middle" x="58.5" y="-7.5" font-family="Helvetica,sans-Serif" font-size="10.00" fill="#000000">partclass_mod::partlist</text>
</a>
</g>
</g>
<!-- Node2 -->
<g id="node2" class="node">
<title>Node2</title>
<g id="a_node2"><a xlink:href="structabstlist__mod_1_1list.html" target="_top" xlink:title=" ">
<polygon fill="none" stroke="#000000" points="13.5,-57.5 13.5,-76.5 103.5,-76.5 103.5,-57.5 13.5,-57.5"/>
<text text-anchor="middle" x="58.5" y="-64.5" font-family="Helvetica,sans-Serif" font-size="10.00" fill="#000000">abstlist_mod::list</text>
</a>
</g>
</g>
<!-- Node2&#45;&gt;Node1 -->
<g id="edge1" class="edge">
<title>Node2&#45;&gt;Node1</title>
<path fill="none" stroke="#191970" d="M58.5,-47.2342C58.5,-37.8491 58.5,-27.0651 58.5,-19.5265"/>
<polygon fill="#191970" stroke="#191970" points="55.0001,-47.3307 58.5,-57.3307 62.0001,-47.3308 55.0001,-47.3307"/>
</g>
<!-- Node3 -->
<g id="node3" class="node">
<title>Node3</title>
<g id="a_node3"><a xlink:title=" ">
<polygon fill="none" stroke="#bfbfbf" points="10,-146.5 10,-165.5 107,-165.5 107,-146.5 10,-146.5"/>
<text text-anchor="middle" x="58.5" y="-153.5" font-family="Helvetica,sans-Serif" font-size="10.00" fill="#000000">class(link), pointer</text>
</a>
</g>
</g>
<!-- Node3&#45;&gt;Node2 -->
<g id="edge2" class="edge">
<title>Node3&#45;&gt;Node2</title>
<path fill="none" stroke="#9a32cd" stroke-dasharray="5,2" d="M58.5,-136.2379C58.5,-117.7654 58.5,-90.957 58.5,-76.7259"/>
<polygon fill="#9a32cd" stroke="#9a32cd" points="55.0001,-136.4754 58.5,-146.4754 62.0001,-136.4755 55.0001,-136.4754"/>
<text text-anchor="middle" x="76.5" y="-120" font-family="Helvetica,sans-Serif" font-size="10.00" fill="#000000"> currlink</text>
<text text-anchor="middle" x="76.5" y="-109" font-family="Helvetica,sans-Serif" font-size="10.00" fill="#000000">firstlink</text>
<text text-anchor="middle" x="76.5" y="-98" font-family="Helvetica,sans-Serif" font-size="10.00" fill="#000000">lastlink</text>
</g>
</g>
</svg>
