<?xml version="1.0" encoding="UTF-8" standalone="no"?>
<!DOCTYPE svg PUBLIC "-//W3C//DTD SVG 1.1//EN"
 "http://www.w3.org/Graphics/SVG/1.1/DTD/svg11.dtd">
<!-- Generated by graphviz version 2.40.1 (20161225.0304)
 -->
<!-- Title: partlist_mod::partlist Pages: 1 -->
<svg width="114pt" height="174pt"
 viewBox="0.00 0.00 114.00 174.00" xmlns="http://www.w3.org/2000/svg" xmlns:xlink="http://www.w3.org/1999/xlink">
<g id="graph0" class="graph" transform="scale(1 1) rotate(0) translate(4 170)">
<title>partlist_mod::partlist</title>
<!-- Node1 -->
<g id="node1" class="node">
<title>Node1</title>
<g id="a_node1"><a xlink:title=" ">
<polygon fill="#bfbfbf" stroke="#000000" points="0,-.5 0,-19.5 106,-19.5 106,-.5 0,-.5"/>
<text text-anchor="middle" x="53" y="-7.5" font-family="Helvetica,sans-Serif" font-size="10.00" fill="#000000">partlist_mod::partlist</text>
</a>
</g>
</g>
<!-- Node2 -->
<g id="node2" class="node">
<title>Node2</title>
<g id="a_node2"><a xlink:href="structabstlist__mod_1_1list.html" target="_top" xlink:title=" ">
<polygon fill="none" stroke="#000000" points="8,-57.5 8,-76.5 98,-76.5 98,-57.5 8,-57.5"/>
<text text-anchor="middle" x="53" y="-64.5" font-family="Helvetica,sans-Serif" font-size="10.00" fill="#000000">abstlist_mod::list</text>
</a>
</g>
</g>
<!-- Node2&#45;&gt;Node1 -->
<g id="edge1" class="edge">
<title>Node2&#45;&gt;Node1</title>
<path fill="none" stroke="#191970" d="M53,-47.2342C53,-37.8491 53,-27.0651 53,-19.5265"/>
<polygon fill="#191970" stroke="#191970" points="49.5001,-47.3307 53,-57.3307 56.5001,-47.3308 49.5001,-47.3307"/>
</g>
<!-- Node3 -->
<g id="node3" class="node">
<title>Node3</title>
<g id="a_node3"><a xlink:title=" ">
<polygon fill="none" stroke="#bfbfbf" points="4.5,-146.5 4.5,-165.5 101.5,-165.5 101.5,-146.5 4.5,-146.5"/>
<text text-anchor="middle" x="53" y="-153.5" font-family="Helvetica,sans-Serif" font-size="10.00" fill="#000000">class(link), pointer</text>
</a>
</g>
</g>
<!-- Node3&#45;&gt;Node2 -->
<g id="edge2" class="edge">
<title>Node3&#45;&gt;Node2</title>
<path fill="none" stroke="#9a32cd" stroke-dasharray="5,2" d="M53,-136.2379C53,-117.7654 53,-90.957 53,-76.7259"/>
<polygon fill="#9a32cd" stroke="#9a32cd" points="49.5001,-136.4754 53,-146.4754 56.5001,-136.4755 49.5001,-136.4754"/>
<text text-anchor="middle" x="71" y="-120" font-family="Helvetica,sans-Serif" font-size="10.00" fill="#000000"> currlink</text>
<text text-anchor="middle" x="71" y="-109" font-family="Helvetica,sans-Serif" font-size="10.00" fill="#000000">firstlink</text>
<text text-anchor="middle" x="71" y="-98" font-family="Helvetica,sans-Serif" font-size="10.00" fill="#000000">lastlink</text>
</g>
</g>
</svg>
