<?xml version="1.0" encoding="UTF-8" standalone="no"?>
<!DOCTYPE svg PUBLIC "-//W3C//DTD SVG 1.1//EN"
 "http://www.w3.org/Graphics/SVG/1.1/DTD/svg11.dtd">
<!-- Generated by graphviz version 2.40.1 (20161225.0304)
 -->
<!-- Title: partclass_mod::zoo Pages: 1 -->
<svg width="282pt" height="84pt"
 viewBox="0.00 0.00 282.00 84.00" xmlns="http://www.w3.org/2000/svg" xmlns:xlink="http://www.w3.org/1999/xlink">
<g id="graph0" class="graph" transform="scale(1 1) rotate(0) translate(4 80)">
<title>partclass_mod::zoo</title>
<!-- Node1 -->
<g id="node1" class="node">
<title>Node1</title>
<g id="a_node1"><a xlink:title=" ">
<polygon fill="#bfbfbf" stroke="#000000" points="90.5,-56.5 90.5,-75.5 193.5,-75.5 193.5,-56.5 90.5,-56.5"/>
<text text-anchor="middle" x="142" y="-63.5" font-family="Helvetica,sans-Serif" font-size="10.00" fill="#000000">partclass_mod::zoo</text>
</a>
</g>
</g>
<!-- Node2 -->
<g id="node2" class="node">
<title>Node2</title>
<g id="a_node2"><a xlink:href="structpartsubclass__mod_1_1calanus.html" target="_top" xlink:title=" ">
<polygon fill="none" stroke="#000000" points="0,-.5 0,-19.5 138,-19.5 138,-.5 0,-.5"/>
<text text-anchor="middle" x="69" y="-7.5" font-family="Helvetica,sans-Serif" font-size="10.00" fill="#000000">partsubclass_mod::calanus</text>
</a>
</g>
</g>
<!-- Node1&#45;&gt;Node2 -->
<g id="edge1" class="edge">
<title>Node1&#45;&gt;Node2</title>
<path fill="none" stroke="#191970" d="M121.049,-49.928C108.2893,-40.1397 92.4115,-27.9595 81.5699,-19.6427"/>
<polygon fill="#191970" stroke="#191970" points="119.2197,-52.9359 129.2844,-56.2455 123.4804,-47.3819 119.2197,-52.9359"/>
</g>
<!-- Node3 -->
<g id="node3" class="node">
<title>Node3</title>
<g id="a_node3"><a xlink:href="structpartsubclass__mod_1_1krill.html" target="_top" xlink:title=" ">
<polygon fill="none" stroke="#000000" points="156,-.5 156,-19.5 274,-19.5 274,-.5 156,-.5"/>
<text text-anchor="middle" x="215" y="-7.5" font-family="Helvetica,sans-Serif" font-size="10.00" fill="#000000">partsubclass_mod::krill</text>
</a>
</g>
</g>
<!-- Node1&#45;&gt;Node3 -->
<g id="edge2" class="edge">
<title>Node1&#45;&gt;Node3</title>
<path fill="none" stroke="#191970" d="M162.951,-49.928C175.7107,-40.1397 191.5885,-27.9595 202.4301,-19.6427"/>
<polygon fill="#191970" stroke="#191970" points="160.5196,-47.3819 154.7156,-56.2455 164.7803,-52.9359 160.5196,-47.3819"/>
</g>
</g>
</svg>
