<?xml version="1.0" encoding="UTF-8" standalone="no"?>
<!DOCTYPE svg PUBLIC "-//W3C//DTD SVG 1.1//EN"
 "http://www.w3.org/Graphics/SVG/1.1/DTD/svg11.dtd">
<!-- Generated by graphviz version 2.42.3 (20191010.1750)
 -->
<!-- Title: partclass_mod::krill Pages: 1 -->
<svg width="317pt" height="363pt"
 viewBox="0.00 0.00 317.00 363.00" xmlns="http://www.w3.org/2000/svg" xmlns:xlink="http://www.w3.org/1999/xlink">
<g id="graph0" class="graph" transform="scale(1 1) rotate(0) translate(4 359)">
<title>partclass_mod::krill</title>
<!-- Node1 -->
<g id="node1" class="node">
<title>Node1</title>
<g id="a_node1"><a xlink:title=" ">
<polygon fill="#bfbfbf" stroke="black" points="75.5,-0.5 75.5,-19.5 176.5,-19.5 176.5,-0.5 75.5,-0.5"/>
<text text-anchor="middle" x="126" y="-7.5" font-family="Helvetica,sans-Serif" font-size="10.00">partclass_mod::krill</text>
</a>
</g>
</g>
<!-- Node2 -->
<g id="node2" class="node">
<title>Node2</title>
<g id="a_node2"><a xlink:href="structpartclass__mod_1_1zoo.html" target="_top" xlink:title=" ">
<polygon fill="none" stroke="black" points="149,-108 149,-127 251,-127 251,-108 149,-108"/>
<text text-anchor="middle" x="200" y="-115" font-family="Helvetica,sans-Serif" font-size="10.00">partclass_mod::zoo</text>
</a>
</g>
</g>
<!-- Node2&#45;&gt;Node1 -->
<g id="edge1" class="edge">
<title>Node2&#45;&gt;Node1</title>
<path fill="none" stroke="midnightblue" d="M188.09,-99.52C172.13,-76.77 144.41,-37.24 132.14,-19.75"/>
<polygon fill="midnightblue" stroke="midnightblue" points="185.34,-101.69 193.94,-107.87 191.07,-97.67 185.34,-101.69"/>
</g>
<!-- Node3 -->
<g id="node3" class="node">
<title>Node3</title>
<g id="a_node3"><a xlink:title=" ">
<polygon fill="none" stroke="#bfbfbf" points="0,-335.5 0,-354.5 44,-354.5 44,-335.5 0,-335.5"/>
<text text-anchor="middle" x="22" y="-342.5" font-family="Helvetica,sans-Serif" font-size="10.00">logical</text>
</a>
</g>
</g>
<!-- Node3&#45;&gt;Node1 -->
<g id="edge5" class="edge">
<title>Node3&#45;&gt;Node1</title>
<path fill="none" stroke="#9a32cd" stroke-dasharray="5,2" d="M18.43,-325.31C10.19,-276.57 -5.38,-143.39 51,-57 62.77,-38.96 84.33,-26.84 101.32,-19.59"/>
<polygon fill="#9a32cd" stroke="#9a32cd" points="15.02,-326.11 20.23,-335.34 21.91,-324.88 15.02,-326.11"/>
<text text-anchor="middle" x="71" y="-126" font-family="Helvetica,sans-Serif" font-size="10.00"> cell_out</text>
<text text-anchor="middle" x="71" y="-115" font-family="Helvetica,sans-Serif" font-size="10.00">dvm</text>
<text text-anchor="middle" x="71" y="-104" font-family="Helvetica,sans-Serif" font-size="10.00">light_day</text>
</g>
<!-- Node3&#45;&gt;Node2 -->
<g id="edge2" class="edge">
<title>Node3&#45;&gt;Node2</title>
<path fill="none" stroke="#9a32cd" stroke-dasharray="5,2" d="M30.34,-325.88C44.42,-296.52 74.99,-237.64 112,-196 120.62,-186.3 125.09,-186.39 135,-178 155.55,-160.6 178.57,-139 190.94,-127.2"/>
<polygon fill="#9a32cd" stroke="#9a32cd" points="27.01,-324.73 25.92,-335.27 33.35,-327.71 27.01,-324.73"/>
<text text-anchor="middle" x="132" y="-265" font-family="Helvetica,sans-Serif" font-size="10.00"> cell_out</text>
<text text-anchor="middle" x="132" y="-254" font-family="Helvetica,sans-Serif" font-size="10.00">dvm</text>
<text text-anchor="middle" x="132" y="-243" font-family="Helvetica,sans-Serif" font-size="10.00">light_day</text>
</g>
<!-- Node4 -->
<g id="node4" class="node">
<title>Node4</title>
<g id="a_node4"><a xlink:title=" ">
<polygon fill="none" stroke="#bfbfbf" points="137,-335.5 137,-354.5 169,-354.5 169,-335.5 137,-335.5"/>
<text text-anchor="middle" x="153" y="-342.5" font-family="Helvetica,sans-Serif" font-size="10.00">real</text>
</a>
</g>
</g>
<!-- Node4&#45;&gt;Node1 -->
<g id="edge6" class="edge">
<title>Node4&#45;&gt;Node1</title>
<path fill="none" stroke="#9a32cd" stroke-dasharray="5,2" d="M145.37,-325.63C133.29,-295.45 110.29,-233.23 102,-178 94.01,-124.82 89.19,-109.23 102,-57 105.43,-43 113.95,-28.53 119.85,-19.65"/>
<polygon fill="#9a32cd" stroke="#9a32cd" points="142.26,-327.28 149.28,-335.22 148.74,-324.64 142.26,-327.28"/>
<text text-anchor="middle" x="121" y="-170" font-family="Helvetica,sans-Serif" font-size="10.00"> xpo</text>
<text text-anchor="middle" x="121" y="-159" font-family="Helvetica,sans-Serif" font-size="10.00">rb</text>
<text text-anchor="middle" x="121" y="-148" font-family="Helvetica,sans-Serif" font-size="10.00">ypo</text>
<text text-anchor="middle" x="121" y="-137" font-family="Helvetica,sans-Serif" font-size="10.00">dev_freq</text>
<text text-anchor="middle" x="121" y="-126" font-family="Helvetica,sans-Serif" font-size="10.00">r0</text>
<text text-anchor="middle" x="121" y="-115" font-family="Helvetica,sans-Serif" font-size="10.00">zpo</text>
<text text-anchor="middle" x="121" y="-104" font-family="Helvetica,sans-Serif" font-size="10.00">zday</text>
<text text-anchor="middle" x="121" y="-93" font-family="Helvetica,sans-Serif" font-size="10.00">w_molt</text>
<text text-anchor="middle" x="121" y="-82" font-family="Helvetica,sans-Serif" font-size="10.00">mass</text>
<text text-anchor="middle" x="121" y="-71" font-family="Helvetica,sans-Serif" font-size="10.00">b_molt</text>
<text text-anchor="middle" x="121" y="-60" font-family="Helvetica,sans-Serif" font-size="10.00">...</text>
</g>
<!-- Node4&#45;&gt;Node2 -->
<g id="edge3" class="edge">
<title>Node4&#45;&gt;Node2</title>
<path fill="none" stroke="#9a32cd" stroke-dasharray="5,2" d="M155.03,-325.17C158.29,-296.89 165.39,-241.87 176,-196 181.84,-170.75 191.68,-141.76 196.76,-127.45"/>
<polygon fill="#9a32cd" stroke="#9a32cd" points="151.54,-324.91 153.91,-335.24 158.5,-325.69 151.54,-324.91"/>
<text text-anchor="middle" x="192" y="-309" font-family="Helvetica,sans-Serif" font-size="10.00"> xpo</text>
<text text-anchor="middle" x="192" y="-298" font-family="Helvetica,sans-Serif" font-size="10.00">rb</text>
<text text-anchor="middle" x="192" y="-287" font-family="Helvetica,sans-Serif" font-size="10.00">ypo</text>
<text text-anchor="middle" x="192" y="-276" font-family="Helvetica,sans-Serif" font-size="10.00">r0</text>
<text text-anchor="middle" x="192" y="-265" font-family="Helvetica,sans-Serif" font-size="10.00">zpo</text>
<text text-anchor="middle" x="192" y="-254" font-family="Helvetica,sans-Serif" font-size="10.00">zday</text>
<text text-anchor="middle" x="192" y="-243" font-family="Helvetica,sans-Serif" font-size="10.00">w_molt</text>
<text text-anchor="middle" x="192" y="-232" font-family="Helvetica,sans-Serif" font-size="10.00">b_molt</text>
<text text-anchor="middle" x="192" y="-221" font-family="Helvetica,sans-Serif" font-size="10.00">a_molt</text>
<text text-anchor="middle" x="192" y="-210" font-family="Helvetica,sans-Serif" font-size="10.00">xk1</text>
<text text-anchor="middle" x="192" y="-199" font-family="Helvetica,sans-Serif" font-size="10.00">...</text>
</g>
<!-- Node5 -->
<g id="node5" class="node">
<title>Node5</title>
<g id="a_node5"><a xlink:title=" ">
<polygon fill="none" stroke="#bfbfbf" points="212,-335.5 212,-354.5 258,-354.5 258,-335.5 212,-335.5"/>
<text text-anchor="middle" x="235" y="-342.5" font-family="Helvetica,sans-Serif" font-size="10.00">integer</text>
</a>
</g>
</g>
<!-- Node5&#45;&gt;Node1 -->
<g id="edge7" class="edge">
<title>Node5&#45;&gt;Node1</title>
<path fill="none" stroke="#9a32cd" stroke-dasharray="5,2" d="M253.86,-328.27C256.77,-324.88 259.36,-321.07 261,-317 265.41,-306.07 263.34,-61.65 260,-57 241.04,-30.64 206,-19.24 176.51,-14.37"/>
<polygon fill="#9a32cd" stroke="#9a32cd" points="251.35,-325.83 246.74,-335.37 256.3,-330.78 251.35,-325.83"/>
<text text-anchor="middle" x="286" y="-137" font-family="Helvetica,sans-Serif" font-size="10.00"> part_spec</text>
<text text-anchor="middle" x="286" y="-126" font-family="Helvetica,sans-Serif" font-size="10.00">istart</text>
<text text-anchor="middle" x="286" y="-115" font-family="Helvetica,sans-Serif" font-size="10.00">sex</text>
<text text-anchor="middle" x="286" y="-104" font-family="Helvetica,sans-Serif" font-size="10.00">isteps</text>
<text text-anchor="middle" x="286" y="-93" font-family="Helvetica,sans-Serif" font-size="10.00">dt</text>
</g>
<!-- Node5&#45;&gt;Node2 -->
<g id="edge4" class="edge">
<title>Node5&#45;&gt;Node2</title>
<path fill="none" stroke="#9a32cd" stroke-dasharray="5,2" d="M232.1,-325.31C224.9,-278.94 206.44,-160.02 201.33,-127.07"/>
<polygon fill="#9a32cd" stroke="#9a32cd" points="228.68,-326.09 233.67,-335.44 235.6,-325.02 228.68,-326.09"/>
<text text-anchor="middle" x="243.5" y="-265" font-family="Helvetica,sans-Serif" font-size="10.00"> istart</text>
<text text-anchor="middle" x="243.5" y="-254" font-family="Helvetica,sans-Serif" font-size="10.00">isteps</text>
<text text-anchor="middle" x="243.5" y="-243" font-family="Helvetica,sans-Serif" font-size="10.00">dt</text>
</g>
</g>
</svg>
