<?xml version="1.0" encoding="UTF-8" standalone="no"?>
<!DOCTYPE svg PUBLIC "-//W3C//DTD SVG 1.1//EN"
 "http://www.w3.org/Graphics/SVG/1.1/DTD/svg11.dtd">
<!-- Generated by graphviz version 2.40.1 (20161225.0304)
 -->
<!-- Title: partsubclass_mod::krill Pages: 1 -->
<svg width="252pt" height="341pt"
 viewBox="0.00 0.00 251.50 341.00" xmlns="http://www.w3.org/2000/svg" xmlns:xlink="http://www.w3.org/1999/xlink">
<g id="graph0" class="graph" transform="scale(1 1) rotate(0) translate(4 337)">
<title>partsubclass_mod::krill</title>
<!-- Node1 -->
<g id="node1" class="node">
<title>Node1</title>
<g id="a_node1"><a xlink:title=" ">
<polygon fill="#bfbfbf" stroke="#000000" points="53.5,-.5 53.5,-19.5 171.5,-19.5 171.5,-.5 53.5,-.5"/>
<text text-anchor="middle" x="112.5" y="-7.5" font-family="Helvetica,sans-Serif" font-size="10.00" fill="#000000">partsubclass_mod::krill</text>
</a>
</g>
</g>
<!-- Node2 -->
<g id="node2" class="node">
<title>Node2</title>
<g id="a_node2"><a xlink:href="structpartclass__mod_1_1zoo.html" target="_top" xlink:title=" ">
<polygon fill="none" stroke="#000000" points="61,-97 61,-116 164,-116 164,-97 61,-97"/>
<text text-anchor="middle" x="112.5" y="-104" font-family="Helvetica,sans-Serif" font-size="10.00" fill="#000000">partclass_mod::zoo</text>
</a>
</g>
</g>
<!-- Node2&#45;&gt;Node1 -->
<g id="edge1" class="edge">
<title>Node2&#45;&gt;Node1</title>
<path fill="none" stroke="#191970" d="M112.5,-86.7893C112.5,-66.3181 112.5,-35.1478 112.5,-19.5667"/>
<polygon fill="#191970" stroke="#191970" points="109.0001,-86.8944 112.5,-96.8944 116.0001,-86.8944 109.0001,-86.8944"/>
</g>
<!-- Node3 -->
<g id="node3" class="node">
<title>Node3</title>
<g id="a_node3"><a xlink:title=" ">
<polygon fill="none" stroke="#bfbfbf" points="0,-313.5 0,-332.5 47,-332.5 47,-313.5 0,-313.5"/>
<text text-anchor="middle" x="23.5" y="-320.5" font-family="Helvetica,sans-Serif" font-size="10.00" fill="#000000">integer</text>
</a>
</g>
</g>
<!-- Node3&#45;&gt;Node1 -->
<g id="edge6" class="edge">
<title>Node3&#45;&gt;Node1</title>
<path fill="none" stroke="#9a32cd" stroke-dasharray="5,2" d="M18.0209,-303.5452C6.0707,-256.8148 -17.4566,-136.2516 32.5,-57 43.9245,-38.876 65.0713,-26.8981 82.7546,-19.572"/>
<polygon fill="#9a32cd" stroke="#9a32cd" points="14.6649,-304.5438 20.628,-313.3012 21.4276,-302.7366 14.6649,-304.5438"/>
<text text-anchor="middle" x="42" y="-104" font-family="Helvetica,sans-Serif" font-size="10.00" fill="#000000"> sex</text>
</g>
<!-- Node3&#45;&gt;Node2 -->
<g id="edge2" class="edge">
<title>Node3&#45;&gt;Node2</title>
<path fill="none" stroke="#9a32cd" stroke-dasharray="5,2" d="M25.3362,-303.2523C28.6791,-273.8114 37.4647,-217.2447 58.5,-174 69.791,-150.7878 90.2862,-128.2964 102.5205,-116.0356"/>
<polygon fill="#9a32cd" stroke="#9a32cd" points="21.8291,-303.1398 24.2768,-313.448 28.7916,-303.8633 21.8291,-303.1398"/>
<text text-anchor="middle" x="83.5" y="-248.5" font-family="Helvetica,sans-Serif" font-size="10.00" fill="#000000"> istart</text>
<text text-anchor="middle" x="83.5" y="-237.5" font-family="Helvetica,sans-Serif" font-size="10.00" fill="#000000">isteps</text>
<text text-anchor="middle" x="83.5" y="-226.5" font-family="Helvetica,sans-Serif" font-size="10.00" fill="#000000">part_spec</text>
<text text-anchor="middle" x="83.5" y="-215.5" font-family="Helvetica,sans-Serif" font-size="10.00" fill="#000000">part_status</text>
</g>
<!-- Node4 -->
<g id="node4" class="node">
<title>Node4</title>
<g id="a_node4"><a xlink:title=" ">
<polygon fill="none" stroke="#bfbfbf" points="90,-313.5 90,-332.5 135,-332.5 135,-313.5 90,-313.5"/>
<text text-anchor="middle" x="112.5" y="-320.5" font-family="Helvetica,sans-Serif" font-size="10.00" fill="#000000">logical</text>
</a>
</g>
</g>
<!-- Node4&#45;&gt;Node2 -->
<g id="edge3" class="edge">
<title>Node4&#45;&gt;Node2</title>
<path fill="none" stroke="#9a32cd" stroke-dasharray="5,2" d="M112.5,-303.2202C112.5,-258.2933 112.5,-149.8694 112.5,-116.4655"/>
<polygon fill="#9a32cd" stroke="#9a32cd" points="109.0001,-303.4179 112.5,-313.4179 116.0001,-303.4179 109.0001,-303.4179"/>
<text text-anchor="middle" x="133" y="-243" font-family="Helvetica,sans-Serif" font-size="10.00" fill="#000000"> cell_out</text>
<text text-anchor="middle" x="133" y="-232" font-family="Helvetica,sans-Serif" font-size="10.00" fill="#000000">dvm</text>
<text text-anchor="middle" x="133" y="-221" font-family="Helvetica,sans-Serif" font-size="10.00" fill="#000000">light_day</text>
</g>
<!-- Node5 -->
<g id="node5" class="node">
<title>Node5</title>
<g id="a_node5"><a xlink:title=" ">
<polygon fill="none" stroke="#bfbfbf" points="177,-313.5 177,-332.5 210,-332.5 210,-313.5 177,-313.5"/>
<text text-anchor="middle" x="193.5" y="-320.5" font-family="Helvetica,sans-Serif" font-size="10.00" fill="#000000">real</text>
</a>
</g>
</g>
<!-- Node5&#45;&gt;Node1 -->
<g id="edge5" class="edge">
<title>Node5&#45;&gt;Node1</title>
<path fill="none" stroke="#9a32cd" stroke-dasharray="5,2" d="M197.7351,-303.3258C206.6713,-256.5523 222.8091,-136.6709 173.5,-57 163.2981,-40.5163 145.0833,-27.6272 131.2056,-19.5489"/>
<polygon fill="#9a32cd" stroke="#9a32cd" points="194.2614,-302.846 195.7123,-313.341 201.1229,-304.2319 194.2614,-302.846"/>
<text text-anchor="middle" x="224" y="-148" font-family="Helvetica,sans-Serif" font-size="10.00" fill="#000000"> a_molt</text>
<text text-anchor="middle" x="224" y="-137" font-family="Helvetica,sans-Serif" font-size="10.00" fill="#000000">b_molt</text>
<text text-anchor="middle" x="224" y="-126" font-family="Helvetica,sans-Serif" font-size="10.00" fill="#000000">dev_frac</text>
<text text-anchor="middle" x="224" y="-115" font-family="Helvetica,sans-Serif" font-size="10.00" fill="#000000">er</text>
<text text-anchor="middle" x="224" y="-104" font-family="Helvetica,sans-Serif" font-size="10.00" fill="#000000">mass</text>
<text text-anchor="middle" x="224" y="-93" font-family="Helvetica,sans-Serif" font-size="10.00" fill="#000000">r0</text>
<text text-anchor="middle" x="224" y="-82" font-family="Helvetica,sans-Serif" font-size="10.00" fill="#000000">rb</text>
<text text-anchor="middle" x="224" y="-71" font-family="Helvetica,sans-Serif" font-size="10.00" fill="#000000">t_lim</text>
<text text-anchor="middle" x="224" y="-60" font-family="Helvetica,sans-Serif" font-size="10.00" fill="#000000">tp</text>
</g>
<!-- Node5&#45;&gt;Node2 -->
<g id="edge4" class="edge">
<title>Node5&#45;&gt;Node2</title>
<path fill="none" stroke="#9a32cd" stroke-dasharray="5,2" d="M181.8504,-304.5889C180.2096,-301.471 178.6823,-298.2041 177.5,-295 158.55,-243.644 174.4084,-224.9922 154.5,-174 145.8663,-151.8861 129.8746,-129.0171 120.3097,-116.3903"/>
<polygon fill="#9a32cd" stroke="#9a32cd" points="178.8437,-306.3812 186.8815,-313.2836 184.9024,-302.8753 178.8437,-306.3812"/>
<text text-anchor="middle" x="187" y="-287" font-family="Helvetica,sans-Serif" font-size="10.00" fill="#000000"> xk1</text>
<text text-anchor="middle" x="187" y="-276" font-family="Helvetica,sans-Serif" font-size="10.00" fill="#000000">xk2</text>
<text text-anchor="middle" x="187" y="-265" font-family="Helvetica,sans-Serif" font-size="10.00" fill="#000000">xk3</text>
<text text-anchor="middle" x="187" y="-254" font-family="Helvetica,sans-Serif" font-size="10.00" fill="#000000">xk4</text>
<text text-anchor="middle" x="187" y="-243" font-family="Helvetica,sans-Serif" font-size="10.00" fill="#000000">xpo</text>
<text text-anchor="middle" x="187" y="-232" font-family="Helvetica,sans-Serif" font-size="10.00" fill="#000000">yk1</text>
<text text-anchor="middle" x="187" y="-221" font-family="Helvetica,sans-Serif" font-size="10.00" fill="#000000">yk2</text>
<text text-anchor="middle" x="187" y="-210" font-family="Helvetica,sans-Serif" font-size="10.00" fill="#000000">yk3</text>
<text text-anchor="middle" x="187" y="-199" font-family="Helvetica,sans-Serif" font-size="10.00" fill="#000000">yk4</text>
<text text-anchor="middle" x="187" y="-188" font-family="Helvetica,sans-Serif" font-size="10.00" fill="#000000">ypo</text>
<text text-anchor="middle" x="187" y="-177" font-family="Helvetica,sans-Serif" font-size="10.00" fill="#000000">...</text>
</g>
</g>
</svg>
