<?xml version="1.0" encoding="UTF-8" standalone="no"?>
<!DOCTYPE svg PUBLIC "-//W3C//DTD SVG 1.1//EN"
 "http://www.w3.org/Graphics/SVG/1.1/DTD/svg11.dtd">
<!-- Generated by graphviz version 2.40.1 (20161225.0304)
 -->
<!-- Title: partsubclass_mod::calanus Pages: 1 -->
<svg width="422pt" height="374pt"
 viewBox="0.00 0.00 421.50 374.00" xmlns="http://www.w3.org/2000/svg" xmlns:xlink="http://www.w3.org/1999/xlink">
<g id="graph0" class="graph" transform="scale(1 1) rotate(0) translate(4 370)">
<title>partsubclass_mod::calanus</title>
<!-- Node1 -->
<g id="node1" class="node">
<title>Node1</title>
<g id="a_node1"><a xlink:title=" ">
<polygon fill="#bfbfbf" stroke="#000000" points="77.5,-.5 77.5,-19.5 215.5,-19.5 215.5,-.5 77.5,-.5"/>
<text text-anchor="middle" x="146.5" y="-7.5" font-family="Helvetica,sans-Serif" font-size="10.00" fill="#000000">partsubclass_mod::calanus</text>
</a>
</g>
</g>
<!-- Node2 -->
<g id="node2" class="node">
<title>Node2</title>
<g id="a_node2"><a xlink:href="structpartclass__mod_1_1zoo.html" target="_top" xlink:title=" ">
<polygon fill="none" stroke="#000000" points="195,-113.5 195,-132.5 298,-132.5 298,-113.5 195,-113.5"/>
<text text-anchor="middle" x="246.5" y="-120.5" font-family="Helvetica,sans-Serif" font-size="10.00" fill="#000000">partclass_mod::zoo</text>
</a>
</g>
</g>
<!-- Node2&#45;&gt;Node1 -->
<g id="edge1" class="edge">
<title>Node2&#45;&gt;Node1</title>
<path fill="none" stroke="#191970" d="M231.18,-105.6884C209.8389,-81.573 171.8866,-38.6869 155.0044,-19.6099"/>
<polygon fill="#191970" stroke="#191970" points="228.7258,-108.1965 237.9741,-113.3657 233.9679,-103.5574 228.7258,-108.1965"/>
</g>
<!-- Node3 -->
<g id="node3" class="node">
<title>Node3</title>
<g id="a_node3"><a xlink:title=" ">
<polygon fill="none" stroke="#bfbfbf" points="0,-346.5 0,-365.5 47,-365.5 47,-346.5 0,-346.5"/>
<text text-anchor="middle" x="23.5" y="-353.5" font-family="Helvetica,sans-Serif" font-size="10.00" fill="#000000">integer</text>
</a>
</g>
</g>
<!-- Node3&#45;&gt;Node1 -->
<g id="edge6" class="edge">
<title>Node3&#45;&gt;Node1</title>
<path fill="none" stroke="#9a32cd" stroke-dasharray="5,2" d="M18.4844,-336.3938C6.5322,-284.8466 -18.1181,-143.5423 45.5,-57 59.4753,-37.9888 83.0687,-26.4234 103.9389,-19.5247"/>
<polygon fill="#9a32cd" stroke="#9a32cd" points="15.1124,-337.3402 20.8704,-346.2338 21.9153,-335.6906 15.1124,-337.3402"/>
<text text-anchor="middle" x="71" y="-142.5" font-family="Helvetica,sans-Serif" font-size="10.00" fill="#000000"> activity</text>
<text text-anchor="middle" x="71" y="-131.5" font-family="Helvetica,sans-Serif" font-size="10.00" fill="#000000">cum_eggs</text>
<text text-anchor="middle" x="71" y="-120.5" font-family="Helvetica,sans-Serif" font-size="10.00" fill="#000000">ep</text>
<text text-anchor="middle" x="71" y="-109.5" font-family="Helvetica,sans-Serif" font-size="10.00" fill="#000000">pre_activity</text>
<text text-anchor="middle" x="71" y="-98.5" font-family="Helvetica,sans-Serif" font-size="10.00" fill="#000000">sex</text>
</g>
<!-- Node3&#45;&gt;Node2 -->
<g id="edge2" class="edge">
<title>Node3&#45;&gt;Node2</title>
<path fill="none" stroke="#9a32cd" stroke-dasharray="5,2" d="M26.9698,-336.0879C33.7088,-303.7021 51.746,-239.9312 93.5,-207 124.5033,-182.5479 145.7484,-207.7468 180.5,-189 206.4563,-174.9978 228.8645,-147.5465 239.6504,-132.8461"/>
<polygon fill="#9a32cd" stroke="#9a32cd" points="23.4898,-335.651 25.037,-346.1322 30.3636,-336.9738 23.4898,-335.651"/>
<text text-anchor="middle" x="118.5" y="-281.5" font-family="Helvetica,sans-Serif" font-size="10.00" fill="#000000"> istart</text>
<text text-anchor="middle" x="118.5" y="-270.5" font-family="Helvetica,sans-Serif" font-size="10.00" fill="#000000">isteps</text>
<text text-anchor="middle" x="118.5" y="-259.5" font-family="Helvetica,sans-Serif" font-size="10.00" fill="#000000">part_spec</text>
<text text-anchor="middle" x="118.5" y="-248.5" font-family="Helvetica,sans-Serif" font-size="10.00" fill="#000000">part_status</text>
</g>
<!-- Node4 -->
<g id="node4" class="node">
<title>Node4</title>
<g id="a_node4"><a xlink:title=" ">
<polygon fill="none" stroke="#bfbfbf" points="110,-346.5 110,-365.5 155,-365.5 155,-346.5 110,-346.5"/>
<text text-anchor="middle" x="132.5" y="-353.5" font-family="Helvetica,sans-Serif" font-size="10.00" fill="#000000">logical</text>
</a>
</g>
</g>
<!-- Node4&#45;&gt;Node1 -->
<g id="edge7" class="edge">
<title>Node4&#45;&gt;Node1</title>
<path fill="none" stroke="#9a32cd" stroke-dasharray="5,2" d="M126.5299,-336.5979C112.6071,-288.1006 81.5112,-158.2282 113.5,-57 118.0664,-42.5497 128.844,-28.6898 136.8471,-19.8135"/>
<polygon fill="#9a32cd" stroke="#9a32cd" points="123.2367,-337.8037 129.4329,-346.3977 129.9484,-335.8154 123.2367,-337.8037"/>
<text text-anchor="middle" x="149.5" y="-120.5" font-family="Helvetica,sans-Serif" font-size="10.00" fill="#000000"> flag_enter_diap</text>
</g>
<!-- Node4&#45;&gt;Node2 -->
<g id="edge3" class="edge">
<title>Node4&#45;&gt;Node2</title>
<path fill="none" stroke="#9a32cd" stroke-dasharray="5,2" d="M141.7089,-337.1784C164.7754,-290.0337 224.4194,-168.1296 241.7264,-132.7565"/>
<polygon fill="#9a32cd" stroke="#9a32cd" points="138.5043,-335.7642 137.2533,-346.2849 144.7921,-338.8406 138.5043,-335.7642"/>
<text text-anchor="middle" x="224" y="-276" font-family="Helvetica,sans-Serif" font-size="10.00" fill="#000000"> cell_out</text>
<text text-anchor="middle" x="224" y="-265" font-family="Helvetica,sans-Serif" font-size="10.00" fill="#000000">dvm</text>
<text text-anchor="middle" x="224" y="-254" font-family="Helvetica,sans-Serif" font-size="10.00" fill="#000000">light_day</text>
</g>
<!-- Node5 -->
<g id="node5" class="node">
<title>Node5</title>
<g id="a_node5"><a xlink:title=" ">
<polygon fill="none" stroke="#bfbfbf" points="287,-346.5 287,-365.5 320,-365.5 320,-346.5 287,-346.5"/>
<text text-anchor="middle" x="303.5" y="-353.5" font-family="Helvetica,sans-Serif" font-size="10.00" fill="#000000">real</text>
</a>
</g>
</g>
<!-- Node5&#45;&gt;Node1 -->
<g id="edge5" class="edge">
<title>Node5&#45;&gt;Node1</title>
<path fill="none" stroke="#9a32cd" stroke-dasharray="5,2" d="M315.0632,-337.3971C316.4803,-334.3544 317.7067,-331.1608 318.5,-328 347.8444,-211.0826 383.2954,-150.7327 307.5,-57 294.1803,-40.5282 243.9932,-27.5976 203.1492,-19.5039"/>
<polygon fill="#9a32cd" stroke="#9a32cd" points="311.8811,-335.9226 310.1807,-346.3801 318.0313,-339.2654 311.8811,-335.9226"/>
<text text-anchor="middle" x="383" y="-181" font-family="Helvetica,sans-Serif" font-size="10.00" fill="#000000"> a_molt</text>
<text text-anchor="middle" x="383" y="-170" font-family="Helvetica,sans-Serif" font-size="10.00" fill="#000000">abund</text>
<text text-anchor="middle" x="383" y="-159" font-family="Helvetica,sans-Serif" font-size="10.00" fill="#000000">age</text>
<text text-anchor="middle" x="383" y="-148" font-family="Helvetica,sans-Serif" font-size="10.00" fill="#000000">b_molt</text>
<text text-anchor="start" x="352.5" y="-137" font-family="Helvetica,sans-Serif" font-size="10.00" fill="#000000">counter_c6</text>
<text text-anchor="middle" x="383" y="-126" font-family="Helvetica,sans-Serif" font-size="10.00" fill="#000000">_active</text>
<text text-anchor="middle" x="383" y="-115" font-family="Helvetica,sans-Serif" font-size="10.00" fill="#000000">counter_eggs</text>
<text text-anchor="middle" x="383" y="-104" font-family="Helvetica,sans-Serif" font-size="10.00" fill="#000000">duration_ep</text>
<text text-anchor="middle" x="383" y="-93" font-family="Helvetica,sans-Serif" font-size="10.00" fill="#000000">ep1</text>
<text text-anchor="middle" x="383" y="-82" font-family="Helvetica,sans-Serif" font-size="10.00" fill="#000000">ep2</text>
<text text-anchor="middle" x="383" y="-71" font-family="Helvetica,sans-Serif" font-size="10.00" fill="#000000">ep_daily</text>
<text text-anchor="middle" x="383" y="-60" font-family="Helvetica,sans-Serif" font-size="10.00" fill="#000000">...</text>
</g>
<!-- Node5&#45;&gt;Node2 -->
<g id="edge4" class="edge">
<title>Node5&#45;&gt;Node2</title>
<path fill="none" stroke="#9a32cd" stroke-dasharray="5,2" d="M298.6758,-336.28C286.988,-288.5037 257.4859,-167.9071 248.8868,-132.7565"/>
<polygon fill="#9a32cd" stroke="#9a32cd" points="295.3472,-337.4031 301.1234,-346.2849 302.1467,-335.7396 295.3472,-337.4031"/>
<text text-anchor="middle" x="305" y="-320" font-family="Helvetica,sans-Serif" font-size="10.00" fill="#000000"> xk1</text>
<text text-anchor="middle" x="305" y="-309" font-family="Helvetica,sans-Serif" font-size="10.00" fill="#000000">xk2</text>
<text text-anchor="middle" x="305" y="-298" font-family="Helvetica,sans-Serif" font-size="10.00" fill="#000000">xk3</text>
<text text-anchor="middle" x="305" y="-287" font-family="Helvetica,sans-Serif" font-size="10.00" fill="#000000">xk4</text>
<text text-anchor="middle" x="305" y="-276" font-family="Helvetica,sans-Serif" font-size="10.00" fill="#000000">xpo</text>
<text text-anchor="middle" x="305" y="-265" font-family="Helvetica,sans-Serif" font-size="10.00" fill="#000000">yk1</text>
<text text-anchor="middle" x="305" y="-254" font-family="Helvetica,sans-Serif" font-size="10.00" fill="#000000">yk2</text>
<text text-anchor="middle" x="305" y="-243" font-family="Helvetica,sans-Serif" font-size="10.00" fill="#000000">yk3</text>
<text text-anchor="middle" x="305" y="-232" font-family="Helvetica,sans-Serif" font-size="10.00" fill="#000000">yk4</text>
<text text-anchor="middle" x="305" y="-221" font-family="Helvetica,sans-Serif" font-size="10.00" fill="#000000">ypo</text>
<text text-anchor="middle" x="305" y="-210" font-family="Helvetica,sans-Serif" font-size="10.00" fill="#000000">...</text>
</g>
</g>
</svg>
